<svg width="27" height="20" viewBox="0 0 27 20" fill="none" xmlns="http://www.w3.org/2000/svg">
<path d="M17.1427 0.324951C16.8862 0.76956 16.6576 1.22873 16.4581 1.69995C14.4983 1.40001 12.502 1.40001 10.5423 1.69995C10.3428 1.22873 10.1142 0.76956 9.8577 0.324951C8.01164 0.630202 6.21701 1.17687 4.52312 1.94995C1.49408 6.18031 0.120388 11.3161 0.648115 16.4375C2.62209 17.8735 4.83758 18.9688 7.19686 19.675C7.73409 18.9882 8.21354 18.2609 8.63061 17.5C7.86088 17.2253 7.12104 16.8778 6.42187 16.4625C6.61363 16.339 6.79502 16.201 6.96437 16.05C9.00321 17.0003 11.2372 17.4939 13.5002 17.4939C15.7632 17.4939 17.9972 17.0003 20.036 16.05C20.2169 16.2 20.3977 16.3375 20.5785 16.4625C19.8756 16.8745 19.1365 17.2259 18.3698 17.5125C18.7696 18.2906 19.2362 19.0349 19.7648 19.7375C22.1211 19.0337 24.3328 17.9382 26.3006 16.5C26.841 11.3777 25.4662 6.23768 22.4256 2.01245C20.7507 1.22337 18.9739 0.655789 17.1427 0.324951V0.324951ZM9.21187 13.5125C8.56549 13.4675 7.96223 13.1821 7.52872 12.7159C7.09521 12.2498 6.86516 11.6392 6.88687 11.0125C6.86188 10.3848 7.0908 9.77255 7.52496 9.30571C7.95913 8.83887 8.5643 8.55429 9.21187 8.51245C9.85943 8.55429 10.4646 8.83887 10.8988 9.30571C11.3329 9.77255 11.5618 10.3848 11.5369 11.0125C11.5618 11.6401 11.3329 12.2523 10.8988 12.7192C10.4646 13.186 9.85943 13.4706 9.21187 13.5125V13.5125ZM17.7885 13.5125C17.1422 13.4675 16.5389 13.1821 16.1054 12.7159C15.6719 12.2498 15.4418 11.6392 15.4635 11.0125C15.4386 10.3848 15.6675 9.77255 16.1016 9.30571C16.5358 8.83887 17.141 8.55429 17.7885 8.51245C18.4373 8.55117 19.0444 8.83483 19.4793 9.30238C19.9141 9.76994 20.1418 10.384 20.1135 11.0125C20.1418 11.6409 19.9141 12.255 19.4793 12.7225C19.0444 13.1901 18.4373 13.4737 17.7885 13.5125V13.5125Z" fill="white"/>
</svg>
