<svg width="25" height="24" viewBox="0 0 25 24" fill="none" xmlns="http://www.w3.org/2000/svg">
<path fill-rule="evenodd" clip-rule="evenodd" d="M12.5314 0.333252C5.8747 0.333252 0.479492 5.54242 0.479492 11.9696C0.479492 17.1099 3.9317 21.4721 8.72153 23.0121C9.32449 23.1171 9.54199 22.7589 9.54199 22.4509C9.54199 22.1744 9.53233 21.4418 9.5287 20.4723C6.17558 21.1746 5.46749 18.9113 5.46749 18.9113C4.92132 17.5673 4.12987 17.2091 4.12987 17.2091C3.03633 16.4869 4.21324 16.5033 4.21324 16.5033C5.42399 16.5849 6.05837 17.7026 6.05837 17.7026C7.13378 19.4806 8.88103 18.9673 9.56495 18.6698C9.67491 17.9173 9.98908 17.4039 10.3322 17.1134C7.65699 16.8206 4.84399 15.8219 4.84399 11.3618C4.84399 10.0936 5.31403 9.05292 6.08133 8.24092C5.95928 7.94575 5.54241 6.76159 6.20095 5.16092C6.20095 5.16092 7.21233 4.84709 9.5142 6.35208C10.4973 6.09387 11.5114 5.96206 12.5302 5.96009C13.549 5.96168 14.5632 6.09349 15.5462 6.35208C17.8493 4.84592 18.8594 5.16092 18.8594 5.16092C19.518 6.76159 19.1047 7.94575 18.9791 8.24092C19.7524 9.05292 20.2164 10.0924 20.2164 11.3618C20.2164 15.8336 17.401 16.8159 14.7161 17.1041C15.145 17.4634 15.5317 18.1728 15.5317 19.2578C15.5317 20.8141 15.5172 22.0694 15.5172 22.4509C15.5172 22.7624 15.7323 23.1241 16.3473 23.0098C21.1347 21.4674 24.5833 17.1088 24.5833 11.9696C24.5833 5.54242 19.1881 0.333252 12.5314 0.333252Z" fill="white"/>
</svg>
