<svg xmlns="http://www.w3.org/2000/svg" xmlns:xlink="http://www.w3.org/1999/xlink" viewBox="0 0 500 500"><defs><clipPath id="freepik--clip-path--inject-153"><path d="M419.57,168.23a10.06,10.06,0,0,0,3.95,3.7s8.86,0,11.48-10.29,7.67-12.49,7.67-12.49a2.57,2.57,0,0,0-2.31-.52l1.23-1.37a4,4,0,0,0-4,.46l.31-2a8.42,8.42,0,0,1-4.81,3.73C429.91,150.16,416.31,155.79,419.57,168.23Z" style="fill:#fff;stroke:#263238;stroke-linecap:round;stroke-linejoin:round"></path></clipPath><clipPath id="freepik--clip-path-2--inject-153"><path d="M282.83,107c35.28,14.66,35.73,48.79,23.62,65.82-11,15.51-25.88,14.34-27.18,21.76s-42.8-3.39-44.73-8.7,6.68-4.59-9.26-25.87S239.51,89,282.83,107Z" style="fill:#fff;stroke:#263238;stroke-linecap:round;stroke-linejoin:round"></path></clipPath></defs><g id="freepik--Elements--inject-153"><path d="M175.59,167.34c12.87-2,12.6-29.42-10.11-37.41s-11-25.78.26-21.85,11.45,30.19,28.41,32.53,20.53-31.58,11.21-42.5,9.7-6.41,12-9.69c3.67-5.3-8.53-30.74,4.78-28.49,6.59,1.11-.32,17.48,4.61,41.81s10.84,36.44,22,23.5S247.62,102.15,255.8,96s14.78-.55,14,7.18-1.12,15.33,4.3,12.56,14.34-15.71,18.77-25.88,9.47-9.52,9.88-1.94S283,112,282.48,123.29s7.34,31.74,25.2,18.14,22-18.55,28.18-11.28,1.59,19.17,11.7,19,22.71-27.07,29.07-25,18.37,7.92-3.49,20-29.27,11.56-28.3,24.74,52.17,14.75,47,23.49-62.46,7.69-68.44,29.22,25,18.24,19.58,30.29-18-5.16-29.37-15.33S302,234,292,237.21s-12.19-2.49-18.61-4.11-2.5,11.55-12.16,10.15-3-3.38-9.54-5.89-12.19,22.43-26.25,18.54-22.61-15.25-31.41-7.23-2.37,25.05-14.92,23.87-8.1-12.88-2.79-14.24,19.65-20.6,17.17-28S167.1,242.61,162,232.48s-9.52-18.82-21.76-15.77-14.11-14-4.53-13.74,31.81,1.93,33.55-6.09-3.94-17-19.06-24.57-.28-22.88,10.35-14.42S165.41,168.88,175.59,167.34Z" style="fill:#FFC100"></path><polygon points="70.69 292.05 62.14 273.83 93.66 273.83 70.69 292.05" style="fill:none;stroke:#263238;stroke-linecap:round;stroke-linejoin:round"></polygon><polygon points="206.83 165.9 210.78 176.52 193.09 175.05 206.83 165.9" style="fill:none;stroke:#263238;stroke-linecap:round;stroke-linejoin:round"></polygon><polyline points="211.41 56.87 220.88 61.45 211.41 66.08 220.88 71.94 211.41 78.28 222.03 83.19 213.66 90.99" style="fill:none;stroke:#263238;stroke-linecap:round;stroke-linejoin:round"></polyline><polygon points="399.15 337.66 395.96 357.11 416.32 357.11 417.91 351.12 404.35 351 406.94 336.83 399.15 337.66" style="fill:none;stroke:#263238;stroke-linecap:round;stroke-linejoin:round"></polygon><circle cx="356.2" cy="393.87" r="8.58" transform="translate(-174.18 367.23) rotate(-45)" style="fill:none;stroke:#263238;stroke-linecap:round;stroke-linejoin:round"></circle><circle cx="152.63" cy="111.69" r="8.58" style="fill:none;stroke:#263238;stroke-linecap:round;stroke-linejoin:round"></circle><line x1="415.76" y1="257.2" x2="434.66" y2="268.01" style="fill:none;stroke:#263238;stroke-linecap:round;stroke-linejoin:round"></line><line x1="428.85" y1="256.72" x2="421.57" y2="271.05" style="fill:none;stroke:#263238;stroke-linecap:round;stroke-linejoin:round"></line><line x1="324.82" y1="191.74" x2="304.35" y2="199.17" style="fill:none;stroke:#263238;stroke-linecap:round;stroke-linejoin:round"></line><line x1="316.72" y1="202.03" x2="310.49" y2="187.21" style="fill:none;stroke:#263238;stroke-linecap:round;stroke-linejoin:round"></line><path d="M130.78,267.8c-.14.38,14.88-6.49,14.88-6.49L153,278.12l-14.89,6.49Z" style="fill:none;stroke:#263238;stroke-linecap:round;stroke-linejoin:round"></path><path d="M336.86,245.28c-.16,0,4,5,4,5l-5.61,4.48-4-5Z" style="fill:none;stroke:#263238;stroke-linecap:round;stroke-linejoin:round"></path><path d="M62.14,198.63a3.83,3.83,0,1,1-3.83-3.83A3.82,3.82,0,0,1,62.14,198.63Z" style="fill:none;stroke:#263238;stroke-linecap:round;stroke-linejoin:round"></path><path d="M294,60.69a3.83,3.83,0,1,1-3.83-3.82A3.83,3.83,0,0,1,294,60.69Z" style="fill:none;stroke:#263238;stroke-linecap:round;stroke-linejoin:round"></path><polyline points="342.25 291.44 346.32 298.24 338 298.89 340.21 305.25 330.99 305.95 335.47 318.16" style="fill:none;stroke:#263238;stroke-linecap:round;stroke-linejoin:round"></polyline><polyline points="126.51 346.85 133.69 351.17 124.08 359.01 130.1 362.81 122.36 371.39" style="fill:none;stroke:#263238;stroke-linecap:round;stroke-linejoin:round"></polyline><polyline points="334 128 328.08 122.06 339.31 116.79 334.4 111.64 343.99 105.2" style="fill:none;stroke:#263238;stroke-linecap:round;stroke-linejoin:round"></polyline></g><g id="freepik--Music--inject-153"><path d="M102.66,131.31s42.82,63,103.18,73.55" style="fill:none;stroke:#263238;stroke-linecap:round;stroke-linejoin:round"></path><path d="M91.8,144.68s61.33,64.13,110.14,67.75" style="fill:none;stroke:#263238;stroke-linecap:round;stroke-linejoin:round"></path><path d="M86.86,164.89S149.35,218,196.92,221" style="fill:none;stroke:#263238;stroke-linecap:round;stroke-linejoin:round"></path><path d="M86.86,186.91s51.66,39.67,106.29,40.33" style="fill:none;stroke:#263238;stroke-linecap:round;stroke-linejoin:round"></path><path d="M139.76,159.86a10.93,10.93,0,0,1-2.89-5.87,11.17,11.17,0,0,1-.1-3.35v0L123.1,175.35a11.84,11.84,0,0,0-3.85-5.63c-3.86-3.25-8.72-3.84-10.85-1.3s-.73,7.22,3.13,10.47,8.72,3.83,10.86,1.3a4.11,4.11,0,0,0,.73-1.33l10.76-19.47a14.73,14.73,0,0,0,4.16,4.48,7.38,7.38,0,0,1,3,7.29C141.15,170.83,144.16,164.47,139.76,159.86Z" style="fill:#263238"></path><path d="M147.07,203.21a9.28,9.28,0,0,1-2.44-5,9.43,9.43,0,0,1-.09-2.83v0L133,216.31a10,10,0,0,0-3.25-4.76c-3.26-2.75-7.37-3.24-9.17-1.1s-.62,6.1,2.65,8.85,7.37,3.24,9.17,1.1a3.42,3.42,0,0,0,.62-1.12l9.1-16.46a12.39,12.39,0,0,0,3.52,3.78,6.23,6.23,0,0,1,2.49,6.17C148.25,212.49,150.79,207.11,147.07,203.21Z" style="fill:#263238"></path><path d="M189.53,199.21a9.85,9.85,0,0,1-2.52-7.8h0l-11.56,20.91a10,10,0,0,0-3.26-4.77c-3.26-2.75-7.37-3.24-9.17-1.1s-.62,6.11,2.65,8.85,7.37,3.25,9.17,1.1a3.42,3.42,0,0,0,.62-1.12l9.11-16.46a12.22,12.22,0,0,0,3.51,3.78,6.25,6.25,0,0,1,2.5,6.17C190.71,208.49,193.25,203.1,189.53,199.21Z" style="fill:#263238"></path></g><g id="freepik--paint-tools--inject-153"><path d="M342.62,165.22c-11.83,28.26,3.5,58.29,36.69,62.7S429.24,209,415,201.63s-12.5-18.21-15.78-41.71S354.43,137,342.62,165.22ZM396,189.29c-14.31,11.14-11-8-5.86-9.72S401.38,185.13,396,189.29Z" style="fill:#999;stroke:#263238;stroke-linecap:round;stroke-linejoin:round"></path><path d="M386.18,153.13c-3.48-.72-5.76,3.68-8.51,5a70.7,70.7,0,0,0,4.51,7.12,2.41,2.41,0,0,1,2-.84,11.27,11.27,0,0,1,1.62.4,3.81,3.81,0,0,0,4.09-5.68c-.22-.36-.5-.76-.38-1.16s.65-.62.77-1a1.15,1.15,0,0,0-.21-.83A6,6,0,0,0,386.18,153.13Z" style="fill:#FFC100;stroke:#263238;stroke-linecap:round;stroke-linejoin:round"></path><path d="M365.12,157.9c-1.92-.39-4.07-.3-5.61-1.51a2.74,2.74,0,0,0-1.12-.71,2.06,2.06,0,0,0-1.46.54A16.11,16.11,0,0,0,352,160.8c-1.16,1.94-1.36,4.63.14,6.32.83.93,2.16,1.62,2.25,2.86s-2.46,4.43.63,4.69a4.88,4.88,0,0,0,2.76-.94c1.5-.86,3.59-.38,4.83-1.42,1.06-.91.05-2.79,1.76-3.39,1.1-.39,3.48.84,3.78-1,.2-1.32-1.67-1.79-2.12-2.82a2.08,2.08,0,0,1,.6-2.21,6.24,6.24,0,0,1,2.12-1.15C369.16,159.77,367,158.28,365.12,157.9Z" style="fill:#FFC100;stroke:#263238;stroke-linecap:round;stroke-linejoin:round"></path><path d="M364.2,186.4c-.43-.34-2.7.47-3.68-.59-3.86-4.16-13.69,10.25-7.29,12.55a3.94,3.94,0,0,1,1.24.53c1.33,1.11-.33,3.67.91,4.88s2.93-.33,4.5-.26a11,11,0,0,0,1.79.23,3.27,3.27,0,0,0,1.95-1.4c1.6-1.91,3.45-4.34,3.16-7-.21-2-1.63-4.13-2.26-6C364,187.8,365.48,187.71,364.2,186.4Z" style="fill:#FFC100;stroke:#263238;stroke-linecap:round;stroke-linejoin:round"></path><path d="M382.56,208.14a16.67,16.67,0,0,1-1.84-2.6c-.65-.83-1.9-1.44-2.76-.81-.4.29-.65.81-1.13.94a2.28,2.28,0,0,1-1.14-.18,2.89,2.89,0,0,0-3.32,4.13c1.22,2.36,2.3,9.17,4.49,8.73,1.69-.35,3.13,1.83,4.68,1.43,2.57-.65,4.37-8.62,2.59-10.47C383.68,208.84,383.05,208.57,382.56,208.14Z" style="fill:#FFC100;stroke:#263238;stroke-linecap:round;stroke-linejoin:round"></path><path d="M403.78,209.76a17.75,17.75,0,0,0-3.13-1.09,5.89,5.89,0,0,0-3-.22,2,2,0,0,0-1.53,2.32c.14.44.48.8.63,1.23.58,1.65-2.48,4.59.23,5.54,2.3.8,6.57.37,8.4-1.39C408.51,213.07,406.44,211,403.78,209.76Z" style="fill:#FFC100;stroke:#263238;stroke-linecap:round;stroke-linejoin:round"></path><polygon points="416.56 172.79 419.96 168.39 424.54 171.3 421.18 176.19 416.56 172.79" style="fill:#bfbfbf;stroke:#263238;stroke-linecap:round;stroke-linejoin:round"></polygon><path d="M416.22,171.53c-18.75,27.71-29.9,47.44-35,56.88a.9.9,0,0,0,1.49,1c6-7.1,18.25-22.53,39.36-53.12C423.2,174.74,417.29,170,416.22,171.53Z" style="fill:#263238"></path><path d="M419.57,168.23a10.06,10.06,0,0,0,3.95,3.7s8.86,0,11.48-10.29,7.67-12.49,7.67-12.49a2.57,2.57,0,0,0-2.31-.52l1.23-1.37a4,4,0,0,0-4,.46l.31-2a8.42,8.42,0,0,1-4.81,3.73C429.91,150.16,416.31,155.79,419.57,168.23Z" style="fill:#fff"></path><g style="clip-path:url(#freepik--clip-path--inject-153)"><path d="M435,161.64a17.58,17.58,0,0,1-1,2.88c.19-2.5,1.19-6,0-6.43-1.85-.68-2.28,3.06-2.57,1.81s1.32-3.53,1.12-5-2.45,1.15-3.84,1.51,2.35-3.92,1.85-5a1.83,1.83,0,0,0-1-.66,18.09,18.09,0,0,1,3.48-1.31,8.42,8.42,0,0,0,4.81-3.72l-.31,2a4,4,0,0,1,4-.46l-1.23,1.38a2.49,2.49,0,0,1,2.3.51S437.62,151.35,435,161.64Z" style="fill:#FFC100"></path></g><path d="M419.57,168.23a10.06,10.06,0,0,0,3.95,3.7s8.86,0,11.48-10.29,7.67-12.49,7.67-12.49a2.57,2.57,0,0,0-2.31-.52l1.23-1.37a4,4,0,0,0-4,.46l.31-2a8.42,8.42,0,0,1-4.81,3.73C429.91,150.16,416.31,155.79,419.57,168.23Z" style="fill:none;stroke:#263238;stroke-linecap:round;stroke-linejoin:round"></path></g><g id="freepik--light-bulb--inject-153"><path d="M235.91,183.77s-6.17,1.43-1.18,8.16c0,0-5.64.93-1.7,7.81,0,0-3.41,2.89.83,8,0,0-2,5,7.93,11.81,0,0-.07,4.25,6.81,5.88,6,1.42,7.63-1.09,7.63-1.09s7.9-1,12.24-7.49c0,0,7-2.13,4.95-6.39,0,0,5.64-4.4,2.64-7.25,0,0,6.48-6.53,3.21-8.7C273.53,190.72,235.91,183.77,235.91,183.77Z" style="fill:#263238;stroke:#263238;stroke-linecap:round;stroke-linejoin:round"></path><path d="M282.83,107c35.28,14.66,35.73,48.79,23.62,65.82-11,15.51-25.88,14.34-27.18,21.76s-42.8-3.39-44.73-8.7,6.68-4.59-9.26-25.87S239.51,89,282.83,107Z" style="fill:#fff"></path><g style="clip-path:url(#freepik--clip-path-2--inject-153)"><path d="M279.28,194.54c-1.3,7.42-42.81-3.4-44.74-8.7s6.68-4.6-9.26-25.87,14.23-71,57.55-53a60.05,60.05,0,0,1,12,6.58c-17.72-3.9-41.8-4.58-55.08,19.84-14.45,26.59,8,50.77,19.34,52.65,0,0-9.36-6.82-12.48-18.29,0,0,16,23.7,41,19.74C283.14,189.62,279.86,191.22,279.28,194.54Z" style="fill:#FFC100;opacity:0.4"></path></g><path d="M282.83,107c35.28,14.66,35.73,48.79,23.62,65.82-11,15.51-25.88,14.34-27.18,21.76s-42.8-3.39-44.73-8.7,6.68-4.59-9.26-25.87S239.51,89,282.83,107Z" style="fill:none;stroke:#263238;stroke-linecap:round;stroke-linejoin:round"></path><path d="M273.33,204s-16.61,5.59-37.46-2.75" style="fill:none;stroke:#fff;stroke-linecap:round;stroke-linejoin:round"></path><path d="M263.61,199a24.3,24.3,0,0,0,2.95-.39" style="fill:none;stroke:#fff;stroke-linecap:round;stroke-linejoin:round"></path><path d="M237.15,193.54a71.83,71.83,0,0,0,21,5.41" style="fill:none;stroke:#fff;stroke-linecap:round;stroke-linejoin:round"></path><path d="M248.51,211.6c6.92,1.09,14.26,1.3,21-.78" style="fill:none;stroke:#fff;stroke-linecap:round;stroke-linejoin:round"></path><path d="M236.65,208.7A64,64,0,0,0,245,211" style="fill:none;stroke:#fff;stroke-linecap:round;stroke-linejoin:round"></path><path d="M259.12,217.81a61.94,61.94,0,0,1-18-4.85" style="fill:none;stroke:#fff;stroke-linecap:round;stroke-linejoin:round"></path><path d="M265,218c-.9.05-1.81,0-2.72,0" style="fill:none;stroke:#fff;stroke-linecap:round;stroke-linejoin:round"></path><path d="M243.3,220.64a20.56,20.56,0,0,0,11.42,3.78" style="fill:none;stroke:#fff;stroke-linecap:round;stroke-linejoin:round"></path><path d="M277.06,193.07s-17.74-11.4-38.49-10.3" style="fill:none;stroke:#263238;stroke-linecap:round;stroke-linejoin:round"></path><path d="M264.64,189.84s10.17-22.17,24.37-23.67c0,0-8.6-6.91-11.95-7.95s-5.48,6.27-3.14,5.49,5.68-10.92,1.69-13.57-11.69,10.53-9.42,11.61,5.1-12.79-.46-14.36-9.68,10.39-7.07,10.63,3.51-5-2.43-6.94c-6.43-2.15-14.49,1-14.49,1S254.19,167,250.08,186" style="fill:none;stroke:#263238;stroke-linecap:round;stroke-linejoin:round"></path></g><g id="freepik--Character--inject-153"><path d="M302.08,458.5c5.11-6.33,8.16-24.5,8.16-24.5a51.33,51.33,0,0,1,11.26,11.5,89.34,89.34,0,0,0,16.71-4.17A67.9,67.9,0,0,0,354,433.5c-10.87-16-29.27-43.26-40.6-51.83-4.38-3.31-17.95-6.54-17.95-6.54-3.07-2.78-9.77,0-9.77,0-36.25,9.22-69.4-2.72-69.4-2.72s-4.7-2.17-8.55,0a51.33,51.33,0,0,0-11.28,0c-8.3,1.14-17.37,10.62-21.11,14.93l-31.85,36.89s-1.07,14.52,1.18,16.44c18,15.43,44.54-19.63,44.54-19.63.17.07.58,30.53,14.79,46.46,0,0,10.07,4.6,49.23,1C292.09,464.93,302.08,458.5,302.08,458.5Z" style="fill:#FFC100"></path><path d="M166.25,413.33c-6,.53-9.15-.91-10.35-3.47h0c8.68-10,18.81-21.78,19.44-22.51l1-1.14C180.84,396.28,184.58,411.73,166.25,413.33Z" style="opacity:0.2"></path><path d="M192.92,445.1A122.24,122.24,0,0,1,189.21,421s4.36-5.71,5.57-11.71C194.78,409.33,200.44,431.9,192.92,445.1Z" style="opacity:0.2"></path><path d="M318.19,441.33a47.74,47.74,0,0,0-7.95-7.33s.43-14.33,4.43-18.67C317.89,411.84,321.32,430,318.19,441.33Z" style="opacity:0.2"></path><path d="M302.08,458.5c5.11-6.33,8.16-24.5,8.16-24.5a51.33,51.33,0,0,1,11.26,11.5" style="fill:none;stroke:#263238;stroke-linecap:round;stroke-linejoin:round"></path><path d="M354,433.5c-10.87-16-29.27-43.26-40.6-51.83-4.38-3.31-17.95-6.54-17.95-6.54-3.07-2.78-9.77,0-9.77,0-36.25,9.22-69.4-2.72-69.4-2.72s-4.7-2.17-8.55,0a51.33,51.33,0,0,0-11.28,0c-8.3,1.14-17.37,10.62-21.11,14.93l-31.85,36.89s-1.07,14.52,1.18,16.44c18,15.43,44.54-19.63,44.54-19.63.17.07.58,30.53,14.79,46.46" style="fill:none;stroke:#263238;stroke-linecap:round;stroke-linejoin:round"></path><path d="M287,366.33l-.48.2A1.68,1.68,0,0,0,287,366.33Z" style="fill:#263238"></path><path d="M297.79,339.35c3.8.56,4.73-2.23,4.73-2.23s-4.73,2.23-8.92-6.35c-2.38-4.89-1.2-13.87.25-20.69,2.93-4.83,7.18-11.51,7.74-19.43,1-13.6-5.39-20.49-12.76-18.47,0,0-.54-11.49-10.91-15.61s-12-.74-22-3.24-19.78-.32-23.36,6.15-4.8,18.22-10.91,22.77-16.8,15.5-13.42,27.75,1.46,16.44-3,22.23S203.49,349.42,212,353c0,0-3.61-1.93-1.06-5.16,0,0,2,7.68,8.67,6.28s15.14-1.87,19.46,2.86,20.11,6,23.67,2.4,6.32-.26,12.77,3,13.61.4,13.61.4-.6,2.79-2.14,3.62c1.31-.55,4.94-2.28,6-4.88s1.66-5.11.39-11.18c4.47-1.75,2.41-4.71,2.41-4.71C300,348,302,341,302,341,298.07,340.94,297.79,339.35,297.79,339.35Z" style="fill:#263238"></path><path d="M289.31,376.38s-28.23,12.56-37.3,13.07-39.92-15.9-39.92-15.9l23.52-6.42c3.2-6.1,3.28-13.28,2.51-21.69-.24-2.61-.55-5.07-.89-7.28-.8-5.33-1.69-9.05-1.69-9.05l33.24,1.38a58.21,58.21,0,0,0-1.71,6.44,79.64,79.64,0,0,0-1.57,13.71c-.38,11.5,1.4,18,1.4,18Z" style="fill:#fff;stroke:#263238;stroke-linecap:round;stroke-linejoin:round"></path><path d="M220.59,377.87s17.8,3.12,22.22,2.61,7.89,3.84,7.89,3.84" style="fill:#fff;stroke:#263238;stroke-linecap:round;stroke-linejoin:round"></path><path d="M283.14,379S265,381,260.61,381.1s-5.69,3.22-5.69,3.22" style="fill:#fff;stroke:#263238;stroke-linecap:round;stroke-linejoin:round"></path><path d="M267.07,336.93a79.64,79.64,0,0,0-1.57,13.71,28.84,28.84,0,0,1-9.31,5.5c-5.59,1.85-13-5-18.07-10.7-.24-2.61-.55-5.07-.89-7.28Z" style="fill:#263238"></path><path d="M227.82,301.13s-2.74-4.21-5.18-3.36S220.2,310,220.39,313s6.16,9.59,8.66,7.78" style="fill:#fff;stroke:#263238;stroke-linecap:round;stroke-linejoin:round"></path><path d="M288,310s3.83-3.24,5.93-1.72-1.2,12.44-2.24,15.23-8.67,7.41-10.54,4.95" style="fill:#fff;stroke:#263238;stroke-linecap:round;stroke-linejoin:round"></path><path d="M250.82,353.67c-10.07-1.49-20.07-18.57-21.28-23.38-1.34-5.35-4.29-31.74,1.46-46.2,6.47-16.25,20-23.11,33.19-21.17s24.17,12.41,25.68,29.84c1.34,15.5-9.1,39.92-11.93,44.66C275.4,341.68,261.45,355.23,250.82,353.67Z" style="fill:#fff;stroke:#263238;stroke-linecap:round;stroke-linejoin:round"></path><path d="M273.65,311.33c-.27,1.87-1.33,3.26-2.36,3.1s-1.63-1.78-1.36-3.65,1.33-3.25,2.36-3.1S273.93,309.46,273.65,311.33Z" style="fill:#263238"></path><path d="M240.77,306.49c-.27,1.86.34,3.5,1.37,3.65s2.08-1.24,2.35-3.11-.33-3.5-1.36-3.65S241.05,304.62,240.77,306.49Z" style="fill:#263238"></path><path d="M263.29,331.74s-5.22,10.24-11.88,8.56-6.61-11-6.61-11.27l.94.36a39.76,39.76,0,0,0,8.14,2.1,44.62,44.62,0,0,0,8.12.32C262.81,331.78,263.29,331.74,263.29,331.74Z" style="fill:#757575"></path><path d="M254.6,310.43c.26,6.43-5.26,7.52-4.2,9.75a6.12,6.12,0,0,0,3.54,2.94" style="fill:#fff;stroke:#263238;stroke-linecap:round;stroke-linejoin:round"></path><path d="M244.8,329s-.06,9.61,6.61,11.29,11.88-8.57,11.88-8.57" style="fill:none;stroke:#263238;stroke-linecap:round;stroke-linejoin:round"></path><path d="M234.82,298s6-7.58,15.31-5.18" style="fill:none;stroke:#263238;stroke-linecap:round;stroke-linejoin:round"></path><path d="M280.91,304.8s-3.57-9-13.16-9.37" style="fill:none;stroke:#263238;stroke-linecap:round;stroke-linejoin:round"></path><polygon points="309.04 298.75 307.18 300.81 305.74 302.4 289.07 312.08 289.75 307.41 303.4 299.48 306.35 299.1 309.04 298.75" style="fill:#FFC100;stroke:#263238;stroke-linecap:round;stroke-linejoin:round"></polygon><path d="M305,302.81c-2.47-.47-1.64-3.34-1.64-3.34l5.64-.72Z" style="fill:#fff;stroke:#263238;stroke-linecap:round;stroke-linejoin:round"></path><path d="M309,298.75l-1.86,2.05a1.24,1.24,0,0,1-.83-1.7Z" style="fill:#263238"></path><path d="M274.07,276.83s-6.33,8.3-20.07,10.7c-17.21,3-26.71,17.88-26.47,24.09a52.94,52.94,0,0,1-2.95-27.39c3.42-22.84,24.73-29.37,40.22-27.78s23,17.12,23,17.12,11.63,9.06,10,20.48c-1.62,10.93-4.27,11.24-5.68,13.71-1.94,3.42.61,4.85-6.19,10.48,0,0,2.69-15.26-.65-26.64S274.07,276.83,274.07,276.83Z" style="fill:#263238"></path><path d="M278.33,273s-6.07,23.18-40.57,26.8c0,0,23.24-4.2,34-25.43Z" style="fill:#263238"></path><path d="M252.15,335.27s4.74-1.69,6.57,0c0,0-3.12,5-7.13,3.78s-4.86-6-4.86-6S248.9,332,252.15,335.27Z" style="fill:#bfbfbf"></path><path d="M262.66,331.82l-1.35,1.53a28,28,0,0,1-15.57-2.49l-.47-1.66a43.61,43.61,0,0,0,8.61,2.29A53.12,53.12,0,0,0,262.66,331.82Z" style="fill:#fff"></path><path d="M243.31,328.4s10.84,5.05,21.32,3.14" style="fill:none;stroke:#263238;stroke-linecap:round;stroke-linejoin:round"></path><path d="M277.41,267.24s-7.35,9.63-25.26,11.1-23.1,8.89-23.1,8.89" style="fill:none;stroke:#757575;stroke-linecap:round;stroke-linejoin:round"></path><path d="M237.08,268c-1.66.32-4,.91-4.74,2.6" style="fill:none;stroke:#757575;stroke-linecap:round;stroke-linejoin:round"></path><path d="M279.62,259.76c-10.8,8.07-24.75,9-38.92,7.86" style="fill:none;stroke:#757575;stroke-linecap:round;stroke-linejoin:round"></path><path d="M211.2,333.58a11.21,11.21,0,0,0-3.14,8.05" style="fill:none;stroke:#757575;stroke-linecap:round;stroke-linejoin:round"></path><path d="M224.11,288.57c-5,2.85-9.05,8.09-9.32,14-.45,10,6.7,19-.72,27.71" style="fill:none;stroke:#757575;stroke-linecap:round;stroke-linejoin:round"></path><path d="M222,321.09s5.54,5.86,1.94,11.82-5.46,12,1.92,16.4" style="fill:none;stroke:#757575;stroke-linecap:round;stroke-linejoin:round"></path><path d="M262.45,290.34a35.3,35.3,0,0,1-3.66,2" style="fill:none;stroke:#757575;stroke-linecap:round;stroke-linejoin:round"></path><path d="M275.39,275.58a31.74,31.74,0,0,1-9.81,12.55" style="fill:none;stroke:#757575;stroke-linecap:round;stroke-linejoin:round"></path><path d="M279.62,276.41s7.49,4.07,10.37,10.82-1.18,16.25.7,19.53" style="fill:none;stroke:#757575;stroke-linecap:round;stroke-linejoin:round"></path><path d="M291.27,342.25a11,11,0,0,0,3.35,1.4" style="fill:none;stroke:#757575;stroke-linecap:round;stroke-linejoin:round"></path><path d="M285.34,332.91a15.72,15.72,0,0,0,3,6.7" style="fill:none;stroke:#757575;stroke-linecap:round;stroke-linejoin:round"></path><path d="M282.38,338.28s-.7,7.62,4.16,12.66,3.44,8.18,3.44,8.18" style="fill:none;stroke:#757575;stroke-linecap:round;stroke-linejoin:round"></path><path d="M274.33,347s2.9,7.72-1.7,10.29" style="fill:none;stroke:#757575;stroke-linecap:round;stroke-linejoin:round"></path><path d="M285.34,274.29s10.94,2.21,12.54,7,0,10.3,0,10.3" style="fill:none;stroke:#757575;stroke-linecap:round;stroke-linejoin:round"></path><path d="M144.67,440.67c-9.28-5.15-7.48-23.67-1.34-46.8,3-11.36,13.42-40,13.21-41a27.38,27.38,0,0,0-2.3-5.54s3-3.06,4.26-3.61c5.41-2.31,16.09-5.22,21-3.19,1.53.63,3.75,4.2,3.44,5.66s-4.69,6.26-4.27,10.86-3.57,19.78-3.46,25.83c0,1.24.07,2.8.14,4.5,0,1.08,0,20-7.28,29.66" style="fill:#FFC100;stroke:#263238;stroke-linecap:round;stroke-linejoin:round"></path><path d="M174.84,297c.2,1.84,4.17,15,5.4,28.37a26.83,26.83,0,0,0,7-3.8c2.49-2.18,7.7-.44,7.49,1s-5,1.2-9.05,6.64-4.88,11.47-10.26,14.37-13.74,3.93-17,.06-6.88-24.4-5.61-26.54a15.89,15.89,0,0,1,4-4s1.37-4,3.45-4.31,7-.41,7-.41a5.74,5.74,0,0,1,4-1.1s-1.62-15.4-3-20.57S173.21,281.57,174.84,297Z" style="fill:#fff;stroke:#263238;stroke-linecap:round;stroke-linejoin:round"></path><path d="M171.33,307.28c4.25,1.92,6.13,10,6.13,10.58a74.53,74.53,0,0,1-3.06,8.44c-1.06,2.3-3.35,0-3.35,0s-.7,3-2.31,1.69c-2.05-1.69-2.05-7.16-2.05-7.16s-.25,4.55-1.44,6.77-3.59.74-3.24-5.83c0,0-4.9-1.2-5.07-2.4" style="fill:none;stroke:#263238;stroke-linecap:round;stroke-linejoin:round"></path><path d="M166.69,320.83c-1.2-3.08-5.81-5.91-5.81-5.91" style="fill:none;stroke:#263238;stroke-linecap:round;stroke-linejoin:round"></path><path d="M171.05,326.3s2.41-7,1.76-8.44-4.75-5.41-4.75-5.41" style="fill:none;stroke:#263238;stroke-linecap:round;stroke-linejoin:round"></path><path d="M180.24,325.4s-4.52,1-6.53,6.76" style="fill:none;stroke:#263238;stroke-linecap:round;stroke-linejoin:round"></path><path d="M156.54,352.83s7.3,6,15.15,1" style="fill:none;stroke:#263238;stroke-linecap:round;stroke-linejoin:round"></path><path d="M162.68,370.64a18.78,18.78,0,0,1-4.48,1.89" style="fill:none;stroke:#263238;stroke-linecap:round;stroke-linejoin:round"></path><path d="M180.24,350.94a58.72,58.72,0,0,1-14,17.25" style="fill:none;stroke:#263238;stroke-linecap:round;stroke-linejoin:round"></path><path d="M207.73,372.41s14.25,13.38,22.59,17" style="fill:none;stroke:#263238;stroke-linecap:round;stroke-linejoin:round"></path><path d="M193.52,386.89a23.19,23.19,0,0,1,1.26,5.51" style="fill:none;stroke:#263238;stroke-linecap:round;stroke-linejoin:round"></path><path d="M188.57,375.55c1.28,2.41,2.44,4.9,3.49,7.43" style="fill:none;stroke:#263238;stroke-linecap:round;stroke-linejoin:round"></path><path d="M246.73,393.87s23.32.32,38.29-9.9" style="fill:none;stroke:#263238;stroke-linecap:round;stroke-linejoin:round"></path><path d="M295.45,375.13a30.25,30.25,0,0,0-5.46,4.76" style="fill:none;stroke:#263238;stroke-linecap:round;stroke-linejoin:round"></path><path d="M307.16,392.22a37.28,37.28,0,0,1-8.11,6.36" style="fill:none;stroke:#263238;stroke-linecap:round;stroke-linejoin:round"></path><path d="M312.24,386a37.68,37.68,0,0,1-2.46,3.3" style="fill:none;stroke:#263238;stroke-linecap:round;stroke-linejoin:round"></path><path d="M189.21,421s5.69-7.37,5.57-16.21" style="fill:none;stroke:#263238;stroke-linecap:round;stroke-linejoin:round"></path><path d="M310.24,434s-1.22-14.83,9.18-25.67" style="fill:none;stroke:#263238;stroke-linecap:round;stroke-linejoin:round"></path><path d="M321.5,416.5c.5.5-8.88,8.68-11.11,12.34" style="fill:none;stroke:#263238;stroke-linecap:round;stroke-linejoin:round"></path><path d="M219,453.17s34.13,13.56,51.81,13.28" style="fill:none;stroke:#263238;stroke-linecap:round;stroke-linejoin:round"></path><rect x="250.83" y="420.42" width="6.43" height="8.56" rx="1.19" style="fill:#bfbfbf"></rect><path d="M256.07,429.62h-4a1.83,1.83,0,0,1-1.82-1.83v-6.18a1.83,1.83,0,0,1,1.82-1.83h4a1.82,1.82,0,0,1,1.82,1.83v6.18A1.82,1.82,0,0,1,256.07,429.62Zm-4-8.57a.56.56,0,0,0-.55.56v6.18a.55.55,0,0,0,.55.55h4a.54.54,0,0,0,.55-.55v-6.18a.55.55,0,0,0-.55-.56Z" style="fill:#263238"></path><path d="M266.9,368.68s18.12,3.73-12.85,50.79c0,0-36.08-45.7-18.44-52.34" style="fill:none;stroke:#263238;stroke-linecap:round;stroke-linejoin:round"></path><path d="M254.69,419c0,.69-.31,1.25-.69,1.25s-.69-.56-.69-1.25.31-1.25.69-1.25S254.69,418.31,254.69,419Z" style="fill:#263238"></path></g></svg>