<svg xmlns="http://www.w3.org/2000/svg" xmlns:xlink="http://www.w3.org/1999/xlink" viewBox="0 0 500 500"><defs><clipPath id="freepik--clip-path--inject-481"><rect x="294.28" y="316.9" width="65.66" height="16.28" rx="4.97" style="fill:#FFAF2F;stroke:#263238;stroke-linecap:round;stroke-linejoin:round"></rect></clipPath><clipPath id="freepik--clip-path-2--inject-481"><path d="M273,251.42s-43,11.85-49.9,11-9-3.9-10.62-3.9-6,2.13-8,1.95-4.24-.71-4.24.53,1.77,3.19,2.83,3.19,5.31-.18,5.31-.18-8.32,2.48-8.68,4.07a2.83,2.83,0,0,0,2.31,3.36,5,5,0,0,1,2.3,1.07,12.32,12.32,0,0,0,1.77,3.89c1.06,1.24,4.24,1.77,7.78,1.06s9.74-3.89,11.15-4.78,44.42-4.78,47.61-5.48,7.08-.71,8.32-2.84S273,251.42,273,251.42Z" style="fill:#fff;stroke:#263238;stroke-linecap:round;stroke-linejoin:round"></path></clipPath><clipPath id="freepik--clip-path-3--inject-481"><path d="M309.32,208.06s-3.89,10.61-8.84,17.69-7.08,14.52-3.9,22.48A16.29,16.29,0,0,0,306.67,258s-2.48,23.36-1.77,29.56,10.26,13.45,24.6,14,26.72-4.6,26.72-9.56-10.08-31.32-10.08-36.81.88-22.65-3.9-38S320.65,196.73,309.32,208.06Z" style="fill:#FFAF2F;stroke:#263238;stroke-linecap:round;stroke-linejoin:round"></path></clipPath><clipPath id="freepik--clip-path-4--inject-481"><path d="M308.26,210.71a38.16,38.16,0,0,0-7.43,6.19c-4.07,4.25-23.72,34-23.72,34s5.84,12.22,7.61,12.57,32.57-26,35.4-29.2,4.6-9,3.72-11.51" style="fill:#FFAF2F;stroke:#263238;stroke-linecap:round;stroke-linejoin:round"></path></clipPath><clipPath id="freepik--clip-path-5--inject-481"><path d="M279.24,174.61s-.36,5.13.53,6.72,3.36,3.19,3.36,5.31-1.77,5-1.24,6.55,3.37,1.77,3.37,1.77,5.3,6.55,6.9,8.85,2.3,1.41,4.78.71,7.78-5.31,10.79-8.85-2-14.34-8.49-21.59-16.29-7.08-18.41-5S279.24,174.61,279.24,174.61Z" style="fill:#fff;stroke:#263238;stroke-linecap:round;stroke-linejoin:round"></path></clipPath><clipPath id="freepik--clip-path-6--inject-481"><path d="M273.75,166.82l0,.71-.32,8.67,9.55,1.24,2.13-3.72v4.07a19.58,19.58,0,0,1,8.67,1.24c4.6,1.77,10.44,14.34,10.09,19.47s-4.78,6.19-4.25,14S312,228.05,321,223.1s10.45-11.33,14.16-10.09,9.38,8.85,12.92-1.95,1.95-17.69-6.37-26.54-14.86-8.14-15.93-15.22-3.36-16.64-11-22-18.58-5.66-28-1.59S273.75,162.22,273.75,166.82Z" style="fill:#263238;stroke:#263238;stroke-linecap:round;stroke-linejoin:round"></path></clipPath></defs><g id="freepik--Plants--inject-481"><path d="M408.9,258.53s0-4.18-5.86-10-9.61-9.2-9.61-9.2-2.93,9.61,2.5,15.47a103.36,103.36,0,0,0,13,11.29Z" style="fill:#FFAF2F"></path><path d="M400.4,284.65s0-4.18-5.85-10-9.62-9.2-9.62-9.2S382,275,387.44,280.89a102.85,102.85,0,0,0,13,11.29Z" style="fill:#FFAF2F"></path><path d="M408.53,265.66s.44-4.16,6.88-9.37S426,248.16,426,248.16s1.89,9.88-4.13,15.12a102.49,102.49,0,0,1-14.08,9.86Z" style="fill:#FFAF2F"></path><path d="M398.27,296.5s.87-4.09,7.82-8.59,11.34-7,11.34-7,.84,10-5.7,14.61a103.13,103.13,0,0,1-15,8.32Z" style="fill:#FFAF2F"></path><path d="M400.2,330.13s0-4.18,5.85-10,9.62-9.2,9.62-9.2,2.93,9.62-2.51,15.48a103.63,103.63,0,0,1-13,11.29Z" style="fill:#FFAF2F"></path><path d="M400.1,338.34s.59-4.14-4.37-10.77-8.21-10.47-8.21-10.47-4.27,9.1.28,15.67a102.73,102.73,0,0,0,11.23,13Z" style="fill:#FFAF2F"></path><path d="M394.33,362.66s0-4.18,5.85-10,9.62-9.2,9.62-9.2,2.93,9.62-2.51,15.47a102.68,102.68,0,0,1-13,11.29Z" style="fill:#FFAF2F"></path><path d="M398.23,384.72s-1.05-4.05,3.13-11.19,7-11.34,7-11.34,5.27,8.56,1.49,15.61a102.08,102.08,0,0,1-9.68,14.2Z" style="fill:#FFAF2F"></path><path d="M409.43,257.46a119.48,119.48,0,0,1-1.6,13c-2.32,11.95-8.1,19.67-10.42,30.47s4.33,24.71,2.55,38.59-7.18,21.58-5.63,30.84S404,404.68,404,404.68" style="fill:none;stroke:#263238;stroke-linecap:round;stroke-linejoin:round;stroke-width:0.5px"></path><line x1="408.47" y1="268.44" x2="414.78" y2="263.59" style="fill:none;stroke:#263238;stroke-linecap:round;stroke-linejoin:round;stroke-width:0.5px"></line><line x1="408.77" y1="262.86" x2="406.13" y2="258.16" style="fill:none;stroke:#263238;stroke-linecap:round;stroke-linejoin:round;stroke-width:0.5px"></line><path d="M397.76,300.42s5.28-4,10.71-7.92" style="fill:none;stroke:#263238;stroke-linecap:round;stroke-linejoin:round;stroke-width:0.5px"></path><path d="M400.4,292.18s-4.4-8.63-9.39-14.35" style="fill:none;stroke:#263238;stroke-linecap:round;stroke-linejoin:round;stroke-width:0.5px"></path><path d="M400.4,336.08A65.34,65.34,0,0,1,411.7,321" style="fill:none;stroke:#263238;stroke-linecap:round;stroke-linejoin:round;stroke-width:0.5px"></path><path d="M399.38,342a74.48,74.48,0,0,0-5.73-10.86c-3.08-4.55-3.52-5.14-3.52-5.14" style="fill:none;stroke:#263238;stroke-linecap:round;stroke-linejoin:round;stroke-width:0.5px"></path><path d="M394.33,370.35a69.56,69.56,0,0,1,4.75-9.62,60.78,60.78,0,0,1,6.17-8.07" style="fill:none;stroke:#263238;stroke-linecap:round;stroke-linejoin:round;stroke-width:0.5px"></path><path d="M400.14,392a17.91,17.91,0,0,1,1.58-9.26c2.2-4.26,4.7-9.83,5.73-12" style="fill:none;stroke:#263238;stroke-linecap:round;stroke-linejoin:round;stroke-width:0.5px"></path><path d="M370.56,314.4s-.45-2.62,2.58-6.93,5-6.81,5-6.81,2.88,5.71.11,10a64.71,64.71,0,0,1-6.9,8.49Z" style="fill:#FFAF2F"></path><path d="M378.72,329.86s-.45-2.63,2.59-6.93,5-6.82,5-6.82,2.88,5.72.1,10a65.49,65.49,0,0,1-6.9,8.49Z" style="fill:#FFAF2F"></path><path d="M371.56,318.83s-.72-2.56-5.33-5.13-7.49-3.95-7.49-3.95-.11,6.4,4.23,9a65.51,65.51,0,0,0,9.91,4.66Z" style="fill:#FFAF2F"></path><path d="M381.35,337.06s-1-2.47-5.84-4.54-7.87-3.15-7.87-3.15.56,6.38,5.16,8.54a65.06,65.06,0,0,0,10.34,3.59Z" style="fill:#FFAF2F"></path><path d="M383.79,358.35s-.45-2.62-4.76-5.66-7-4.72-7-4.72-.79,6.35,3.25,9.43a65.65,65.65,0,0,0,9.36,5.67Z" style="fill:#FFAF2F"></path><path d="M384.74,363.49s-.82-2.53,1.57-7.23,4-7.46,4-7.46,3.66,5.25,1.52,9.86a65.18,65.18,0,0,1-5.63,9.39Z" style="fill:#FFAF2F"></path><path d="M392.09,384.64s.3-2.64,4.43-5.92,6.75-5.12,6.75-5.12,1.15,6.3-2.71,9.6a65.05,65.05,0,0,1-9,6.2Z" style="fill:#FFAF2F"></path><path d="M391,378.12s-.45-2.62-4.76-5.66-7-4.73-7-4.73-.79,6.35,3.26,9.44a65.23,65.23,0,0,0,9.35,5.67Z" style="fill:#FFAF2F"></path><path d="M391,392.37s.22-2.65-3.18-6.68-5.6-6.35-5.6-6.35-2.37,5.94.76,10a65.93,65.93,0,0,0,7.61,7.86Z" style="fill:#FFAF2F"></path><path d="M370.11,313.79a75.18,75.18,0,0,0,2.42,8c2.75,7.24,7.21,11.45,9.84,18s0,16,2.58,24.48,6.85,12.75,6.89,18.73-2.32,22.57-2.32,22.57" style="fill:none;stroke:#263238;stroke-linecap:round;stroke-linejoin:round;stroke-width:0.5px"></path><line x1="371.9" y1="320.56" x2="367.42" y2="318.21" style="fill:none;stroke:#263238;stroke-linecap:round;stroke-linejoin:round;stroke-width:0.5px"></line><line x1="371.11" y1="317.1" x2="372.26" y2="313.87" style="fill:none;stroke:#263238;stroke-linecap:round;stroke-linejoin:round;stroke-width:0.5px"></line><path d="M382.09,339.46s-3.74-1.91-7.58-3.81" style="fill:none;stroke:#263238;stroke-linecap:round;stroke-linejoin:round;stroke-width:0.5px"></path><path d="M379.54,334.58a53.36,53.36,0,0,1,4.33-10" style="fill:none;stroke:#263238;stroke-linecap:round;stroke-linejoin:round;stroke-width:0.5px"></path><path d="M384.31,362.11a41.62,41.62,0,0,0-8.73-8.25" style="fill:none;stroke:#263238;stroke-linecap:round;stroke-linejoin:round;stroke-width:0.5px"></path><path d="M385.59,365.68a46.62,46.62,0,0,1,2.41-7.43c1.44-3.19,1.65-3.61,1.65-3.61" style="fill:none;stroke:#263238;stroke-linecap:round;stroke-linejoin:round;stroke-width:0.5px"></path><path d="M391.63,387.47a40.36,40.36,0,0,1,4.82-5,25.46,25.46,0,0,0,3.13-2.72" style="fill:none;stroke:#263238;stroke-linecap:round;stroke-linejoin:round;stroke-width:0.5px"></path><path d="M391.84,382.94a44.38,44.38,0,0,0-4-5.52,39.43,39.43,0,0,0-4.74-4.39" style="fill:none;stroke:#263238;stroke-linecap:round;stroke-linejoin:round;stroke-width:0.5px"></path><path d="M390.54,397.15a11.34,11.34,0,0,0-2-5.64c-1.84-2.43-4-5.66-4.89-6.92" style="fill:none;stroke:#263238;stroke-linecap:round;stroke-linejoin:round;stroke-width:0.5px"></path><path d="M377.56,402.62h38.3a0,0,0,0,1,0,0v28.7a3,3,0,0,1-3,3H380.6a3,3,0,0,1-3-3v-28.7A0,0,0,0,1,377.56,402.62Z" style="fill:#263238"></path><path d="M415.52,407.61h-38a3,3,0,0,1-3-3h0a3,3,0,0,1,3-3h38a3,3,0,0,1,3,3h0A3,3,0,0,1,415.52,407.61Z" style="fill:#263238"></path></g><g id="freepik--Clock--inject-481"><circle cx="342.67" cy="106.67" r="34" style="fill:#263238"></circle><circle cx="342.67" cy="106.67" r="29.49" transform="translate(-14.97 136.63) rotate(-22.08)" style="fill:#fff"></circle><polyline points="323.54 112.09 342.67 106.67 342.67 79.91" style="fill:none;stroke:#263238;stroke-miterlimit:10;stroke-width:2px"></polyline></g><g id="freepik--Graphics--inject-481"><polygon points="177.7 258.67 140.37 258.67 91.5 127.51 128.83 127.51 177.7 258.67" style="fill:#263238"></polygon><polygon points="177.7 258.67 140.37 258.67 91.5 127.51 128.83 127.51 177.7 258.67" style="fill:#fff;opacity:0.2"></polygon><path d="M118.86,159.55h-9.6a3.45,3.45,0,0,1-3-2.17l-3.71-9.95a1.45,1.45,0,0,1,1.36-2.16h9.6a3.47,3.47,0,0,1,3,2.16l3.71,9.95C120.66,158.58,120.06,159.55,118.86,159.55Z" style="fill:#263238"></path><polygon points="131.3 134.14 93.97 134.14 91.5 127.51 128.83 127.51 131.3 134.14" style="fill:#263238"></polygon><line x1="106.73" y1="135.23" x2="107.8" y2="138.11" style="fill:none;stroke:#263238;stroke-linecap:round;stroke-linejoin:round"></line><line x1="108.17" y1="135.23" x2="109.24" y2="138.11" style="fill:none;stroke:#263238;stroke-linecap:round;stroke-linejoin:round"></line><line x1="109.6" y1="135.23" x2="110.68" y2="138.11" style="fill:none;stroke:#263238;stroke-linecap:round;stroke-linejoin:round"></line><line x1="111.04" y1="135.23" x2="112.11" y2="138.11" style="fill:none;stroke:#263238;stroke-linecap:round;stroke-linejoin:round"></line><line x1="112.48" y1="135.23" x2="113.55" y2="138.11" style="fill:none;stroke:#263238;stroke-linecap:round;stroke-linejoin:round"></line><line x1="113.92" y1="135.23" x2="114.99" y2="138.11" style="fill:none;stroke:#263238;stroke-linecap:round;stroke-linejoin:round"></line><line x1="115.36" y1="135.23" x2="116.43" y2="138.11" style="fill:none;stroke:#263238;stroke-linecap:round;stroke-linejoin:round"></line><line x1="116.8" y1="135.23" x2="117.87" y2="138.11" style="fill:none;stroke:#263238;stroke-linecap:round;stroke-linejoin:round"></line><line x1="118.23" y1="135.23" x2="119.31" y2="138.11" style="fill:none;stroke:#263238;stroke-linecap:round;stroke-linejoin:round"></line><line x1="119.67" y1="135.23" x2="120.74" y2="138.11" style="fill:none;stroke:#263238;stroke-linecap:round;stroke-linejoin:round"></line><path d="M115.75,153.31l-9-5.73a.56.56,0,0,0-.6-.06.38.38,0,0,0-.09.51l4.14,8.93a.86.86,0,0,0,.56.46l.14,0a.33.33,0,0,0,.34-.23l1-2.94,3.6,0a.33.33,0,0,0,.36-.34A.79.79,0,0,0,115.75,153.31Z" style="fill:#fff"></path><polygon points="115.57 153.71 106.53 147.98 110.67 156.91 111.7 153.75 115.57 153.71" style="fill:#263238"></polygon><polygon points="132.46 153.71 123.42 147.98 127.57 156.91 128.59 153.75 132.46 153.71" style="fill:#fff"></polygon><polygon points="137.09 158.79 136.28 156.95 135.21 158.5 137.09 158.79" style="fill:#fff"></polygon><polygon points="158.93 217.41 158.12 215.57 157.05 217.12 158.93 217.41" style="fill:#fff"></polygon><polygon points="165.64 235.4 164.82 233.56 163.76 235.1 165.64 235.4" style="fill:#fff"></polygon><polygon points="172.51 253.84 171.69 252 170.63 253.55 172.51 253.84" style="fill:#fff"></polygon><polygon points="134.02 196.64 133.2 194.8 132.14 196.34 134.02 196.64" style="fill:#fff"></polygon><polygon points="141.76 217.41 140.94 215.57 139.88 217.12 141.76 217.41" style="fill:#fff"></polygon><polygon points="148.46 235.4 147.65 233.56 146.58 235.1 148.46 235.4" style="fill:#fff"></polygon><polygon points="155.34 253.84 154.52 252 153.46 253.55 155.34 253.84" style="fill:#fff"></polygon><polygon points="115.75 178.53 117.32 179.54 121.64 170.53 120.07 169.51 115.75 178.53" style="fill:#fff"></polygon><path d="M117.69,169.7c-2.29-1.78-2.45-2.14-1.89-4.16-1.18,1.62-1.53,1.65-4,.33,2.29,1.79,2.45,2.15,1.89,4.17C114.83,168.42,115.18,168.39,117.69,169.7Z" style="fill:#fff"></path><path d="M125.23,170.67c-1.41-1.1-1.51-1.32-1.17-2.57-.73,1-.94,1-2.49.21,1.41,1.1,1.51,1.32,1.16,2.57C123.46,169.88,123.68,169.86,125.23,170.67Z" style="fill:#fff"></path><path d="M124.8,174.91c-1-.79-1.08-.94-.83-1.83-.52.71-.68.72-1.78.14,1,.79,1.07.95.83,1.84C123.54,174.34,123.69,174.33,124.8,174.91Z" style="fill:#fff"></path><polygon points="147.46 214.88 148.43 215.57 152.75 206.55 151.78 205.86 147.46 214.88" style="fill:#fff"></polygon><polygon points="143.84 176.2 135.87 171.15 139.52 179.03 140.43 176.24 143.84 176.2" style="fill:#fff"></polygon><path d="M137.84,176.67c-2.92,0-5.94-1.73-6.73-3.85S132.06,169,135,169s5.94,1.73,6.73,3.84S140.77,176.67,137.84,176.67Zm-2.69-7.23c-2.67,0-4.27,1.52-3.58,3.38s3.43,3.38,6.1,3.38,4.28-1.51,3.58-3.38S137.82,169.44,135.15,169.44Z" style="fill:#fff"></path><path d="M134.33,175.9a2.09,2.09,0,0,1-1.79-1.31.88.88,0,0,1,.82-1.31,2.09,2.09,0,0,1,1.79,1.31A.88.88,0,0,1,134.33,175.9Zm-.8-2.15a.56.56,0,0,0-.53.84,1.34,1.34,0,0,0,1.16.85c.46,0,.7-.38.53-.85A1.36,1.36,0,0,0,133.53,173.75Z" style="fill:#fff"></path><path d="M134.46,177.27l-.32-.44a1.26,1.26,0,0,0,.93-1,1.82,1.82,0,0,0-.34-1.12l.38-.16a2.42,2.42,0,0,1,.45,1.48A1.54,1.54,0,0,1,134.46,177.27Z" style="fill:#fff"></path><polygon points="129.46 190.27 123.89 186.22 122.71 188.1 128.28 192.15 129.46 190.27" style="fill:#fff"></polygon><path d="M120.54,195.52l.91.66,2-3.24a.67.67,0,0,1-.18-.77c.15-.25.56-.25.9,0a.75.75,0,0,1,.34.9.57.57,0,0,1-.73.11l-2,3.24.85.62,5-1.41.31-3-5.49-4L120,190Z" style="fill:#fff"></path><line x1="115.28" y1="182.79" x2="147.41" y2="182.79" style="fill:none;stroke:#263238;stroke-linecap:round;stroke-linejoin:round"></line><polygon points="143.22 186.22 142.04 188.1 147.61 192.15 148.79 190.27 143.22 186.22" style="fill:#fff"></polygon><path d="M139.28,190l.59,5.51.91.66,2-3.24a.67.67,0,0,1-.18-.77c.15-.25.56-.25.9,0a.75.75,0,0,1,.34.9.57.57,0,0,1-.73.11l-2,3.24.85.62,5-1.41.31-3-5.49-4Z" style="fill:#fff"></path><path d="M137.9,191.63c.06-.39.11-.81.15-1.28a3.34,3.34,0,0,0-.79-2.51,5.08,5.08,0,0,0-2.44-1.51c-.15,0-.27,0-.25.18a.41.41,0,0,0,.3.32,4.44,4.44,0,0,1,2,1.23,2.78,2.78,0,0,1,.63,2.07c0,.46-.1.88-.15,1.26-.27,2-.43,3.2,2.89,5.19a.32.32,0,0,0,.18.06.18.18,0,0,0,.17-.1.35.35,0,0,0-.19-.37C137.53,194.44,137.64,193.62,137.9,191.63Z" style="fill:#fff"></path><path d="M123.68,205l.2.52a20.65,20.65,0,0,0,1,2.35l.93-.23a15.44,15.44,0,0,1-.69-1.6h4l3.32,8.92h-1.49l.39,1h4l-.39-1h-1.48L130.13,206H134l.69,1.88h1.05l-.89-2.4-.2-.52Z" style="fill:#fff"></path><path d="M144.56,229.72c.86,2.3-1,4.16-4.2,4.16s-6.44-1.86-7.29-4.16,1-4.15,4.2-4.15S143.71,227.43,144.56,229.72Z" style="fill:#fff;opacity:0.44"></path><path d="M144.56,229.72c.86,2.3-1,4.16-4.2,4.16s-6.44-1.86-7.29-4.16,1-4.15,4.2-4.15S143.71,227.43,144.56,229.72Z" style="fill:none;stroke:#fff;stroke-miterlimit:10"></path><path d="M156.39,229.84l3.77-6.85a.7.7,0,0,1,1-.14h0a1.13,1.13,0,0,1,.69,1.13l-2,7.57Z" style="fill:#fff"></path><path d="M155.77,230.42c1.48-.2,4.38,1.07,4.46,3a1.19,1.19,0,0,1-.67,1,8.49,8.49,0,0,1-4.22.72,1.18,1.18,0,0,0,.41-1.26,15.72,15.72,0,0,0-.69-1.62c-.27-.77-.13-1.8.71-1.86" style="fill:#fff"></path><path d="M147.92,245.45a5.33,5.33,0,0,0-1.36-1.87l-1.14,1.81a6,6,0,0,1,1.57,2.12,16.21,16.21,0,0,0,1.14,2.09l1.11-1.78A15.72,15.72,0,0,1,147.92,245.45Z" style="fill:#fff"></path><path d="M146.61,247.54a5.53,5.53,0,0,0-1.37-1.87l-1.14,1.82a6.09,6.09,0,0,1,1.58,2.12,15.88,15.88,0,0,0,1.13,2.09l1.12-1.78A14.3,14.3,0,0,1,146.61,247.54Z" style="fill:#fff"></path><path d="M148.31,245.42a15.88,15.88,0,0,0,1.13,2.09l1.64-2.62-3.67-2.68-.68,1.08A6.25,6.25,0,0,1,148.31,245.42Z" style="fill:#fff"></path><path d="M145.29,249.64a5.33,5.33,0,0,0-1.36-1.87l-1,1.52.17,3.45a.45.45,0,0,0,.53.39l2.92-1.15A15.48,15.48,0,0,1,145.29,249.64ZM144,252l-.09-1.84,1.67,1.22Z" style="fill:#fff"></path><path d="M159.7,247.08l-1.25,2,6.46,4.71,1.25-2,.39.29,3-4.71-7.25-5.28-2.95,4.71Zm4.78,5.57-4.89-3.57.89-1.43,4.9,3.57Z" style="fill:#fff"></path><polygon points="98.71 129.27 98.95 129.9 98.05 131 99.77 132.1 100 132.74 97.3 131 98.71 129.27" style="fill:#fff"></polygon><polygon points="96.45 129.27 96.69 129.9 95.79 131 97.51 132.1 97.75 132.74 95.04 131 96.45 129.27" style="fill:#fff"></polygon><polygon points="250 206.17 172.79 206.17 149.19 140.33 226.4 140.33 250 206.17" style="fill:#263238"></polygon><polygon points="244.52 202.58 175.69 202.58 154.67 143.93 223.5 143.93 244.52 202.58" style="fill:#FFAF2F"></polygon><polygon points="231.43 166.07 220.05 157.69 211.06 181.03 187.75 174.45 175.69 202.58 244.52 202.58 231.43 166.07" style="fill:#fff"></polygon><path d="M184,156.49c-1.6-4.46-6.51-8.08-11-8.08s-6.78,3.62-5.18,8.08,6.51,8.08,11,8.08S185.61,161,184,156.49Z" style="fill:#fff"></path><polygon points="258 194.84 180.79 194.84 157.19 129 234.4 129 258 194.84" style="fill:#263238"></polygon><polygon points="252.52 191.25 183.69 191.25 162.67 132.59 231.5 132.59 252.52 191.25" style="fill:#FFAF2F"></polygon><polygon points="239.43 154.74 228.05 146.36 219.06 169.7 195.75 163.12 183.69 191.25 252.52 191.25 239.43 154.74" style="fill:#fff"></polygon><path d="M192,145.16c-1.6-4.46-6.51-8.08-11-8.08s-6.78,3.62-5.18,8.08,6.51,8.08,11,8.08S193.61,149.62,192,145.16Z" style="fill:#fff"></path><path d="M258.35,118.67l1.85,4.5h-.53a8.59,8.59,0,0,0-1.05-1.7,4.91,4.91,0,0,0-1.61-1.21,5,5,0,0,0-2.06-.39h-2.71l5.37,14.67a5.56,5.56,0,0,0,1.19,2.21,2.91,2.91,0,0,0,1.87.6h.67l.19.52h-8.14l-.19-.52h.68c.81,0,1.29-.25,1.45-.74a4.34,4.34,0,0,0-.44-2.07l-5.37-14.67h-2.3a5.72,5.72,0,0,0-1.84.2,1.55,1.55,0,0,0-.88,1,3.59,3.59,0,0,0,.13,2.06h-.54l-1.42-4.5Z"></path><line x1="270.04" y1="127.72" x2="275.91" y2="127.72" style="fill:none;stroke:#263238;stroke-miterlimit:10;stroke-width:0.5px"></line><polygon points="275.72 143.28 246.16 143.28 235.21 113.34 264.77 113.34 275.72 143.28" style="fill:none;stroke:#263238;stroke-miterlimit:10;stroke-width:0.5px"></polygon><polygon points="241.95 128.82 239.73 128.82 238.92 126.61 241.14 126.61 241.95 128.82" style="fill:#fff;stroke:#263238;stroke-miterlimit:10;stroke-width:0.5px"></polygon><polygon points="271.55 128.82 269.33 128.82 268.52 126.61 270.74 126.61 271.55 128.82" style="fill:#fff;stroke:#263238;stroke-miterlimit:10;stroke-width:0.5px"></polygon><polygon points="236.75 114.61 234.54 114.61 233.73 112.4 235.94 112.4 236.75 114.61" style="fill:#fff;stroke:#263238;stroke-miterlimit:10;stroke-width:0.5px"></polygon><polygon points="266.35 114.61 264.14 114.61 263.33 112.4 265.54 112.4 266.35 114.61" style="fill:#fff;stroke:#263238;stroke-miterlimit:10;stroke-width:0.5px"></polygon><polygon points="251.56 114.61 249.35 114.61 248.54 112.4 250.75 112.4 251.56 114.61" style="fill:#fff;stroke:#263238;stroke-miterlimit:10;stroke-width:0.5px"></polygon><polygon points="247.58 144.21 245.36 144.21 244.55 142 246.77 142 247.58 144.21" style="fill:#fff;stroke:#263238;stroke-miterlimit:10;stroke-width:0.5px"></polygon><polygon points="277.18 144.21 274.96 144.21 274.15 142 276.37 142 277.18 144.21" style="fill:#fff;stroke:#263238;stroke-miterlimit:10;stroke-width:0.5px"></polygon><line x1="261.11" y1="143.81" x2="263.26" y2="149.69" style="fill:none;stroke:#263238;stroke-miterlimit:10;stroke-width:0.5px"></line><polygon points="262.39 144.21 260.17 144.21 259.36 142 261.58 142 262.39 144.21" style="fill:#fff;stroke:#263238;stroke-miterlimit:10;stroke-width:0.5px"></polygon><polygon points="264.8 150.8 262.58 150.8 261.77 148.58 263.99 148.58 264.8 150.8" style="fill:#263238"></polygon><line x1="244.39" y1="137.67" x2="269.22" y2="137.67" style="fill:none;stroke:#263238;stroke-miterlimit:10;stroke-width:0.5px"></line><path d="M277.08,127.72a1.85,1.85,0,0,0-1.59-1.17.79.79,0,0,0-.74,1.17,1.84,1.84,0,0,0,1.59,1.16A.78.78,0,0,0,277.08,127.72Z" style="fill:#263238"></path></g><g id="freepik--Table--inject-481"><polygon points="140.03 286.49 166.82 309.45 141.29 434.36 143.02 434.36 171.42 311.74 197.44 333.56 160.7 434.21 163 433.83 201.65 335.86 309.19 433.83 374.63 433.83 298.09 283.81 140.03 286.49" style="opacity:0.2"></polygon><polygon points="143.02 434.36 141.29 434.36 138.7 284.35 145.61 284.35 143.02 434.36" style="fill:#263238;stroke:#263238;stroke-linecap:round;stroke-linejoin:round"></polygon><polygon points="291.88 434.36 290.15 434.36 287.56 284.35 294.47 284.35 291.88 434.36" style="fill:#263238;stroke:#263238;stroke-linecap:round;stroke-linejoin:round"></polygon><rect x="136.06" y="282.03" width="166.36" height="3.89" style="fill:#fff;stroke:#263238;stroke-linecap:round;stroke-linejoin:round"></rect></g><g id="freepik--paper-bin--inject-481"><path d="M98.5,362.57l-3,6.38s3.7,4,5.38,4,2.35-1.68,4.37-2.36,5.37-7.05,5.37-7.05-2-3.36-4-3.7-5-1.34-6.72-1.68S98.5,362.57,98.5,362.57Z" style="fill:#fff;stroke:#263238;stroke-linecap:round;stroke-linejoin:round"></path><path d="M98.5,362.57l2,3.36v3s2,1,2.69,0,3.7-4.37,3.7-4.37l-1.35-3" style="fill:none;stroke:#263238;stroke-linecap:round;stroke-linejoin:round"></path><line x1="100.51" y1="368.95" x2="96.82" y2="368.28" style="fill:none;stroke:#263238;stroke-linecap:round;stroke-linejoin:round"></line><path d="M156.4,423l-6.79,2s-.59,5.44.52,6.7,2.82.66,4.65,1.73,8.85-.63,8.85-.63,1.2-3.73.12-5.46-2.32-4.68-3.18-6.16S156.4,423,156.4,423Z" style="fill:#fff;stroke:#263238;stroke-linecap:round;stroke-linejoin:round"></path><path d="M156.4,423l-1.19,3.74-2.27,2s.57,2.18,1.77,2,5.73-.11,5.73-.11l1.38-3" style="fill:none;stroke:#263238;stroke-linecap:round;stroke-linejoin:round"></path><line x1="152.94" y1="428.75" x2="151" y2="425.53" style="fill:none;stroke:#263238;stroke-linecap:round;stroke-linejoin:round"></line><path d="M87.74,361.22s-5.71,3.7-4.7,5.72,1.68,3.36,2.69,4,4,1.68,5,1,3.36-2.35,3.69-5,1.35-3,.34-4.37S87.74,361.22,87.74,361.22Z" style="fill:#fff;stroke:#263238;stroke-linecap:round;stroke-linejoin:round"></path><path d="M83,366.94l4,2.69,3.36-.34,1.34-3.7a2,2,0,0,0-2-2,4.45,4.45,0,0,0-3,1l.68,2" style="fill:none;stroke:#263238;stroke-linecap:round;stroke-linejoin:round"></path><path d="M112.61,356.52s-5,4.7-4.37,8.06,7.06,6.05,7.06,6.05l7.73-4.36-2.36-6-5-2.69Z" style="fill:#fff;stroke:#263238;stroke-linecap:round;stroke-linejoin:round"></path><polyline points="108.24 364.58 113.62 366.6 119.67 364.58 117.31 359.21" style="fill:none;stroke:#263238;stroke-linecap:round;stroke-linejoin:round"></polyline><polyline points="112.61 356.52 112.27 363.58 116.31 364.92" style="fill:none;stroke:#263238;stroke-linecap:round;stroke-linejoin:round"></polyline><path d="M127.73,419.69s-5,4.71-4.37,8.07,7.06,6.05,7.06,6.05l7.73-4.37-2.35-6.05-5.05-2.69Z" style="fill:#fff;stroke:#263238;stroke-linecap:round;stroke-linejoin:round"></path><polyline points="123.36 427.76 128.74 429.77 134.79 427.76 132.44 422.38" style="fill:none;stroke:#263238;stroke-linecap:round;stroke-linejoin:round"></polyline><polyline points="127.73 419.69 127.39 426.75 131.43 428.1" style="fill:none;stroke:#263238;stroke-linecap:round;stroke-linejoin:round"></polyline><path d="M94.13,351.48s-5,4.7-4.37,8.06,7.06,6,7.06,6l7.72-4.37-2.35-6-5-2.69Z" style="fill:#fff;stroke:#263238;stroke-linecap:round;stroke-linejoin:round"></path><polyline points="89.76 359.54 95.14 361.56 101.18 359.54 98.83 354.17" style="fill:none;stroke:#263238;stroke-linecap:round;stroke-linejoin:round"></polyline><polyline points="94.13 351.48 93.79 358.54 97.82 359.88" style="fill:none;stroke:#263238;stroke-linecap:round;stroke-linejoin:round"></polyline><polygon points="122.32 434.36 82.44 434.36 76.46 368.25 128.3 368.25 122.32 434.36" style="fill:#263238;stroke:#263238;stroke-linecap:round;stroke-linejoin:round"></polygon><path d="M95.81,423.39s-5.72,3.7-4.71,5.71,1.68,3.36,2.69,4,4,1.68,5,1,3.36-2.35,3.7-5,1.34-3,.33-4.37S95.81,423.39,95.81,423.39Z" style="fill:#fff;stroke:#263238;stroke-linecap:round;stroke-linejoin:round"></path><path d="M91.1,429.1l4,2.69,3.36-.33,1.34-3.7a2,2,0,0,0-2-2,4.41,4.41,0,0,0-3,1l.67,2" style="fill:none;stroke:#263238;stroke-linecap:round;stroke-linejoin:round"></path></g><g id="freepik--Character--inject-481"><path d="M201.54,236.32a2.24,2.24,0,1,1-2.21-1.89A2.07,2.07,0,0,1,201.54,236.32Z" style="fill:gray;stroke:#263238;stroke-linecap:round;stroke-linejoin:round"></path><path d="M203.67,242.08a2.24,2.24,0,1,1-2.21-1.89A2.07,2.07,0,0,1,203.67,242.08Z" style="fill:gray;stroke:#263238;stroke-linecap:round;stroke-linejoin:round"></path><path d="M205.79,247.84a2.24,2.24,0,1,1-2.21-1.89A2.07,2.07,0,0,1,205.79,247.84Z" style="fill:gray;stroke:#263238;stroke-linecap:round;stroke-linejoin:round"></path><path d="M207.92,253.6a2.24,2.24,0,1,1-2.22-1.89A2.08,2.08,0,0,1,207.92,253.6Z" style="fill:gray;stroke:#263238;stroke-linecap:round;stroke-linejoin:round"></path><polygon points="177.96 281.66 162.82 281.66 160.54 256.55 180.24 256.55 177.96 281.66" style="fill:#263238;stroke:#263238;stroke-linecap:round;stroke-linejoin:round"></polygon><polygon points="179.49 264.81 162.09 273.67 162.82 281.66 170.92 281.66 178.78 272.63 179.49 264.81" style="fill:#FFAF2F;stroke:#263238;stroke-linecap:round;stroke-linejoin:round"></polygon><rect x="158.79" y="253.55" width="23.2" height="5.46" style="fill:#FFAF2F;stroke:#263238;stroke-linecap:round;stroke-linejoin:round"></rect><path d="M222.78,282H195.53a3.46,3.46,0,1,1,0-6.91h27.25a3.46,3.46,0,1,1,0,6.91Z" style="fill:#263238;stroke:#263238;stroke-linecap:round;stroke-linejoin:round"></path><polygon points="295.26 282.03 211.37 282.03 191.36 227.57 275.25 227.57 295.26 282.03" style="fill:#263238;stroke:#263238;stroke-linecap:round;stroke-linejoin:round"></polygon><polygon points="289.94 276.37 218.3 276.37 201.22 229.87 272.85 229.87 289.94 276.37" style="fill:gray;stroke:#263238;stroke-linecap:round;stroke-linejoin:round"></polygon><path d="M304,301.48a56.85,56.85,0,0,1-6.58,8,104.25,104.25,0,0,0-19.59,23.86c-7.52,12.75-12.76,25.78-17.74,37.06s-14,32.1-18.51,38.44-7.56,9.73-7.56,9.73-7.45.17-16.27-.61-12.47-2.37-12.58-.07,6,8.61,10.34,9.71,10,2.78,11.32,4.09,3,2.81,5.22,1.85,8.83-10.21,16.22-16.58,16.21-12.68,24.19-27.53,8.4-23.34,14-28.92,11.5-14.33,18.64-18.94,28.45-13.15,35.26-22,3.26-19.68-3.29-23.55S309.14,290.75,304,301.48Z" style="fill:#263238;stroke:#263238;stroke-linecap:round;stroke-linejoin:round"></path><path d="M246.86,399.48a78.12,78.12,0,0,1-5.27,9.37c-4.56,6.33-7.56,9.73-7.56,9.73s-7.45.17-16.27-.61-12.47-2.37-12.58-.07,6,8.61,10.34,9.71,10,2.78,11.32,4.09,3,2.81,5.22,1.85,8.83-10.21,16.22-16.58c3.44-3,7.19-5.93,11-9.73A24,24,0,0,1,246.86,399.48Z" style="fill:#fff;stroke:#263238;stroke-linecap:round;stroke-linejoin:round"></path><path d="M232.06,433.55a13.9,13.9,0,0,0,3.15-2.9c-6-1.19-9.06-4.2-11.8-5a29.21,29.21,0,0,1-7.11-3.18l3-4.41-1.52-.13c-8.82-.78-12.47-2.37-12.58-.07s6,8.61,10.34,9.71,10,2.78,11.32,4.09S229.89,434.51,232.06,433.55Z" style="fill:#FFAF2F;stroke:#263238;stroke-linecap:round;stroke-linejoin:round"></path><path d="M242.43,329.64a69.18,69.18,0,0,0,5.13,14.51c3.54,7.08,11.33,14.51,17,18.76s23.89,20.53,32.92,33.45c1.13,1.62-3.19,7.08-8.5,11.86s-7.61,6.55-4.78,7.43,9.56.53,16.29-5.13,11.15-9.38,13.27-14c1.06-2.3-4.78-5.14-8.32-8.14s-16.64-22.83-20.71-32-14.33-22.3-21.94-26.9" style="fill:#263238;stroke:#263238;stroke-linecap:round;stroke-linejoin:round"></path><path d="M313.75,396.54c1.06-2.3-4.78-5.14-8.32-8.14-3-2.53-12.71-16.95-18.15-26.94l-12,10.64c7.49,6.93,16.64,16.24,22.24,24.26,1.13,1.62-3.19,7.08-8.5,11.86s-7.61,6.55-4.78,7.43,9.56.53,16.29-5.13S311.63,401.14,313.75,396.54Z" style="fill:#fff;stroke:#263238;stroke-linecap:round;stroke-linejoin:round"></path><path d="M310.11,391.84c-.95,1.42-2.19,3.35-3.62,5.76-3.36,5.66-12.56,12.92-13.8,11.68a12.19,12.19,0,0,1-1.86-2.8c-.6.58-1.22,1.17-1.86,1.74-5.31,4.78-7.61,6.55-4.78,7.43s9.56.53,16.29-5.13,11.15-9.38,13.27-14C314.39,395.14,312.49,393.55,310.11,391.84Z" style="fill:#FFAF2F;stroke:#263238;stroke-linecap:round;stroke-linejoin:round"></path><rect x="298" y="408.04" width="60.17" height="2.83" style="fill:#fff;stroke:#263238;stroke-linecap:round;stroke-linejoin:round"></rect><path d="M303.48,332.12,293,432.78a.81.81,0,0,0,.81.89h0a.81.81,0,0,0,.8-.69l15.65-100.86Z" style="fill:#fff;stroke:#263238;stroke-linecap:round;stroke-linejoin:round"></path><path d="M351.62,332.12l10.53,100.66a.8.8,0,0,1-.8.89h0a.8.8,0,0,1-.8-.69L344.9,332.12Z" style="fill:#fff;stroke:#263238;stroke-linecap:round;stroke-linejoin:round"></path><path d="M332.51,332.12,333,432.86a.82.82,0,0,1-.81.81h0a.8.8,0,0,1-.8-.77l-5.63-100.78Z" style="fill:#fff;stroke:#263238;stroke-linecap:round;stroke-linejoin:round"></path><rect x="294.28" y="316.9" width="65.66" height="16.28" rx="4.97" style="fill:#FFAF2F"></rect><g style="clip-path:url(#freepik--clip-path--inject-481)"><path d="M355,316.9H300.52l-1.62,3.4s50.28.88,50.28,3.78.87,6.69-9,6.69c-8,0-34.85.38-44.79.52a5,5,0,0,0,1.44,1.23l2.92.66H355a5,5,0,0,0,5-5v-6.34A5,5,0,0,0,355,316.9Z" style="opacity:0.2"></path></g><rect x="294.28" y="316.9" width="65.66" height="16.28" rx="4.97" style="fill:none;stroke:#263238;stroke-linecap:round;stroke-linejoin:round"></rect><path d="M243.84,336c-1.24-4.07-6.37-12.21,18.23-29.2,13-9,41.24-15.93,41.24-15.93l2.65-3s7.61,8,22.48,7.44,24.07-7.08,25.84-6.55,1.94,5.13,1.24,13.8-1.6,13.1-8.5,15.22-22.12,2.83-33.09,2.66a157.89,157.89,0,0,1-16.29-.89s-23.53,14.87-38.22,15.93" style="fill:#263238;stroke:#263238;stroke-linecap:round;stroke-linejoin:round"></path><path d="M298.35,238.5c-1.07.33-33.45,6.72-36.28,6.19s-10.26-6.9-12.92-6.73-8,1.07-8.49,2.48,1.24,6.2,1.24,6.2-1.77,2.65-.89,3.89,6-1.77,6-1.77,5.84,4.25,8.49,3.36,5.49-1.94,5.49-1.94,41.59,2.47,42.12,2.65,5.66,1.24,6.19-6.19S304.55,236.55,298.35,238.5Z" style="fill:#fff;stroke:#263238;stroke-linecap:round;stroke-linejoin:round"></path><line x1="241.9" y1="246.64" x2="249.15" y2="240.62" style="fill:none;stroke:#263238;stroke-linecap:round;stroke-linejoin:round"></line><polygon points="244.55 243.98 248.44 231.77 250.04 232.12 248.09 240.97 244.55 243.98" style="fill:#263238"></polygon><path d="M273,251.42s-43,11.85-49.9,11-9-3.9-10.62-3.9-6,2.13-8,1.95-4.24-.71-4.24.53,1.77,3.19,2.83,3.19,5.31-.18,5.31-.18-8.32,2.48-8.68,4.07a2.83,2.83,0,0,0,2.31,3.36,5,5,0,0,1,2.3,1.07,12.32,12.32,0,0,0,1.77,3.89c1.06,1.24,4.24,1.77,7.78,1.06s9.74-3.89,11.15-4.78,44.42-4.78,47.61-5.48,7.08-.71,8.32-2.84S273,251.42,273,251.42Z" style="fill:#fff"></path><g style="clip-path:url(#freepik--clip-path-2--inject-481)"><path d="M221,271c-7.39,0-5.75-7.39-8.21-6.15-2.15,1.07-10.54,2.14-12.92,4.85a3,3,0,0,0,2.17,1.76,5,5,0,0,1,2.3,1.07,12.32,12.32,0,0,0,1.77,3.89c1.06,1.24,4.24,1.77,7.78,1.06s9.74-3.89,11.15-4.78,44.42-4.78,47.61-5.48c2.57-.58,5.61-.69,7.33-1.83l1-1-4.57-4.46S228.42,271,221,271Z" style="fill:#FFAF2F"></path><path d="M221,271c-7.39,0-5.75-7.39-8.21-6.15-2.15,1.07-10.54,2.14-12.92,4.85a3,3,0,0,0,2.17,1.76,5,5,0,0,1,2.3,1.07,12.32,12.32,0,0,0,1.77,3.89c1.06,1.24,4.24,1.77,7.78,1.06s9.74-3.89,11.15-4.78,44.42-4.78,47.61-5.48c2.57-.58,5.61-.69,7.33-1.83l1-1-4.57-4.46S228.42,271,221,271Z" style="fill:#fff;opacity:0.5"></path></g><path d="M273,251.42s-43,11.85-49.9,11-9-3.9-10.62-3.9-6,2.13-8,1.95-4.24-.71-4.24.53,1.77,3.19,2.83,3.19,5.31-.18,5.31-.18-8.32,2.48-8.68,4.07a2.83,2.83,0,0,0,2.31,3.36,5,5,0,0,1,2.3,1.07,12.32,12.32,0,0,0,1.77,3.89c1.06,1.24,4.24,1.77,7.78,1.06s9.74-3.89,11.15-4.78,44.42-4.78,47.61-5.48,7.08-.71,8.32-2.84S273,251.42,273,251.42Z" style="fill:none;stroke:#263238;stroke-linecap:round;stroke-linejoin:round"></path><path d="M309.32,208.06s-3.89,10.61-8.84,17.69-7.08,14.52-3.9,22.48A16.29,16.29,0,0,0,306.67,258s-2.48,23.36-1.77,29.56,10.26,13.45,24.6,14,26.72-4.6,26.72-9.56-10.08-31.32-10.08-36.81.88-22.65-3.9-38S320.65,196.73,309.32,208.06Z" style="fill:#FFAF2F"></path><g style="clip-path:url(#freepik--clip-path-3--inject-481)"><path d="M342.24,217.08c-2.57-8.29-8.64-13.55-15.46-14.87-3.29.73-12.28,2.83-14.52,3.36a23.12,23.12,0,0,0-2.94,2.49s-3.89,10.61-8.84,17.69c-3.33,4.75-5.37,9.66-5.4,14.77,13.06,3.09,33,8.12,31,8.68-2.87.82-15.18-5.75-11.49-1.64s23.4,23,17.65,21.34-18.47-15.19-15.18-8.62,12.31,17.24,9.44,17.24-18.06-15.19-12.73-6.16,29.55,23.4,21.75,25.45c-4.5,1.18-14.05.87-19.59,1.8a38,38,0,0,0,13.55,2.89c14.33.53,26.72-4.6,26.72-9.56s-10.08-31.32-10.08-36.81S347,232.48,342.24,217.08Z" style="opacity:0.2"></path></g><path d="M309.32,208.06s-3.89,10.61-8.84,17.69-7.08,14.52-3.9,22.48A16.29,16.29,0,0,0,306.67,258s-2.48,23.36-1.77,29.56,10.26,13.45,24.6,14,26.72-4.6,26.72-9.56-10.08-31.32-10.08-36.81.88-22.65-3.9-38S320.65,196.73,309.32,208.06Z" style="fill:none;stroke:#263238;stroke-linecap:round;stroke-linejoin:round"></path><path d="M311.5,251s13,21,32,27" style="fill:none;stroke:#263238;stroke-linecap:round;stroke-linejoin:round"></path><path d="M310,254.5s5,16.5,18,24.5" style="fill:none;stroke:#263238;stroke-linecap:round;stroke-linejoin:round"></path><path d="M312.68,241.28s11.75-5.12,16.57-8.43" style="fill:none;stroke:#263238;stroke-linecap:round;stroke-linejoin:round"></path><path d="M307.86,242.49s4.22.9,15.06,0" style="fill:none;stroke:#263238;stroke-linecap:round;stroke-linejoin:round"></path><path d="M308.26,210.71a38.16,38.16,0,0,0-7.43,6.19c-4.07,4.25-23.72,34-23.72,34s5.84,12.22,7.61,12.57,32.57-26,35.4-29.2,4.6-9,3.72-11.51" style="fill:#FFAF2F"></path><g style="clip-path:url(#freepik--clip-path-4--inject-481)"><path d="M320.12,234.25c2.83-3.19,4.6-9,3.72-11.51l-7-5.4-2.24,2.31s-.15,9.06-8.21,13.95-11.49,4.93-12.72,11.08,2.87,7.8-2.05,8.62-8.21,1.23-8.21,4.52a43.58,43.58,0,0,0,.37,4.87,2.21,2.21,0,0,0,.93.76C286.49,263.8,317.29,237.43,320.12,234.25Z" style="opacity:0.2"></path></g><path d="M308.26,210.71a38.16,38.16,0,0,0-7.43,6.19c-4.07,4.25-23.72,34-23.72,34s5.84,12.22,7.61,12.57,32.57-26,35.4-29.2,4.6-9,3.72-11.51" style="fill:none;stroke:#263238;stroke-linecap:round;stroke-linejoin:round"></path><path d="M270.39,252.65s5.49,13.1,6.72,14.52,7.79.53,9.91-1.07,1.77-4.77,1.77-4.77-8.14-14.34-9-15-1.24.89-5,2.13S269.68,250.18,270.39,252.65Z" style="fill:#fff;stroke:#263238;stroke-linecap:round;stroke-linejoin:round"></path><path d="M279.24,174.61s-.36,5.13.53,6.72,3.36,3.19,3.36,5.31-1.77,5-1.24,6.55,3.37,1.77,3.37,1.77,5.3,6.55,6.9,8.85,2.3,1.41,4.78.71,7.78-5.31,10.79-8.85-2-14.34-8.49-21.59-16.29-7.08-18.41-5S279.24,174.61,279.24,174.61Z" style="fill:#fff"></path><g style="clip-path:url(#freepik--clip-path-5--inject-481)"><path d="M293.27,169.65c-.82,4-1.64,10.87.82,15.52,3.7,7,6.57,10.67,4.52,16.42-.37,1-.75,1.92-1.12,2.72,2.64-1.13,7.44-5.35,10.24-8.64,3-3.54-2-14.34-8.49-21.59A18.76,18.76,0,0,0,293.27,169.65Z" style="fill:#FFAF2F"></path><path d="M293.27,169.65c-.82,4-1.64,10.87.82,15.52,3.7,7,6.57,10.67,4.52,16.42-.37,1-.75,1.92-1.12,2.72,2.64-1.13,7.44-5.35,10.24-8.64,3-3.54-2-14.34-8.49-21.59A18.76,18.76,0,0,0,293.27,169.65Z" style="fill:#fff;opacity:0.5"></path><path d="M283.13,182.22s0-2.66,3.19-.89" style="fill:none;stroke:#263238;stroke-linecap:round;stroke-linejoin:round"></path><path d="M285.4,184.68l.42,2.45s1.94.67,3.37-1.86" style="fill:none;stroke:#263238;stroke-linecap:round;stroke-linejoin:round"></path></g><path d="M279.24,174.61s-.36,5.13.53,6.72,3.36,3.19,3.36,5.31-1.77,5-1.24,6.55,3.37,1.77,3.37,1.77,5.3,6.55,6.9,8.85,2.3,1.41,4.78.71,7.78-5.31,10.79-8.85-2-14.34-8.49-21.59-16.29-7.08-18.41-5S279.24,174.61,279.24,174.61Z" style="fill:none;stroke:#263238;stroke-linecap:round;stroke-linejoin:round"></path><path d="M273.75,166.82l0,.71-.32,8.67,9.55,1.24,2.13-3.72v4.07a19.58,19.58,0,0,1,8.67,1.24c4.6,1.77,10.44,14.34,10.09,19.47s-4.78,6.19-4.25,14S312,228.05,321,223.1s10.45-11.33,14.16-10.09,9.38,8.85,12.92-1.95,1.95-17.69-6.37-26.54-14.86-8.14-15.93-15.22-3.36-16.64-11-22-18.58-5.66-28-1.59S273.75,162.22,273.75,166.82Z" style="fill:#263238"></path><g style="clip-path:url(#freepik--clip-path-6--inject-481)"><path d="M279.07,170.88a.65.65,0,0,1-.19,0c-1-.23-1.16-2-1.26-6.3,0-1.12-.05-2.27-.12-3.19,0-.09,0-.17,0-.23-.85,1-2.65,5.25-4,9l-.94-.34c3.62-10.08,4.8-9.93,5.18-9.87.69.09.76,1,.79,1.34.07.94.1,2.11.12,3.23,0,1.78.11,4.7.48,5.31a5.27,5.27,0,0,0,1.12-1.73c1-2.08,2-3,2.92-3,1.18,0,1.8,1.62,2.24,2.77a7.49,7.49,0,0,0,.37.83c.44.12,2-1.47,2.83-2.33l.73-.74a1.84,1.84,0,0,1,1.42-.72c.56.09.83.61,1.12,1.15a4.56,4.56,0,0,0,1.13,1.53c.32.25.48.21.55.2.72-.18,1.59-2.12,2.6-4.36.23-.53.48-1.08.75-1.66s.78-1.55,1.52-1.48c.93.07,1.36,1.53,2,3.74a16.63,16.63,0,0,0,2,5c.23.28.54.6.83.57.78-.13,1.64-2.44,2.16-3.82a13,13,0,0,1,.86-2,.94.94,0,0,1,.85-.54c.74,0,1.25,1,1.94,2.36.52,1,1.23,2.41,1.82,2.64.12.05.16,0,.19,0,.39-.2.72-1.49,1-2.52a11.63,11.63,0,0,1,1.22-3.31,2,2,0,0,1,1.36-.93c1.31-.21,2.77.92,3.74,1.68-.05-.51-.16-1.21-.25-1.82-.5-3.33-.64-4.94.19-5.4.39-.21.85-.09,1.37.37a35.34,35.34,0,0,1,2.56,2.69c1.83,2.06,4.61,5.16,5.73,4.86.31-.08.48-.56.56-.94l1,.2c-.21,1-.64,1.54-1.28,1.71-1.61.42-3.8-1.87-6.74-5.16A33.6,33.6,0,0,0,319,157a1.22,1.22,0,0,0-.24-.18,17.44,17.44,0,0,0,.33,4.31c.36,2.35.43,3,0,3.27a.61.61,0,0,1-.67,0c-.17-.12-.39-.28-.63-.48-.79-.61-2.11-1.62-3-1.49a1,1,0,0,0-.69.49,11,11,0,0,0-1.08,3c-.39,1.48-.72,2.76-1.51,3.16a1.18,1.18,0,0,1-1,0c-.94-.37-1.65-1.77-2.34-3.11a10.09,10.09,0,0,0-1-1.77h0a12.45,12.45,0,0,0-.78,1.87c-.74,2-1.58,4.24-2.95,4.45a1.89,1.89,0,0,1-1.76-.94,17,17,0,0,1-2.17-5.31,10.26,10.26,0,0,0-1.14-3,5.14,5.14,0,0,0-.51.9c-.27.57-.52,1.13-.75,1.65-1.25,2.79-2.08,4.63-3.28,4.92a1.62,1.62,0,0,1-1.41-.39,5.43,5.43,0,0,1-1.38-1.84,2.65,2.65,0,0,0-.4-.63s-.16,0-.55.43l-.72.74c-1.66,1.7-2.72,2.72-3.63,2.65a1,1,0,0,1-.75-.46,5.75,5.75,0,0,1-.47-1c-.28-.74-.82-2.11-1.36-2.13-.16,0-.83.15-2,2.44C280.3,170.18,279.69,170.88,279.07,170.88Z" style="fill:#575757"></path><path d="M299,211.06s2.48-9.23,5-6.3,4.27,3.83,4.5,1.35,0-6.08,2.48-2.7,8.55,6.75,9,1.57,1.13-12.16,4.06-8.55,5.4,6.3,5.63,4.27,2.25-3.6,3.15-1.35,1.58,4.51,2.25-.67-2.48-10.81.9-9.46,5,5.85,5,3.38-4.06-5.41-.45-4.51,4.05,3.16,4.5,1.81-2-4.51,1.13-4.51" style="fill:none;stroke:#575757;stroke-miterlimit:10"></path></g><path d="M273.75,166.82l0,.71-.32,8.67,9.55,1.24,2.13-3.72v4.07a19.58,19.58,0,0,1,8.67,1.24c4.6,1.77,10.44,14.34,10.09,19.47s-4.78,6.19-4.25,14S312,228.05,321,223.1s10.45-11.33,14.16-10.09,9.38,8.85,12.92-1.95,1.95-17.69-6.37-26.54-14.86-8.14-15.93-15.22-3.36-16.64-11-22-18.58-5.66-28-1.59S273.75,162.22,273.75,166.82Z" style="fill:none;stroke:#263238;stroke-linecap:round;stroke-linejoin:round"></path></g><g id="freepik--Floor--inject-481"><line x1="67.23" y1="434.36" x2="433.17" y2="434.36" style="fill:none;stroke:#263238;stroke-miterlimit:10"></line></g></svg>