<svg xmlns="http://www.w3.org/2000/svg" viewBox="0 0 500 500"><g id="freepik--Shadow--inject-67"><ellipse cx="250" cy="450" rx="178.71" ry="17.44" style="fill:#ebebeb"></ellipse></g><g id="freepik--Floor--inject-67"><polygon points="36.47 423.3 89.85 423.06 143.23 422.97 250 422.8 356.77 422.97 410.15 423.06 463.53 423.3 410.15 423.55 356.77 423.64 250 423.8 143.23 423.63 89.85 423.55 36.47 423.3" style="fill:#263238"></polygon></g><g id="freepik--Device--inject-67"><path d="M334.52,52.69H165.46a17.26,17.26,0,0,0-17.1,17.42v348a17.27,17.27,0,0,0,17.1,17.42H334.52a17.29,17.29,0,0,0,17.12-17.42v-348A17.28,17.28,0,0,0,334.52,52.69Zm6.42,354.67c0,9.16-6.86,16.57-15.32,16.57H174.38c-8.48,0-15.34-7.41-15.34-16.57V83.3c0-18.66,6.86-19.57,15.34-19.57h30.3c1.76,0,3.2,2,3.2,4.48v1.07c0,5.81,3.18,5.83,7.08,5.83H285c3.94,0,7.1,0,7.1-5.83V68.21c0-2.48,1.42-4.48,3.21-4.48h30.29c8.46,0,15.32,2.48,15.32,19.57Z" style="fill:#263238"></path><path d="M340.94,83.3V407.36c0,9.16-6.86,16.57-15.32,16.57H174.38c-8.48,0-15.34-7.41-15.34-16.57V83.3c0-18.66,6.86-19.57,15.34-19.57h30.3c1.76,0,3.2,2,3.2,4.48v1.07c0,5.81,3.18,5.83,7.08,5.83H285c3.94,0,7.1,0,7.1-5.83V68.21c0-2.48,1.42-4.48,3.21-4.48h30.29C334.08,63.73,340.94,66.21,340.94,83.3Z" style="fill:#fff"></path><path d="M340.94,83.3v36.49H159V83.3c0-18.66,6.86-19.57,15.34-19.57h30.3c1.76,0,3.2,2,3.2,4.48v1.07c0,5.81,3.18,5.83,7.08,5.83H285c3.94,0,7.1,0,7.1-5.83V68.21c0-2.48,1.42-4.48,3.21-4.48h30.29C334.08,63.73,340.94,66.21,340.94,83.3Z" style="fill:#FF4D50"></path><g id="freepik--u5Zjqx--inject-67"><path d="M199.45,71l-.29.29c-.06,0-.11.11-.17.17a4,4,0,0,0-5.64,0l-.16-.17L192.9,71h0l0,0,.37-.32a4.06,4.06,0,0,1,.86-.55,4.18,4.18,0,0,1,1.13-.38c.19,0,.38,0,.57-.08s.48,0,.5,0l.38,0a4.51,4.51,0,0,1,1,.25,4.58,4.58,0,0,1,.71.33,5.35,5.35,0,0,1,.67.47l.31.28Z" style="fill:#fff"></path><path d="M194.27,72.39c-.15-.16-.3-.31-.46-.46a3.32,3.32,0,0,1,4.71,0l-.46.46a2.61,2.61,0,0,0-1.89-.78A2.66,2.66,0,0,0,194.27,72.39Z" style="fill:#fff"></path><path d="M197.6,72.85l-.46.46a1.38,1.38,0,0,0-1.94,0l-.46-.46A2,2,0,0,1,197.6,72.85Z" style="fill:#fff"></path><path d="M196.58,73.73a.41.41,0,0,1-.41.41.42.42,0,1,1,0-.83A.41.41,0,0,1,196.58,73.73Z" style="fill:#fff"></path></g><path d="M170.9,71.89a1.21,1.21,0,1,1,1.21,1.21A1.21,1.21,0,0,1,170.9,71.89Z" style="fill:#fff"></path><path d="M174.7,71.89a1.21,1.21,0,1,1,1.21,1.21A1.21,1.21,0,0,1,174.7,71.89Z" style="fill:#fff"></path><path d="M178.5,71.89a1.21,1.21,0,1,1,1.2,1.21A1.2,1.2,0,0,1,178.5,71.89Z" style="fill:#fff"></path><path d="M182.3,71.89a1.21,1.21,0,1,1,1.2,1.21A1.2,1.2,0,0,1,182.3,71.89Z" style="fill:#fff"></path><path d="M186.09,71.89a1.21,1.21,0,1,1,1.21,1.21A1.21,1.21,0,0,1,186.09,71.89Z" style="fill:#fff"></path><path d="M327.3,74.52h-9.82V70h9.82ZM318,74h8.82V70.48H318Z" style="fill:#fff"></path><rect x="318.3" y="70.75" width="6.33" height="3" style="fill:#fff"></rect><rect x="327.3" y="71.04" width="0.87" height="2.43" style="fill:#fff"></rect><polygon points="175.62 109.55 170.25 104.51 175.62 99.47 176.46 100.36 172.03 104.51 176.46 108.66 175.62 109.55" style="fill:#fff"></polygon><rect x="321.54" y="100.88" width="8.21" height="0.95" style="fill:#fff"></rect><rect x="321.54" y="104.03" width="8.21" height="0.95" style="fill:#fff"></rect><rect x="321.54" y="107.19" width="8.21" height="0.95" style="fill:#fff"></rect><circle cx="323.42" cy="101.36" r="1.42" style="fill:#fff"></circle><path d="M329,104.51a1.43,1.43,0,1,1-1.42-1.42A1.42,1.42,0,0,1,329,104.51Z" style="fill:#fff"></path><circle cx="324.73" cy="107.66" r="1.42" style="fill:#fff"></circle><path d="M198.87,105.92H197l-.37,1a.43.43,0,0,1-.4.27.32.32,0,0,1-.14,0,.43.43,0,0,1-.26-.55l1.7-4.51a.42.42,0,0,1,.4-.27.43.43,0,0,1,.41.27l1.69,4.51a.43.43,0,0,1-.25.55.33.33,0,0,1-.15,0,.41.41,0,0,1-.39-.27Zm-.32-.84-.62-1.65-.62,1.65Z" style="fill:#fff"></path><path d="M201.08,106.77v-4.52a.41.41,0,0,1,.42-.42h.9a2.68,2.68,0,0,1,0,5.36h-.9A.42.42,0,0,1,201.08,106.77Zm.85-.43h.47a1.83,1.83,0,0,0,0-3.66h-.47Z" style="fill:#fff"></path><path d="M208,107.11l0,0s0,0,0,0l0,0h0a.13.13,0,0,0,0-.07L206,102.46a.4.4,0,0,1,.23-.54.41.41,0,0,1,.54.22l1.5,3.55,1.49-3.55a.42.42,0,0,1,.78.32l-1.89,4.47,0,.07h0l0,0v0l-.05,0h0l-.07,0h0l-.06,0h-.19l-.06,0h0l-.07,0Z" style="fill:#fff"></path><path d="M213.68,105.92h-1.87l-.37,1a.43.43,0,0,1-.4.27.4.4,0,0,1-.15,0,.43.43,0,0,1-.25-.55l1.7-4.51a.42.42,0,0,1,.4-.27.43.43,0,0,1,.41.27l1.69,4.51a.43.43,0,0,1-.25.55.33.33,0,0,1-.15,0,.41.41,0,0,1-.39-.27Zm-.32-.84-.62-1.65-.62,1.65Z" style="fill:#fff"></path><path d="M216.73,106.77a.42.42,0,0,1-.84,0v-4.45h0a.42.42,0,0,1,.75-.26l2.48,3.42v-3.15a.41.41,0,0,1,.41-.42.42.42,0,0,1,.42.42v4.45a.42.42,0,0,1-.42.42.38.38,0,0,1-.31-.16s0,0,0,0l-2.45-3.4Z" style="fill:#fff"></path><path d="M221.55,104.43a2.82,2.82,0,0,1,2.81-2.76,2.84,2.84,0,0,1,1.77.6.46.46,0,0,1,.08.61.47.47,0,0,1-.62.09,1.87,1.87,0,0,0-1.23-.42,2,2,0,0,0-1.38.55,1.9,1.9,0,0,0-.56,1.33,1.87,1.87,0,0,0,.56,1.33,2,2,0,0,0,1.38.55,1.89,1.89,0,0,0,1.23-.42.47.47,0,0,1,.62.09.46.46,0,0,1-.08.61,2.84,2.84,0,0,1-1.77.6A2.81,2.81,0,0,1,221.55,104.43Z" style="fill:#fff"></path><path d="M227.69,106.77v-4.52a.41.41,0,0,1,.42-.42h2.5a.42.42,0,0,1,.42.42.43.43,0,0,1-.42.43h-2.07v1.4h1.78a.43.43,0,0,1,.42.42.42.42,0,0,1-.42.43h-1.78v1.41h2.07a.43.43,0,0,1,0,.85h-2.5A.42.42,0,0,1,227.69,106.77Z" style="fill:#fff"></path><path d="M232.23,106.77v-4.52a.41.41,0,0,1,.42-.42h.9a2.68,2.68,0,0,1,0,5.36h-.9A.42.42,0,0,1,232.23,106.77Zm.85-.43h.47a1.83,1.83,0,0,0,0-3.66h-.47Z" style="fill:#fff"></path><path d="M239.79,104.43a2.81,2.81,0,0,1,2.81-2.76,2.86,2.86,0,0,1,1.77.6.45.45,0,0,1,.07.61.45.45,0,0,1-.61.09,1.89,1.89,0,0,0-1.23-.42,2,2,0,0,0-1.38.55,1.86,1.86,0,0,0-.56,1.33,1.83,1.83,0,0,0,.56,1.33,2,2,0,0,0,1.38.55,1.89,1.89,0,0,0,1.23-.42.45.45,0,0,1,.61.09.45.45,0,0,1-.07.61,2.86,2.86,0,0,1-1.77.6A2.8,2.8,0,0,1,239.79,104.43Z" style="fill:#fff"></path><path d="M248.15,107.19a2.21,2.21,0,0,1-2.22-2.22v-2.72a.42.42,0,0,1,.42-.42.42.42,0,0,1,.43.42V105a1.37,1.37,0,1,0,2.73,0v-2.72a.42.42,0,0,1,.43-.42.41.41,0,0,1,.42.42V105A2.22,2.22,0,0,1,248.15,107.19Z" style="fill:#fff"></path><path d="M252,105.85a.41.41,0,0,1,.56,0,2.41,2.41,0,0,0,1.46.59,1.65,1.65,0,0,0,1-.28.69.69,0,0,0,.33-.55.52.52,0,0,0-.07-.25.83.83,0,0,0-.23-.23,3.33,3.33,0,0,0-1.05-.36h0a4.24,4.24,0,0,1-1-.3,1.66,1.66,0,0,1-.71-.6,1.18,1.18,0,0,1-.17-.62,1.42,1.42,0,0,1,.61-1.12,2.27,2.27,0,0,1,1.32-.41,2.93,2.93,0,0,1,1.67.62.39.39,0,0,1,.11.54.38.38,0,0,1-.54.11,2.24,2.24,0,0,0-1.24-.49,1.46,1.46,0,0,0-.85.26.64.64,0,0,0-.3.49.35.35,0,0,0,.06.21.81.81,0,0,0,.21.2,2.57,2.57,0,0,0,.95.34h0a3.92,3.92,0,0,1,1,.32,1.78,1.78,0,0,1,.77.63,1.23,1.23,0,0,1,.18.66,1.46,1.46,0,0,1-.65,1.18,2.4,2.4,0,0,1-1.42.44,3.26,3.26,0,0,1-2-.77A.41.41,0,0,1,252,105.85Z" style="fill:#fff"></path><path d="M260.42,102.68h-1.21v4.09a.43.43,0,0,1-.85,0v-4.09h-1.21a.43.43,0,0,1-.42-.43.42.42,0,0,1,.42-.42h3.27a.42.42,0,0,1,.42.42A.43.43,0,0,1,260.42,102.68Z" style="fill:#fff"></path><path d="M265.91,102.49a2.8,2.8,0,0,1,0,3.88,2.49,2.49,0,0,1-1.83.82,2.56,2.56,0,0,1-1.87-.82,2.86,2.86,0,0,1,0-3.88,2.56,2.56,0,0,1,1.87-.82A2.49,2.49,0,0,1,265.91,102.49Zm-.1,1.94a2,2,0,0,0-.52-1.34,1.62,1.62,0,0,0-1.21-.54,1.64,1.64,0,0,0-1.24.54,2,2,0,0,0-.52,1.34,1.92,1.92,0,0,0,.52,1.33,1.64,1.64,0,0,0,2.45,0A1.92,1.92,0,0,0,265.81,104.43Z" style="fill:#fff"></path><path d="M272.49,102.25v4.52a.43.43,0,0,1-.42.42.42.42,0,0,1-.43-.42v-3.23l-1.1,1.53a.41.41,0,0,1-.34.18h0a.41.41,0,0,1-.35-.18l-1.1-1.53v3.23a.42.42,0,0,1-.43.42.43.43,0,0,1-.42-.42v-4.52a.43.43,0,0,1,.42-.42h0a.44.44,0,0,1,.34.17l1.52,2.12,1.52-2.12a.44.44,0,0,1,.35-.17h0A.43.43,0,0,1,272.49,102.25Z" style="fill:#fff"></path><path d="M274.4,102.25a.41.41,0,0,1,.42-.42.42.42,0,0,1,.43.42v4.52a.43.43,0,0,1-.43.42.42.42,0,0,1-.42-.42Z" style="fill:#fff"></path><path d="M280.5,102.5l-2.82,3.84h2.47a.43.43,0,1,1,0,.85h-3.38s0,0,0,0h-.06l0,0h0l0,0h0s0,0,0,0l0,0s0,0,0,0,0,0,0,0,0,0,0,0l0,0a0,0,0,0,1,0,0,.43.43,0,0,0,0,0v0h0a.07.07,0,0,1,0-.05v0s0,0,0,0,0,0,0,0l0,0s0,0,0,0h0l2.81-3.84h-2.47a.43.43,0,0,1-.43-.43.42.42,0,0,1,.43-.42h3.44l0,0s0,0,0,0l0,0h0s0,0,0,0a0,0,0,0,1,0,0l0,0s0,0,0,0a.08.08,0,0,0,0,0l0,0v0s0,0,0,0a.09.09,0,0,1,0,0v.08s0,0,0,0,0,0,0,0a.08.08,0,0,1,0,0l0,0s0,0,0,0Z" style="fill:#fff"></path><path d="M284.52,105.92h-1.86l-.38,1a.43.43,0,0,1-.4.27.32.32,0,0,1-.14,0,.43.43,0,0,1-.26-.55l1.7-4.51a.44.44,0,0,1,.81,0l1.69,4.51a.43.43,0,0,1-.25.55.33.33,0,0,1-.15,0,.41.41,0,0,1-.39-.27Zm-.32-.84-.62-1.65-.62,1.65Z" style="fill:#fff"></path><path d="M289.24,102.68H288v4.09a.42.42,0,0,1-.42.42.42.42,0,0,1-.42-.42v-4.09H286a.42.42,0,0,1-.42-.43.41.41,0,0,1,.42-.42h3.27a.42.42,0,0,1,.42.42A.43.43,0,0,1,289.24,102.68Z" style="fill:#fff"></path><path d="M291,102.25a.43.43,0,0,1,.85,0v4.52a.43.43,0,0,1-.42.42.42.42,0,0,1-.43-.42Z" style="fill:#fff"></path><path d="M297.48,102.49a2.8,2.8,0,0,1,0,3.88,2.49,2.49,0,0,1-1.83.82,2.56,2.56,0,0,1-1.87-.82,2.86,2.86,0,0,1,0-3.88,2.56,2.56,0,0,1,1.87-.82A2.49,2.49,0,0,1,297.48,102.49Zm-.1,1.94a2,2,0,0,0-.52-1.34,1.62,1.62,0,0,0-1.21-.54,1.64,1.64,0,0,0-1.24.54,2,2,0,0,0-.52,1.34,1.92,1.92,0,0,0,.52,1.33,1.64,1.64,0,0,0,2.45,0A1.92,1.92,0,0,0,297.38,104.43Z" style="fill:#fff"></path><path d="M300.4,106.77a.42.42,0,0,1-.41.42.42.42,0,0,1-.42-.42v-4.45h0a.39.39,0,0,1,.17-.35.41.41,0,0,1,.58.09l2.47,3.42v-3.15a.42.42,0,0,1,.84,0v4.45a.42.42,0,0,1-.42.42.4.4,0,0,1-.32-.16l0,0-2.45-3.4Z" style="fill:#fff"></path><path d="M259.55,67.85H240.44a1.18,1.18,0,0,1-1.18-1.18h0a1.18,1.18,0,0,1,1.18-1.18h19.11a1.18,1.18,0,0,1,1.18,1.18h0A1.18,1.18,0,0,1,259.55,67.85Z" style="fill:#fff"></path><polygon points="173.85 200.16 192.89 199.98 211.93 199.92 250 199.79 288.08 199.91 307.12 199.98 326.15 200.16 307.12 200.35 288.08 200.41 250 200.54 211.93 200.41 192.89 200.35 173.85 200.16" style="fill:#ebebeb"></polygon><path d="M320.7,192.24H309.43a5.45,5.45,0,0,1-5.45-5.45h0a5.46,5.46,0,0,1,5.45-5.46H320.7a5.46,5.46,0,0,1,5.45,5.46h0A5.45,5.45,0,0,1,320.7,192.24Z" style="fill:#FF4D50"></path><path d="M325.08,186.79a4.37,4.37,0,1,1-4.37-4.37A4.37,4.37,0,0,1,325.08,186.79Z" style="fill:#fff"></path><path d="M180.37,187.77h-2.22l-.43,1.15a.17.17,0,0,1-.16.11h-.06a.19.19,0,0,1-.1-.23l1.69-4.51a.2.2,0,0,1,.17-.11.18.18,0,0,1,.16.11l1.7,4.51a.19.19,0,0,1-.1.23H181a.18.18,0,0,1-.16-.11Zm-2.09-.34h2l-1-2.61Z" style="fill:#263238"></path><path d="M182,185.78a.17.17,0,0,1,.17-.16.16.16,0,0,1,.16.16v1.86a1.05,1.05,0,1,0,2.1,0v-1.86a.17.17,0,0,1,.17-.16.17.17,0,0,1,.18.16v1.86a1.39,1.39,0,1,1-2.78,0Z" style="fill:#263238"></path><path d="M187.52,185.79a.18.18,0,0,1-.17.17h-.44v2.48a.27.27,0,0,0,.25.25.19.19,0,0,1,.18.18.18.18,0,0,1-.18.16.57.57,0,0,1-.59-.59V186h-.43c-.17,0-.17-.08-.17-.17s0-.17.17-.17h.43v-1.26a.17.17,0,0,1,.16-.17.18.18,0,0,1,.18.17v1.26h.44A.18.18,0,0,1,187.52,185.79Z" style="fill:#263238"></path><path d="M190.46,185.62a1.71,1.71,0,1,1-1.61,1.71A1.67,1.67,0,0,1,190.46,185.62Zm0,3.08a1.38,1.38,0,1,0-1.28-1.37A1.34,1.34,0,0,0,190.46,188.7Z" style="fill:#263238"></path><path d="M198.24,187a1.06,1.06,0,1,0-2.11,0v1.89h0a.2.2,0,0,1-.09.09.12.12,0,0,1-.08,0h-.05l0,0,0,0,0,0h0v0h0s0,0,0,0V187a1.05,1.05,0,1,0-2.1,0v1.85a.16.16,0,0,1-.08.14.07.07,0,0,1,0,0h-.07a.17.17,0,0,1-.14-.12v-3.12a.16.16,0,0,1,.16-.16.16.16,0,0,1,.17.16v.33a1.37,1.37,0,0,1,1.05-.49,1.39,1.39,0,0,1,1.22.72,1.39,1.39,0,0,1,2.61.67v1.85a.16.16,0,0,1-.17.16.16.16,0,0,1-.16-.16Z" style="fill:#263238"></path><path d="M202.85,185.79v3.08a.17.17,0,0,1-.34,0v-.51a1.6,1.6,0,0,1-1.28.67,1.71,1.71,0,0,1,0-3.41,1.6,1.6,0,0,1,1.28.67v-.5a.17.17,0,1,1,.34,0Zm-.34,1.54a1.28,1.28,0,1,0-1.28,1.37A1.33,1.33,0,0,0,202.51,187.33Z" style="fill:#263238"></path><path d="M205.49,185.79a.18.18,0,0,1-.17.17h-.44v2.48a.27.27,0,0,0,.25.25.19.19,0,0,1,.18.18.18.18,0,0,1-.18.16.57.57,0,0,1-.59-.59V186h-.43c-.17,0-.17-.08-.17-.17s0-.17.17-.17h.43v-1.26a.17.17,0,0,1,.16-.17.18.18,0,0,1,.18.17v1.26h.44A.18.18,0,0,1,205.49,185.79Z" style="fill:#263238"></path><path d="M207.09,184.68a.18.18,0,0,1,.17-.17.17.17,0,0,1,.17.17v.16a.17.17,0,0,1-.17.18.18.18,0,0,1-.17-.18Zm0,1.11a.17.17,0,0,1,.17-.17.16.16,0,0,1,.17.17v3.08a.16.16,0,0,1-.17.16.17.17,0,0,1-.17-.16Z" style="fill:#263238"></path><path d="M208.8,187.32a1.75,1.75,0,0,1,2.84-1.32.16.16,0,0,1,0,.23.18.18,0,0,1-.23,0,1.39,1.39,0,1,0-.88,2.44,1.44,1.44,0,0,0,.88-.3.17.17,0,0,1,.23,0,.16.16,0,0,1,0,.24,1.74,1.74,0,0,1-1.07.36A1.72,1.72,0,0,1,208.8,187.32Z" style="fill:#263238"></path><path d="M217.85,187.77h-2.22l-.43,1.15a.17.17,0,0,1-.16.11H215a.18.18,0,0,1-.1-.23l1.69-4.51a.2.2,0,0,1,.17-.11.18.18,0,0,1,.16.11l1.69,4.51a.17.17,0,0,1-.09.23h-.06a.18.18,0,0,1-.16-.11Zm-2.09-.34h2l-1-2.61Z" style="fill:#263238"></path><path d="M219.61,187.38v-1.59a.17.17,0,0,1,.16-.17.18.18,0,0,1,.18.17v.5a1.6,1.6,0,0,1,1.29-.67,1.7,1.7,0,0,1,0,3.39,1.57,1.57,0,0,1-1.29-.67v1.95a.18.18,0,0,1-.18.17.17.17,0,0,1-.16-.17Zm.34-.07a1.3,1.3,0,1,0,2.6,0,1.3,1.3,0,1,0-2.6-.05Z" style="fill:#263238"></path><path d="M224.2,187.38v-1.59a.18.18,0,0,1,.17-.17.18.18,0,0,1,.18.17v.5a1.6,1.6,0,0,1,1.29-.67,1.7,1.7,0,0,1,0,3.39,1.57,1.57,0,0,1-1.29-.67v1.95a.18.18,0,0,1-.18.17.18.18,0,0,1-.17-.17Zm.35-.07a1.3,1.3,0,1,0,2.6,0,1.3,1.3,0,1,0-2.6-.05Z" style="fill:#263238"></path><path d="M228.49,187.34a1.65,1.65,0,1,1,3.3-.13h0v0a.16.16,0,0,1-.17.15h-2.8a1.34,1.34,0,0,0,1.32,1.31,1.28,1.28,0,0,0,1.1-.62.18.18,0,0,1,.23-.06.19.19,0,0,1,.05.24,1.61,1.61,0,0,1-1.38.77A1.67,1.67,0,0,1,228.49,187.34Zm.35-.28h2.58a1.31,1.31,0,0,0-1.28-1.1A1.34,1.34,0,0,0,228.84,187.06Z" style="fill:#263238"></path><path d="M235.83,185.79v3.08a.16.16,0,0,1-.16.16.17.17,0,0,1-.17-.16v-.51a1.6,1.6,0,0,1-1.28.67,1.71,1.71,0,0,1,0-3.41,1.6,1.6,0,0,1,1.28.67v-.5a.17.17,0,0,1,.17-.17A.16.16,0,0,1,235.83,185.79Zm-.33,1.54a1.28,1.28,0,1,0-1.28,1.37A1.33,1.33,0,0,0,235.5,187.33Z" style="fill:#263238"></path><path d="M237.29,185.8a.16.16,0,0,1,.17-.17.17.17,0,0,1,.16.17v.75a.22.22,0,0,1,0-.08,1.64,1.64,0,0,1,1.36-.84.17.17,0,0,1,.17.17.18.18,0,0,1-.17.17,1.26,1.26,0,0,0-1,.55,3.31,3.31,0,0,0-.41.79.18.18,0,0,0,0,.06v1.5a.16.16,0,0,1-.16.16.16.16,0,0,1-.17-.16Z" style="fill:#263238"></path><path d="M243,185.79v3.08a.17.17,0,0,1-.34,0v-.51a1.58,1.58,0,0,1-1.28.67,1.71,1.71,0,0,1,0-3.41,1.58,1.58,0,0,1,1.28.67v-.5a.17.17,0,0,1,.34,0Zm-.34,1.54a1.28,1.28,0,1,0-1.28,1.37A1.33,1.33,0,0,0,242.69,187.33Z" style="fill:#263238"></path><path d="M246.85,187a1.05,1.05,0,0,0-1.06-1.05,1.06,1.06,0,0,0-1,1.05v1.87a.2.2,0,0,1,0,.08.14.14,0,0,1-.12.06h0a.22.22,0,0,1-.12-.09v0h0V185.8a.17.17,0,0,1,.17-.17.17.17,0,0,1,.16.17v.32a1.38,1.38,0,0,1,2.44.9v1.85a.17.17,0,0,1-.17.16.16.16,0,0,1-.16-.16Z" style="fill:#263238"></path><path d="M248.44,187.32a1.72,1.72,0,0,1,1.75-1.7,1.76,1.76,0,0,1,1.09.38.17.17,0,0,1,0,.23.18.18,0,0,1-.23,0,1.39,1.39,0,1,0-.88,2.44,1.44,1.44,0,0,0,.88-.3.17.17,0,0,1,.23,0,.17.17,0,0,1,0,.24,1.77,1.77,0,0,1-1.07.36A1.72,1.72,0,0,1,248.44,187.32Z" style="fill:#263238"></path><path d="M252.31,187.34a1.65,1.65,0,1,1,3.3-.13h0v0a.16.16,0,0,1-.17.15h-2.8A1.34,1.34,0,0,0,254,188.7a1.28,1.28,0,0,0,1.1-.62.18.18,0,0,1,.23-.06.19.19,0,0,1,.05.24A1.61,1.61,0,0,1,254,189,1.67,1.67,0,0,1,252.31,187.34Zm.35-.28h2.59a1.31,1.31,0,0,0-2.59,0Z" style="fill:#263238"></path><polygon points="173.85 226.7 192.89 226.52 211.93 226.46 250 226.33 288.08 226.45 307.12 226.52 326.15 226.7 307.12 226.89 288.08 226.95 250 227.08 211.93 226.95 192.89 226.89 173.85 226.7" style="fill:#ebebeb"></polygon><path d="M309.43,208.24H320.7a5.46,5.46,0,0,1,5.45,5.46h0a5.45,5.45,0,0,1-5.45,5.45H309.43A5.45,5.45,0,0,1,304,213.7h0A5.46,5.46,0,0,1,309.43,208.24Z" style="fill:#ebebeb"></path><path d="M305.05,213.7a4.37,4.37,0,1,1,4.37,4.37A4.37,4.37,0,0,1,305.05,213.7Z" style="fill:#fff"></path><path d="M179,211.41H177.5a.17.17,0,0,1-.17-.17.18.18,0,0,1,.17-.17h3.27a.17.17,0,0,1,.16.17.16.16,0,0,1-.16.17H179.3v4.37a.17.17,0,0,1-.17.16.16.16,0,0,1-.16-.16Z" style="fill:#263238"></path><path d="M181.45,212.71a.16.16,0,0,1,.17-.17.17.17,0,0,1,.16.17v.75a.22.22,0,0,1,.05-.08,1.64,1.64,0,0,1,1.36-.84.17.17,0,0,1,.17.17.17.17,0,0,1-.17.16,1.21,1.21,0,0,0-1,.56,3.45,3.45,0,0,0-.42.79.18.18,0,0,0,0,.06v1.5a.16.16,0,0,1-.16.16.16.16,0,0,1-.17-.16Z" style="fill:#263238"></path><path d="M184.43,212.69a.17.17,0,0,1,.34,0v1.86a1,1,0,0,0,1,1.06,1.06,1.06,0,0,0,1.06-1.06v-1.86a.17.17,0,0,1,.34,0v1.86a1.39,1.39,0,1,1-2.78,0Z" style="fill:#263238"></path><path d="M188.53,214.25a1.65,1.65,0,1,1,3.3-.13h0v0a.16.16,0,0,1-.17.15h-2.8a1.34,1.34,0,0,0,1.33,1.31,1.29,1.29,0,0,0,1.1-.62.16.16,0,0,1,.22-.06.19.19,0,0,1,.05.24,1.61,1.61,0,0,1-1.37.77A1.68,1.68,0,0,1,188.53,214.25Zm.35-.28h2.59a1.32,1.32,0,0,0-1.28-1.1A1.35,1.35,0,0,0,188.88,214Z" style="fill:#263238"></path><path d="M196.44,211.41H195a.16.16,0,0,1-.16-.17.17.17,0,0,1,.16-.17h3.27a.18.18,0,0,1,.17.17.17.17,0,0,1-.17.17h-1.47v4.37a.16.16,0,0,1-.16.16.17.17,0,0,1-.17-.16Z" style="fill:#263238"></path><path d="M200.13,212.53a1.71,1.71,0,1,1-1.61,1.71A1.67,1.67,0,0,1,200.13,212.53Zm0,3.08a1.38,1.38,0,0,0,0-2.75,1.38,1.38,0,0,0,0,2.75Z" style="fill:#263238"></path><path d="M205.47,213.93a1.06,1.06,0,0,0-1.05-1.06,1.07,1.07,0,0,0-1.06,1.06v1.87a.2.2,0,0,1,0,.08.13.13,0,0,1-.12.06h0a.22.22,0,0,1-.12-.09v0a0,0,0,0,0,0,0v-3.11a.17.17,0,0,1,.17-.17.17.17,0,0,1,.16.17V213a1.38,1.38,0,0,1,2.44.9v1.85a.17.17,0,0,1-.17.16.16.16,0,0,1-.16-.16Z" style="fill:#263238"></path><path d="M207.06,214.25a1.65,1.65,0,1,1,3.3-.13h0v0a.16.16,0,0,1-.17.15h-2.8a1.34,1.34,0,0,0,1.32,1.31,1.28,1.28,0,0,0,1.1-.62.18.18,0,0,1,.23-.06.19.19,0,0,1,.05.24,1.61,1.61,0,0,1-1.38.77A1.67,1.67,0,0,1,207.06,214.25Zm.35-.28H210a1.31,1.31,0,0,0-1.28-1.1A1.34,1.34,0,0,0,207.41,214Z" style="fill:#263238"></path><polygon points="173.85 279.59 192.89 279.41 211.93 279.35 250 279.22 288.08 279.35 307.12 279.41 326.15 279.59 307.12 279.78 288.08 279.84 250 279.97 211.93 279.84 192.89 279.78 173.85 279.59" style="fill:#ebebeb"></polygon><path d="M320.7,260.87H309.43a5.45,5.45,0,0,0-5.45,5.45h0a5.45,5.45,0,0,0,5.45,5.45H320.7a5.45,5.45,0,0,0,5.45-5.45h0A5.45,5.45,0,0,0,320.7,260.87Z" style="fill:#FF4D50"></path><path d="M325.08,266.32a4.37,4.37,0,1,0-4.37,4.37A4.37,4.37,0,0,0,325.08,266.32Z" style="fill:#fff"></path><path d="M177.89,268.57h0a.17.17,0,0,1-.15-.17v-4.54a.16.16,0,0,1,.16-.16h.91a2.44,2.44,0,1,1,0,4.87Zm.89-.34a2.1,2.1,0,1,0,0-4.19h-.73v4.19Z" style="fill:#263238"></path><path d="M184.87,265.33v3.07a.18.18,0,0,1-.17.17.17.17,0,0,1-.16-.17v-.51a1.59,1.59,0,0,1-1.28.68,1.71,1.71,0,0,1,0-3.41,1.58,1.58,0,0,1,1.28.67v-.5a.16.16,0,0,1,.16-.17A.17.17,0,0,1,184.87,265.33Zm-.33,1.53a1.28,1.28,0,1,0-1.28,1.37A1.33,1.33,0,0,0,184.54,266.86Z" style="fill:#263238"></path><path d="M186.32,265.33a.16.16,0,0,1,.18-.16.16.16,0,0,1,.16.16v.75l0-.08a1.65,1.65,0,0,1,1.37-.83.16.16,0,0,1,.17.16.18.18,0,0,1-.17.17,1.23,1.23,0,0,0-1,.56,3,3,0,0,0-.41.79.13.13,0,0,0,0,0v1.5a.17.17,0,0,1-.16.17.17.17,0,0,1-.18-.17Z" style="fill:#263238"></path><path d="M189.38,263.86a.17.17,0,0,1,.34,0v3.28l2-2a.15.15,0,0,1,.23,0,.16.16,0,0,1,0,.24l-1.31,1.31,1.32,1.61a.17.17,0,0,1,0,.24.19.19,0,0,1-.11,0,.16.16,0,0,1-.14-.07l-1.3-1.57-.7.69v.78a.17.17,0,0,1-.34,0Z" style="fill:#263238"></path><path d="M199.2,264.39l-1.56,2.17a.16.16,0,0,1-.13.07h0a.15.15,0,0,1-.14-.07l-1.56-2.16v4a.18.18,0,0,1-.17.17.17.17,0,0,1-.17-.17v-4.51a.15.15,0,0,1,.07-.13h0a.17.17,0,0,1,.24,0l1.73,2.4,1.72-2.4a.17.17,0,0,1,.24,0s0,0,0,.05a.32.32,0,0,1,0,.09v4.51a.18.18,0,0,1-.17.17.17.17,0,0,1-.17-.17Z" style="fill:#263238"></path><path d="M202.7,265.16a1.71,1.71,0,1,1-1.61,1.7A1.67,1.67,0,0,1,202.7,265.16Zm0,3.07a1.37,1.37,0,1,0-1.28-1.37A1.33,1.33,0,0,0,202.7,268.23Z" style="fill:#263238"></path><path d="M208.33,267.91a1.63,1.63,0,0,1-1.31.66,1.71,1.71,0,0,1,0-3.41,1.61,1.61,0,0,1,1.31.67v-2a.17.17,0,0,1,.34,0v4.54a.17.17,0,1,1-.34,0Zm0-1v-.12a1.36,1.36,0,1,0,0,.12Z" style="fill:#263238"></path><path d="M209.85,266.87a1.65,1.65,0,0,1,3.3-.13h0v0a.17.17,0,0,1-.17.16h-2.8a1.34,1.34,0,0,0,1.33,1.3,1.27,1.27,0,0,0,1.1-.62.16.16,0,0,1,.22-.05.17.17,0,0,1,0,.23,1.62,1.62,0,0,1-1.37.78A1.68,1.68,0,0,1,209.85,266.87Zm.35-.27h2.59a1.33,1.33,0,0,0-1.28-1.11A1.34,1.34,0,0,0,210.2,266.6Z" style="fill:#263238"></path><polygon points="173.85 306.11 192.89 305.92 211.93 305.86 250 305.73 288.08 305.86 307.12 305.92 326.15 306.11 307.12 306.29 288.08 306.36 250 306.48 211.93 306.35 192.89 306.29 173.85 306.11" style="fill:#ebebeb"></polygon><path d="M320.7,287.41H309.43a5.45,5.45,0,0,0-5.45,5.45h0a5.45,5.45,0,0,0,5.45,5.45H320.7a5.45,5.45,0,0,0,5.45-5.45h0A5.45,5.45,0,0,0,320.7,287.41Z" style="fill:#FF4D50"></path><path d="M325.08,292.86a4.37,4.37,0,1,0-4.37,4.37A4.37,4.37,0,0,0,325.08,292.86Z" style="fill:#fff"></path><path d="M180.55,292.84h-2.5v2.1a.18.18,0,0,1-.18.17.17.17,0,0,1-.16-.17V290.4a.17.17,0,0,1,.16-.17.18.18,0,0,1,.18.17v2.1h2.5v-2.1a.18.18,0,0,1,.17-.17.17.17,0,0,1,.17.17v4.54a.17.17,0,0,1-.17.17.18.18,0,0,1-.17-.17Z" style="fill:#263238"></path><path d="M182.58,290.75a.17.17,0,0,1,.16-.17.18.18,0,0,1,.18.17v.16a.18.18,0,0,1-.18.18.17.17,0,0,1-.16-.18Zm0,1.11a.16.16,0,0,1,.16-.16.17.17,0,0,1,.18.16v3.08a.18.18,0,0,1-.18.17.17.17,0,0,1-.16-.17Z" style="fill:#263238"></path><path d="M187.5,294.83a1.59,1.59,0,0,1-1.6,1.6,1.71,1.71,0,0,1-.71-.16.16.16,0,0,1-.07-.22.16.16,0,0,1,.22-.08,1.16,1.16,0,0,0,.56.13,1.26,1.26,0,0,0,1.27-1.27v-.41a1.54,1.54,0,0,1-1.27.66,1.69,1.69,0,0,1,0-3.38,1.57,1.57,0,0,1,1.27.66v-.5a.17.17,0,0,1,.17-.16.16.16,0,0,1,.16.16Zm-.33-1.44a1.27,1.27,0,1,0-1.27,1.37A1.31,1.31,0,0,0,187.17,293.39Z" style="fill:#263238"></path><path d="M191.63,293a1.09,1.09,0,0,0-2.17,0V295l0,0a.15.15,0,0,1-.1.09h-.05a.2.2,0,0,1-.13-.06s0,0,0-.06a.09.09,0,0,1,0-.05V290.4a.18.18,0,0,1,.17-.17.17.17,0,0,1,.17.17v1.8a1.4,1.4,0,0,1,1.08-.5A1.36,1.36,0,0,1,192,293v1.9a.18.18,0,0,1-.18.17.17.17,0,0,1-.16-.17Z" style="fill:#263238"></path><path d="M197.87,290.17a2.59,2.59,0,0,1,1.58.53.16.16,0,0,1,0,.24.15.15,0,0,1-.23,0,2.25,2.25,0,0,0-1.37-.47,2.13,2.13,0,1,0,0,4.25,2,2,0,0,0,1.35-.47.18.18,0,0,1,.25,0,.18.18,0,0,1,0,.25,2.66,2.66,0,0,1-1.58.53,2.47,2.47,0,1,1,0-4.94Z" style="fill:#263238"></path><path d="M202.24,291.7a1.71,1.71,0,1,1-1.62,1.7A1.67,1.67,0,0,1,202.24,291.7Zm0,3.07A1.38,1.38,0,1,0,201,293.4,1.34,1.34,0,0,0,202.24,294.77Z" style="fill:#263238"></path><path d="M207.57,293.09a1,1,0,0,0-1-1,1.07,1.07,0,0,0-1.06,1V295s0,0,0,.07a.17.17,0,0,1-.13.07h0a.18.18,0,0,1-.11-.1s0,0,0,0h0v-3.11a.17.17,0,0,1,.17-.17.17.17,0,0,1,.16.17v.33a1.38,1.38,0,0,1,2.44.89v1.85a.16.16,0,0,1-.16.17.17.17,0,0,1-.17-.17Z" style="fill:#263238"></path><path d="M210.59,291.86a.17.17,0,0,1-.16.17H210v2.48a.27.27,0,0,0,.25.25.18.18,0,0,1,0,.35.59.59,0,0,1-.6-.6V292h-.42c-.17,0-.17-.08-.17-.17s0-.16.17-.16h.42v-1.27a.18.18,0,0,1,.17-.17.19.19,0,0,1,.18.17v1.27h.44A.17.17,0,0,1,210.59,291.86Z" style="fill:#263238"></path><path d="M211.7,291.87a.17.17,0,0,1,.18-.17.17.17,0,0,1,.16.17v.75a.18.18,0,0,1,.05-.08,1.61,1.61,0,0,1,1.36-.84.17.17,0,0,1,.17.17.18.18,0,0,1-.17.17,1.24,1.24,0,0,0-1,.55,3.15,3.15,0,0,0-.41.8.11.11,0,0,0,0,.05v1.5a.17.17,0,0,1-.16.17.17.17,0,0,1-.18-.17Z" style="fill:#263238"></path><path d="M217.45,291.86v3.08a.17.17,0,0,1-.34,0v-.51a1.6,1.6,0,0,1-1.28.68,1.71,1.71,0,0,1,0-3.41,1.59,1.59,0,0,1,1.28.66v-.5a.17.17,0,0,1,.34,0Zm-.34,1.54a1.28,1.28,0,1,0-1.28,1.37A1.33,1.33,0,0,0,217.11,293.4Z" style="fill:#263238"></path><path d="M218.66,294.4a.16.16,0,0,1,.24,0,1.82,1.82,0,0,0,1,.39,1,1,0,0,0,.65-.21.5.5,0,0,0,.26-.41.53.53,0,0,0-.25-.42,1.61,1.61,0,0,0-.72-.25h0a2.25,2.25,0,0,1-.77-.26.74.74,0,0,1-.37-.62.85.85,0,0,1,.37-.66,1.47,1.47,0,0,1,.84-.23,1.84,1.84,0,0,1,1,.36.18.18,0,0,1,.05.24.16.16,0,0,1-.23.05,1.46,1.46,0,0,0-.83-.34,1.09,1.09,0,0,0-.65.19.53.53,0,0,0-.22.39.42.42,0,0,0,.2.34,1.62,1.62,0,0,0,.7.24h0a2.46,2.46,0,0,1,.83.28.81.81,0,0,1,0,1.38,1.36,1.36,0,0,1-.85.28,2.11,2.11,0,0,1-1.26-.49A.16.16,0,0,1,218.66,294.4Z" style="fill:#263238"></path><path d="M223.62,291.86a.18.18,0,0,1-.17.17H223v2.48a.27.27,0,0,0,.25.25.18.18,0,1,1,0,.35.58.58,0,0,1-.59-.6V292h-.43c-.17,0-.17-.08-.17-.17s0-.16.17-.16h.43v-1.27a.18.18,0,0,1,.16-.17.19.19,0,0,1,.18.17v1.27h.44A.17.17,0,0,1,223.62,291.86Z" style="fill:#263238"></path><path d="M227.38,290.4a.17.17,0,0,1,.16-.17h2.52a.18.18,0,0,1,.17.17.18.18,0,0,1-.17.18h-2.34v1.92h2.05a.18.18,0,0,1,.17.18.17.17,0,0,1-.17.16h-2.05v2.1a.17.17,0,0,1-.17.17.18.18,0,0,1-.17-.17Z" style="fill:#263238"></path><path d="M232.46,291.7a1.71,1.71,0,1,1-1.61,1.7A1.67,1.67,0,0,1,232.46,291.7Zm0,3.07a1.38,1.38,0,0,0,0-2.75,1.38,1.38,0,0,0,0,2.75Z" style="fill:#263238"></path><path d="M237.8,293.09a1,1,0,0,0-1.05-1,1.06,1.06,0,0,0-1.06,1V295s0,0,0,.07a.17.17,0,0,1-.13.07h0a.18.18,0,0,1-.11-.1s0,0,0,0h0v-3.11a.17.17,0,0,1,.17-.17.17.17,0,0,1,.16.17v.33a1.38,1.38,0,0,1,2.44.89v1.85a.16.16,0,0,1-.16.17.17.17,0,0,1-.17-.17Z" style="fill:#263238"></path><path d="M240.82,291.86a.17.17,0,0,1-.16.17h-.44v2.48a.26.26,0,0,0,.25.25.18.18,0,0,1,0,.35.59.59,0,0,1-.6-.6V292h-.43c-.16,0-.16-.08-.16-.17s0-.16.16-.16h.43v-1.27a.18.18,0,0,1,.17-.17.19.19,0,0,1,.18.17v1.27h.44A.17.17,0,0,1,240.82,291.86Z" style="fill:#263238"></path><path d="M242.18,294.4a.16.16,0,0,1,.24,0,1.82,1.82,0,0,0,1,.39,1,1,0,0,0,.65-.21.5.5,0,0,0,.26-.41.53.53,0,0,0-.25-.42,1.61,1.61,0,0,0-.72-.25h0a2.23,2.23,0,0,1-.78-.26.74.74,0,0,1-.37-.62.85.85,0,0,1,.37-.66,1.47,1.47,0,0,1,.84-.23,1.84,1.84,0,0,1,1,.36.18.18,0,0,1,0,.24.16.16,0,0,1-.23.05,1.46,1.46,0,0,0-.83-.34,1.09,1.09,0,0,0-.65.19.53.53,0,0,0-.22.39.42.42,0,0,0,.2.34,1.62,1.62,0,0,0,.7.24h0a2.46,2.46,0,0,1,.83.28.81.81,0,0,1,0,1.38,1.36,1.36,0,0,1-.85.28,2.11,2.11,0,0,1-1.26-.49A.16.16,0,0,1,242.18,294.4Z" style="fill:#263238"></path><polygon points="173.84 253.06 192.88 252.88 211.92 252.81 250 252.68 288.07 252.81 307.11 252.87 326.15 253.06 307.11 253.24 288.07 253.31 250 253.43 211.92 253.31 192.88 253.24 173.84 253.06" style="fill:#ebebeb"></polygon><path d="M320.7,245.24H309.43a5.45,5.45,0,0,1-5.45-5.45h0a5.45,5.45,0,0,1,5.45-5.45H320.7a5.45,5.45,0,0,1,5.45,5.45h0A5.45,5.45,0,0,1,320.7,245.24Z" style="fill:#FF4D50"></path><circle cx="320.71" cy="239.79" r="4.37" style="fill:#fff"></circle><path d="M178.06,237.88v4a.18.18,0,0,1-.17.17.17.17,0,0,1-.16-.17V237.4a.16.16,0,0,1,.06-.18.17.17,0,0,1,.24,0l2.95,4.09v-4a.16.16,0,0,1,.16-.16.17.17,0,0,1,.18.16v4.49a.18.18,0,0,1-.31.11l0,0Z" style="fill:#263238"></path><path d="M183,237.68a.17.17,0,0,1,.16-.17.18.18,0,0,1,.18.17v.16a.18.18,0,0,1-.18.18.17.17,0,0,1-.16-.18Zm0,1.11a.16.16,0,0,1,.16-.16.17.17,0,0,1,.18.16v3.08a.18.18,0,0,1-.18.17.17.17,0,0,1-.16-.17Z" style="fill:#263238"></path><path d="M187.93,241.77a1.6,1.6,0,0,1-1.6,1.6,1.89,1.89,0,0,1-.71-.16.19.19,0,0,1-.07-.23.15.15,0,0,1,.22-.07,1.28,1.28,0,0,0,.56.12,1.26,1.26,0,0,0,1.27-1.26v-.42a1.54,1.54,0,0,1-1.27.67,1.7,1.7,0,0,1,0-3.39,1.54,1.54,0,0,1,1.27.67v-.51a.17.17,0,0,1,.17-.16.16.16,0,0,1,.16.16Zm-.33-1.45a1.27,1.27,0,1,0-1.27,1.37A1.31,1.31,0,0,0,187.6,240.32Z" style="fill:#263238"></path><path d="M192.06,240a1.09,1.09,0,0,0-2.17,0v1.95l0,0a.14.14,0,0,1-.1.08h-.05a.16.16,0,0,1-.13-.06.13.13,0,0,1,0,0,.13.13,0,0,1,0-.06v-4.54a.17.17,0,0,1,.17-.16.16.16,0,0,1,.17.16v1.8a1.4,1.4,0,0,1,1.08-.5A1.36,1.36,0,0,1,192.4,240v1.9a.17.17,0,1,1-.34,0Z" style="fill:#263238"></path><path d="M195,238.79a.17.17,0,0,1-.16.17h-.44v2.49a.27.27,0,0,0,.25.25.17.17,0,0,1,0,.34.58.58,0,0,1-.6-.59V239h-.42c-.17,0-.17-.08-.17-.17s0-.16.17-.16h.42v-1.27a.17.17,0,0,1,.17-.16.18.18,0,0,1,.18.16v1.27h.44A.17.17,0,0,1,195,238.79Z" style="fill:#263238"></path><path d="M198.55,241.13a.15.15,0,0,1,.22,0,2.66,2.66,0,0,0,1.6.62,1.79,1.79,0,0,0,1.07-.32.9.9,0,0,0,.42-.72.77.77,0,0,0-.4-.67,3.21,3.21,0,0,0-1.13-.4h0a3.06,3.06,0,0,1-1.15-.41,1,1,0,0,1-.5-.85,1.13,1.13,0,0,1,.51-.91,2,2,0,0,1,1.17-.35,2.68,2.68,0,0,1,1.51.56.16.16,0,0,1,0,.22.15.15,0,0,1-.21,0,2.42,2.42,0,0,0-1.34-.52,1.69,1.69,0,0,0-1,.3.84.84,0,0,0-.38.66.71.71,0,0,0,.36.6,2.85,2.85,0,0,0,1,.36h0a3.37,3.37,0,0,1,1.24.45,1.09,1.09,0,0,1,.53.92,1.2,1.2,0,0,1-.55,1,2.11,2.11,0,0,1-1.25.38,3,3,0,0,1-1.8-.7A.16.16,0,0,1,198.55,241.13Z" style="fill:#263238"></path><path d="M205.85,240a1,1,0,0,0-1.09-1,1,1,0,0,0-1.07,1v1.92s0,0,0,0l0,0a.14.14,0,0,1-.1.08h-.05a.16.16,0,0,1-.13-.06l0,0a.13.13,0,0,1,0-.06v-4.54a.17.17,0,0,1,.17-.16.17.17,0,0,1,.18.16v1.8a1.42,1.42,0,0,1,2.5.84v1.9a.17.17,0,0,1-.34,0Z" style="fill:#263238"></path><path d="M207.62,237.68a.18.18,0,0,1,.17-.17.17.17,0,0,1,.17.17v.16a.17.17,0,0,1-.17.18.18.18,0,0,1-.17-.18Zm0,1.11a.17.17,0,0,1,.17-.16.16.16,0,0,1,.17.16v3.08a.17.17,0,0,1-.17.17.18.18,0,0,1-.17-.17Z" style="fill:#263238"></path><path d="M211.07,237.35a.16.16,0,0,1-.16.16c-.24,0-.37.05-.43.14a.8.8,0,0,0-.14.56v.36h.48a.18.18,0,0,1,.17.17.17.17,0,0,1-.17.17h-.48v3a.17.17,0,0,1-.17.16.16.16,0,0,1-.17-.16v-3h-.46a.16.16,0,0,1-.16-.17.17.17,0,0,1,.16-.17H210v-.36a1.16,1.16,0,0,1,.22-.79.91.91,0,0,1,.69-.25A.17.17,0,0,1,211.07,237.35Z" style="fill:#263238"></path><path d="M213.28,238.79a.17.17,0,0,1-.16.17h-.44v2.49a.27.27,0,0,0,.25.25.17.17,0,1,1,0,.34.58.58,0,0,1-.6-.59V239h-.43c-.16,0-.16-.08-.16-.17s0-.16.16-.16h.43v-1.27a.17.17,0,0,1,.17-.16.18.18,0,0,1,.18.16v1.27h.44A.17.17,0,0,1,213.28,238.79Z" style="fill:#263238"></path><rect x="269.13" y="378.55" width="54.19" height="14.77" style="fill:#FF4D50"></rect><path d="M286.66,387.21a.42.42,0,0,1,.59-.06,2.68,2.68,0,0,0,1.55.63,1.76,1.76,0,0,0,1-.3.76.76,0,0,0,.35-.59.47.47,0,0,0-.08-.26.78.78,0,0,0-.24-.24,3.16,3.16,0,0,0-1.11-.38h0a4.61,4.61,0,0,1-1.05-.32,1.84,1.84,0,0,1-.75-.63,1.28,1.28,0,0,1-.19-.67,1.49,1.49,0,0,1,.65-1.18,2.38,2.38,0,0,1,1.41-.43,3.18,3.18,0,0,1,1.77.65.42.42,0,0,1,.11.57.41.41,0,0,1-.58.12,2.38,2.38,0,0,0-1.3-.52,1.56,1.56,0,0,0-.91.28.64.64,0,0,0-.31.51.41.41,0,0,0,.05.23,1.12,1.12,0,0,0,.22.21,2.71,2.71,0,0,0,1,.36h0a4.54,4.54,0,0,1,1.13.34,1.91,1.91,0,0,1,.81.67,1.35,1.35,0,0,1,.19.69,1.56,1.56,0,0,1-.7,1.26,2.52,2.52,0,0,1-1.5.46,3.5,3.5,0,0,1-2.08-.81A.42.42,0,0,1,286.66,387.21Z" style="fill:#fff"></path><path d="M295,387.28h-2l-.4,1.06a.46.46,0,0,1-.42.28l-.16,0a.47.47,0,0,1-.27-.59l1.8-4.78a.47.47,0,0,1,.86,0l1.79,4.78a.46.46,0,0,1-.27.59l-.15,0a.42.42,0,0,1-.41-.28Zm-.33-.89-.66-1.75-.66,1.75Z" style="fill:#fff"></path><path d="M298.49,388.54s0,0-.05,0,0,0,0,0l0,0h0a.25.25,0,0,0,0-.07l-2-4.74a.42.42,0,0,1,.24-.57.44.44,0,0,1,.58.23l1.58,3.76,1.59-3.76a.43.43,0,0,1,.58-.23.44.44,0,0,1,.25.57l-2,4.74,0,.07h0l0,0,0,0s0,0-.05,0h0l-.07,0s0,0,0,0h-.33a0,0,0,0,0,0,0h0l-.08,0Z" style="fill:#fff"></path><path d="M302.49,388.17v-4.79a.43.43,0,0,1,.44-.44h2.66a.45.45,0,0,1,.45.44.46.46,0,0,1-.45.46h-2.2v1.49h1.89a.45.45,0,1,1,0,.9h-1.89v1.49h2.2a.45.45,0,1,1,0,.9h-2.66A.44.44,0,0,1,302.49,388.17Z" style="fill:#fff"></path><rect x="176.68" y="378.55" width="54.19" height="14.77" style="fill:#ebebeb"></rect><path d="M186.82,388.17v-4.79a.43.43,0,0,1,.44-.44h1a2.84,2.84,0,0,1,0,5.68h-1A.44.44,0,0,1,186.82,388.17Zm.9-.45h.5a1.94,1.94,0,0,0,0-3.88h-.5Z" style="fill:#fff"></path><path d="M192.3,383.38a.44.44,0,0,1,.45-.44.45.45,0,0,1,.45.44v4.79a.45.45,0,0,1-.45.45.44.44,0,0,1-.45-.45Z" style="fill:#fff"></path><path d="M194.54,387.21a.44.44,0,0,1,.6-.06,2.62,2.62,0,0,0,1.55.63,1.73,1.73,0,0,0,1-.3.73.73,0,0,0,.35-.59.46.46,0,0,0-.07-.26.72.72,0,0,0-.25-.24,3.09,3.09,0,0,0-1.11-.38h0a4.46,4.46,0,0,1-1.05-.32,1.81,1.81,0,0,1-.76-.63,1.27,1.27,0,0,1-.18-.67,1.46,1.46,0,0,1,.65-1.18,2.35,2.35,0,0,1,1.4-.43,3.15,3.15,0,0,1,1.77.65.41.41,0,0,1,.11.57.4.4,0,0,1-.57.12,2.41,2.41,0,0,0-1.31-.52,1.56,1.56,0,0,0-.91.28.64.64,0,0,0-.31.51.41.41,0,0,0,.06.23.74.74,0,0,0,.22.21,2.66,2.66,0,0,0,1,.36h0a4.46,4.46,0,0,1,1.12.34,1.91,1.91,0,0,1,.81.67,1.36,1.36,0,0,1,.2.69,1.59,1.59,0,0,1-.7,1.26,2.57,2.57,0,0,1-1.5.46,3.47,3.47,0,0,1-2.08-.81A.44.44,0,0,1,194.54,387.21Z" style="fill:#fff"></path><path d="M199.88,385.7a3,3,0,0,1,3-2.92,3,3,0,0,1,1.88.63.47.47,0,0,1-.57.74,2,2,0,0,0-1.31-.45,2.13,2.13,0,0,0-1.46.59,2,2,0,0,0,0,2.82,2.13,2.13,0,0,0,1.46.59,2,2,0,0,0,1.31-.45.47.47,0,0,1,.57.74,3,3,0,0,1-1.88.63A3,3,0,0,1,199.88,385.7Z" style="fill:#fff"></path><path d="M209.17,387.28h-2l-.4,1.06a.44.44,0,0,1-.42.28l-.15,0A.46.46,0,0,1,206,388l1.79-4.78a.44.44,0,0,1,.43-.28.43.43,0,0,1,.43.28l1.8,4.78a.47.47,0,0,1-.27.59l-.16,0a.42.42,0,0,1-.41-.28Zm-.33-.89-.66-1.75-.66,1.75Z" style="fill:#fff"></path><path d="M215.28,388a.46.46,0,0,1-.29.57l-.18,0h0a.59.59,0,0,1-.31-.09.7.7,0,0,1-.26-.28,2.13,2.13,0,0,1-.17-1,.69.69,0,0,0-.1-.35.76.76,0,0,0-.24-.23,1.46,1.46,0,0,0-.46-.2h-1v1.76a.45.45,0,0,1-.9,0v-4.79a.44.44,0,0,1,.45-.44h1.45a1.74,1.74,0,0,1,1.11,3.08,1.16,1.16,0,0,1,.28.3,1.52,1.52,0,0,1,.27.87,2.36,2.36,0,0,0,0,.48A.45.45,0,0,1,215.28,388Zm-1.14-3.27a.83.83,0,0,0-.84-.84h-1v1.67h1A.83.83,0,0,0,214.14,384.68Z" style="fill:#fff"></path><path d="M216.59,388.17v-4.79a.44.44,0,0,1,.45-.44h1a2.84,2.84,0,0,1,0,5.68h-1A.45.45,0,0,1,216.59,388.17Zm.9-.45H218a1.94,1.94,0,0,0,0-3.88h-.51Z" style="fill:#fff"></path><path d="M177.41,138.1a.17.17,0,0,1,.16-.17h1.09a1.21,1.21,0,0,1,.74,2.16,1.41,1.41,0,0,1,1,1.32,1.4,1.4,0,0,1-1.4,1.39h-1.39a.17.17,0,0,1-.16-.17Zm1.25,1.91a.87.87,0,1,0,0-1.74h-.91V140Zm.3,2.45a1.05,1.05,0,1,0,0-2.1h-1.21v2.1Z" style="fill:#263238"></path><path d="M181.47,139.56a.16.16,0,0,1,.17-.16.16.16,0,0,1,.16.16v.76a.41.41,0,0,1,0-.09,1.65,1.65,0,0,1,1.36-.83.17.17,0,0,1,.17.16.18.18,0,0,1-.17.17,1.24,1.24,0,0,0-1,.56,3.32,3.32,0,0,0-.41.79.15.15,0,0,0,0,.06v1.49a.17.17,0,0,1-.16.17.16.16,0,0,1-.17-.17Z" style="fill:#263238"></path><path d="M184.53,138.44a.17.17,0,0,1,.17-.16.16.16,0,0,1,.17.16v.16a.17.17,0,0,1-.17.18.18.18,0,0,1-.17-.18Zm0,1.12a.17.17,0,0,1,.17-.17.16.16,0,0,1,.17.17v3.07a.17.17,0,0,1-.17.17.18.18,0,0,1-.17-.17Z" style="fill:#263238"></path><path d="M189.46,142.53a1.61,1.61,0,0,1-1.61,1.6,1.71,1.71,0,0,1-.71-.16.18.18,0,0,1-.07-.22.15.15,0,0,1,.22-.08,1.31,1.31,0,0,0,.56.12,1.26,1.26,0,0,0,1.27-1.26v-.42a1.54,1.54,0,0,1-1.27.67,1.7,1.7,0,0,1,0-3.39,1.54,1.54,0,0,1,1.27.67v-.5a.18.18,0,0,1,.18-.17.17.17,0,0,1,.16.17Zm-.34-1.45a1.27,1.27,0,1,0-1.27,1.37A1.31,1.31,0,0,0,189.12,141.08Z" style="fill:#263238"></path><path d="M193.58,140.73a1.08,1.08,0,0,0-2.16,0v1.92s0,0,0,0a0,0,0,0,1,0,0,.15.15,0,0,1-.11.08,0,0,0,0,1,0,0h0a.2.2,0,0,1-.14-.06l0-.05V138.1a.17.17,0,0,1,.17-.17.18.18,0,0,1,.17.17v1.79a1.4,1.4,0,0,1,1.08-.5,1.36,1.36,0,0,1,1.42,1.34v1.9a.17.17,0,0,1-.17.17.18.18,0,0,1-.17-.17Z" style="fill:#263238"></path><path d="M196.54,139.56a.18.18,0,0,1-.17.16h-.44v2.49a.27.27,0,0,0,.25.25.19.19,0,0,1,.18.17.18.18,0,0,1-.18.17.58.58,0,0,1-.6-.59v-2.49h-.42c-.17,0-.17-.08-.17-.16s0-.17.17-.17h.42v-1.27a.18.18,0,0,1,.17-.16.18.18,0,0,1,.18.16v1.27h.44A.18.18,0,0,1,196.54,139.56Z" style="fill:#263238"></path><path d="M200.57,140.78a1,1,0,0,0-1-1.05,1.06,1.06,0,0,0-1.06,1.05v1.88s0,.06,0,.08a.16.16,0,0,1-.13.06h0a.17.17,0,0,1-.11-.09v-3.15a.16.16,0,0,1,.17-.16.16.16,0,0,1,.16.16v.33a1.38,1.38,0,0,1,2.44.89v1.85a.16.16,0,0,1-.16.17.17.17,0,0,1-.17-.17Z" style="fill:#263238"></path><path d="M202.16,141.1a1.65,1.65,0,0,1,3.3-.12h0v0a.17.17,0,0,1-.17.16h-2.8a1.35,1.35,0,0,0,1.33,1.31,1.26,1.26,0,0,0,1.09-.62.17.17,0,0,1,.23-.06.19.19,0,0,1,.05.24,1.63,1.63,0,0,1-1.37.77A1.68,1.68,0,0,1,202.16,141.1Zm.35-.27h2.59a1.33,1.33,0,0,0-1.28-1.11A1.34,1.34,0,0,0,202.51,140.83Z" style="fill:#263238"></path><path d="M206.41,142.09a.17.17,0,0,1,.24,0,1.83,1.83,0,0,0,1,.4,1.1,1.1,0,0,0,.65-.21.55.55,0,0,0,.25-.42.53.53,0,0,0-.24-.42,1.8,1.8,0,0,0-.72-.25h0a1.84,1.84,0,0,1-.77-.26.71.71,0,0,1-.37-.61.84.84,0,0,1,.37-.67,1.46,1.46,0,0,1,.83-.23,1.81,1.81,0,0,1,1,.37.17.17,0,0,1,.05.23.16.16,0,0,1-.23,0,1.54,1.54,0,0,0-.84-.34,1,1,0,0,0-.64.2.51.51,0,0,0-.22.39.43.43,0,0,0,.2.34,1.63,1.63,0,0,0,.69.23h0a2.4,2.4,0,0,1,.82.28.85.85,0,0,1,.39.7.89.89,0,0,1-.39.69,1.44,1.44,0,0,1-.85.27,2.11,2.11,0,0,1-1.26-.49A.15.15,0,0,1,206.41,142.09Z" style="fill:#263238"></path><path d="M209.77,142.09a.16.16,0,0,1,.23,0,1.86,1.86,0,0,0,1.05.4,1,1,0,0,0,.64-.21.53.53,0,0,0,.26-.42.56.56,0,0,0-.24-.42,1.8,1.8,0,0,0-.73-.25h0a1.79,1.79,0,0,1-.77-.26.71.71,0,0,1-.37-.61.84.84,0,0,1,.37-.67,1.43,1.43,0,0,1,.83-.23,1.83,1.83,0,0,1,1,.37.17.17,0,0,1,0,.23.17.17,0,0,1-.23,0,1.54,1.54,0,0,0-.84-.34,1,1,0,0,0-.65.2.53.53,0,0,0-.21.39.42.42,0,0,0,.19.34,1.74,1.74,0,0,0,.7.23h0a2.46,2.46,0,0,1,.83.28.86.86,0,0,1,.38.7.89.89,0,0,1-.39.69,1.38,1.38,0,0,1-.84.27,2.09,2.09,0,0,1-1.26-.49A.15.15,0,0,1,209.77,142.09Z" style="fill:#263238"></path><polygon points="173.85 173.63 192.89 173.45 211.92 173.39 250 173.26 288.08 173.38 307.12 173.45 326.15 173.63 307.12 173.82 288.08 173.88 250 174.01 211.92 173.88 192.89 173.82 173.85 173.63" style="fill:#ebebeb"></polygon><path d="M181.18,156.37a1.73,1.73,0,1,1-1.73-1.73A1.74,1.74,0,0,1,181.18,156.37Z" style="fill:#c7c7c7"></path><ellipse cx="179.45" cy="153.18" rx="0.34" ry="0.72" style="fill:#c7c7c7"></ellipse><path d="M177.43,153.88c.29.28.41.62.28.75s-.47,0-.76-.28-.4-.61-.27-.75S177.15,153.59,177.43,153.88Z" style="fill:#c7c7c7"></path><path d="M176.26,156c.4,0,.72.15.72.34s-.32.34-.72.34-.73-.15-.73-.34S175.86,156,176.26,156Z" style="fill:#c7c7c7"></path><path d="M177,158.39c.29-.28.62-.41.76-.27s0,.46-.28.75-.62.4-.75.27S176.67,158.67,177,158.39Z" style="fill:#c7c7c7"></path><path d="M179.11,159.56c0-.4.15-.72.34-.72s.34.32.34.72-.15.73-.34.73S179.11,160,179.11,159.56Z" style="fill:#c7c7c7"></path><path d="M181.47,158.87c-.29-.29-.41-.62-.28-.75s.47,0,.75.27.41.62.28.75S181.75,159.15,181.47,158.87Z" style="fill:#c7c7c7"></path><ellipse cx="182.64" cy="156.37" rx="0.72" ry="0.34" style="fill:#c7c7c7"></ellipse><path d="M181.94,154.35c-.28.29-.61.41-.75.28s0-.47.28-.75.62-.41.75-.28S182.23,154.07,181.94,154.35Z" style="fill:#c7c7c7"></path><circle cx="320.02" cy="156.37" r="1.73" style="fill:#c7c7c7"></circle><path d="M320.36,153c0,.59-.15,1.06-.34,1.06s-.34-.47-.34-1.06.16-1.06.34-1.06S320.36,152.4,320.36,153Z" style="fill:#c7c7c7"></path><path d="M317.87,153.74c.41.42.64.86.51,1s-.57-.1-1-.51-.64-.86-.51-1S317.46,153.33,317.87,153.74Z" style="fill:#c7c7c7"></path><path d="M316.64,156c.59,0,1.06.15,1.06.34s-.47.34-1.06.34-1.06-.15-1.06-.34S316.05,156,316.64,156Z" style="fill:#c7c7c7"></path><path d="M317.39,158.52c.42-.41.86-.64,1-.51s-.1.58-.51,1-.86.65-1,.51S317,158.94,317.39,158.52Z" style="fill:#c7c7c7"></path><path d="M319.68,159.75c0-.58.16-1.06.34-1.06s.34.48.34,1.06-.15,1.06-.34,1.06S319.68,160.34,319.68,159.75Z" style="fill:#c7c7c7"></path><path d="M322.17,159c-.41-.41-.64-.86-.51-1s.58.1,1,.51.65.86.51,1S322.59,159.42,322.17,159Z" style="fill:#c7c7c7"></path><path d="M323.4,156.71c-.58,0-1.06-.15-1.06-.34s.48-.34,1.06-.34,1.07.15,1.07.34S324,156.71,323.4,156.71Z" style="fill:#c7c7c7"></path><path d="M322.65,154.22c-.41.41-.85.64-1,.51s.1-.57.51-1,.86-.64,1-.51S323.07,153.8,322.65,154.22Z" style="fill:#c7c7c7"></path><rect x="189.87" y="155.97" width="123.39" height="0.8" style="fill:#c7c7c7"></rect><rect x="189.87" y="155.97" width="59.37" height="0.8" style="fill:#FF4D50"></rect><circle cx="248.77" cy="156.37" r="1.44" style="fill:#FF4D50"></circle></g><g id="freepik--Character--inject-67"><path d="M124.09,326.17s-21.39,40.29-21.4,40.32c-1.25,7.61-2.21,14.3-2.38,17.82,0,0,0,0,0,.05a5.49,5.49,0,0,0,.17,2.45s0,0,0,.05c2,1.91,62.56,13.66,64.81,13.36s1.57-6.73-.42-9.06S141.75,374,141.75,374l21-40.33Z" style="fill:#d3766a"></path><path d="M106.68,358.45l-4,8c-1.25,7.61-2.21,14.3-2.38,17.82,0,0,0,0,0,.05a11,11,0,0,0,.17,2.45s0,0,0,.05c2,1.91,62.56,13.66,64.81,13.36s1.57-6.73-.42-9.06S141.75,374,141.75,374l4.12-8.14Z" style="fill:#fff"></path><path d="M145.47,374.6c-3.94-1.34-9-1.44-12.49,1-.14.1,0,.29.14.27a57.14,57.14,0,0,1,12.26-.75A.26.26,0,0,0,145.47,374.6Z" style="fill:#263238"></path><path d="M148.14,376.79c-3.94-1.35-9-1.45-12.49,1-.14.09,0,.28.13.26a57.27,57.27,0,0,1,12.27-.74A.26.26,0,0,0,148.14,376.79Z" style="fill:#263238"></path><path d="M150.8,379c-3.93-1.34-9-1.44-12.49,1-.13.1,0,.29.14.27a57.18,57.18,0,0,1,12.26-.75A.26.26,0,0,0,150.8,379Z" style="fill:#263238"></path><path d="M165.33,400.22c-2.25.31-62.79-11.45-64.81-13.36-.78-.71.42-9.64,2.18-20.37,0-.12,0-.23,0-.34l39.15,7.15-.15.66s21.16,14.86,23.16,17.2S167.58,399.93,165.33,400.22Z" style="fill:#37474f"></path><path d="M102.75,366.14l-.06.35c-1.75,10.74-3,19.66-2.17,20.37.91.87,14,3.78,28.13,6.67,16.94,3.46,35.45,6.86,36.68,6.7,2.25-.3,1.56-6.74-.42-9.07S141.75,374,141.75,374l.15-.66-13.06-2.38Z" style="fill:#FF4D50"></path><path d="M165.1,397.74c-10.16-2.23-51.33-10.27-61.54-11.71-.08,0-.09.05,0,.07,10,2.43,51.26,10.14,61.52,11.81C165.29,398,165.32,397.79,165.1,397.74Z" style="fill:#263238"></path><path d="M128.84,370.92c-.14,6.73-.3,16.66-.19,22.61,16.94,3.46,35.45,6.86,36.68,6.7,2.25-.3,1.56-6.74-.42-9.07S141.75,374,141.75,374l.15-.66Z" style="opacity:0.1"></path><path d="M108.23,352.76,153.07,358s47.6-73.15,42.81-98.44C193.24,245.6,146,223.76,146,223.76l-4.79-9.62H107.81S94.21,234.19,104,253c6.63,12.8,43.09,22.56,44.43,26.67C150.17,285.11,108.23,352.76,108.23,352.76Z" style="fill:#37474f"></path><path d="M114,346.89a35.31,35.31,0,0,1,3.56.14c1.32.07,2.64.13,4,.23,2.53.2,5.06.46,7.58.75,5.09.59,10.17,1.24,15.23,2,2.89.43,5.76.9,8.63,1.41a.09.09,0,0,1,0,.18c-5.07-.42-10.12-.95-15.18-1.46s-10.11-1-15.13-1.72c-1.44-.2-2.89-.39-4.32-.65s-2.93-.35-4.31-.73C114,347,113.94,346.9,114,346.89Z" style="fill:#263238"></path><path d="M149.22,346.21c4-6.06,25.28-44.59,28.47-51.08,1.6-3.24,3.14-6.51,4.53-9.83a88.46,88.46,0,0,0,3.69-10.14c1-3.42,1.83-7,1.1-10.43a14.65,14.65,0,0,0-2-4.81,20.14,20.14,0,0,0-1.52-2.17c-.57-.68-1.14-1.37-1.76-2-5-5.13-11.25-8.93-17.52-12.46s-12.9-6.51-19.47-9.57c-1.63-.78-3.27-1.56-4.88-2.39-.81-.42-1.61-.85-2.39-1.32a5.29,5.29,0,0,1-2-1.83,25.59,25.59,0,0,1-2.92-10.42A25.73,25.73,0,0,0,135.62,228a5.18,5.18,0,0,0,2,1.68c.78.45,1.59.86,2.4,1.25,1.63.78,3.28,1.52,4.93,2.26,6.6,3,13.24,5.9,19.64,9.32a103.35,103.35,0,0,1,9.37,5.59,54.84,54.84,0,0,1,8.47,6.92c.64.66,1.23,1.36,1.83,2.06a24.34,24.34,0,0,1,1.6,2.27,14.75,14.75,0,0,1,2.3,10.71c-.17.9-.29,1.82-.51,2.71s-.42,1.79-.68,2.66a87.93,87.93,0,0,1-3.78,10.25c-1.42,3.34-3,6.62-4.6,9.87C175.34,302.07,153.33,340.25,149.22,346.21Z" style="fill:#263238"></path><rect x="97.41" y="406.29" width="52.69" height="40.33" style="fill:#FF4D50"></rect><rect x="150.1" y="406.29" width="20.88" height="40.33" style="fill:#FF4D50"></rect><rect x="97.41" y="406.29" width="73.56" height="40.33" style="opacity:0.2"></rect><polygon points="170.97 406.29 170.97 409.11 97.41 411.16 97.41 406.29 170.97 406.29" style="opacity:0.1"></polygon><rect x="150.1" y="406.29" width="20.88" height="40.33" style="opacity:0.1"></rect><path d="M169.53,443.84c-1.54-2.87-3.08-5.74-4.59-8.63l-4.53-8.68-4.47-8.71c-1.49-2.91-2.95-5.83-4.41-8.75q2.33,4.29,4.6,8.63l4.53,8.67,4.47,8.71Q167.35,439.45,169.53,443.84Z" style="fill:#FF4D50"></path><path d="M169.53,409.07q-2.17,4.38-4.4,8.75l-4.47,8.71-4.53,8.68q-2.28,4.34-4.6,8.63c1.46-2.93,2.92-5.85,4.41-8.76l4.47-8.71,4.53-8.67C166.45,414.81,168,411.93,169.53,409.07Z" style="fill:#FF4D50"></path><rect x="115.78" y="412.44" width="15.94" height="5.26" style="opacity:0.1"></rect><rect x="94.42" y="396.91" width="56.44" height="10.93" style="fill:#FF4D50"></rect><rect x="150.85" y="396.91" width="22.36" height="10.93" style="fill:#FF4D50"></rect><rect x="94.42" y="396.91" width="78.8" height="10.93" style="opacity:0.2"></rect><rect x="150.85" y="396.91" width="22.36" height="10.93" style="opacity:0.1"></rect><path d="M147.54,385.9s.34,40.34.34,40.36c0,7.72.18,14.48.59,18a.13.13,0,0,0,0,.06,5.24,5.24,0,0,0,.58,2.38s0,0,0,.05c2.3,1.55,64,3.15,66.13,2.48s.43-6.9-1.91-8.88-25.68-13.14-25.68-13.14l-.73-40.32Z" style="fill:#d3766a"></path><path d="M147.81,418s.07,8.26.07,8.28c0,7.72.18,14.48.59,18a.13.13,0,0,0,0,.06,10.65,10.65,0,0,0,.58,2.38s0,0,0,.05c2.3,1.55,64,3.15,66.13,2.48s.43-6.9-1.91-8.88-25.68-13.14-25.68-13.14l0-8.4Z" style="fill:#fff"></path><path d="M191.41,427.2c-4.1-.67-9.09.06-12.15,3-.12.12,0,.29.18.24a57.47,57.47,0,0,1,12-2.76A.26.26,0,0,0,191.41,427.2Z" style="fill:#263238"></path><path d="M194.4,428.92c-4.1-.68-9.09.06-12.15,3-.12.12,0,.28.18.24a56.85,56.85,0,0,1,12-2.76A.26.26,0,0,0,194.4,428.92Z" style="fill:#263238"></path><path d="M197.39,430.64c-4.1-.68-9.09.06-12.15,3-.12.11,0,.28.18.23a58.11,58.11,0,0,1,12-2.76A.26.26,0,0,0,197.39,430.64Z" style="fill:#263238"></path><path d="M215.23,449.2c-2.17.67-63.82-.93-66.13-2.48-.89-.58-1.18-9.58-1.22-20.46,0-.11,0-.22,0-.34l39.78.59,0,.68s23.32,11.16,25.68,13.14S217.4,448.54,215.23,449.2Z" style="fill:#FF4D50"></path><path d="M214.59,446.79c-10.38-.52-52.32-1.66-62.63-1.39-.08,0-.08.06,0,.06,10.28.75,52.23,1.55,62.63,1.5C214.81,447,214.81,446.8,214.59,446.79Z" style="fill:#263238"></path><path d="M127.16,256.84s18.3,57.69,18.63,68.3c.28,9-.87,88.79-.87,88.79l46.33.27s-3.91-81.59-4.64-91c-1.35-17.61-16.78-66-27.82-109H108.84s.43,22.56,10.7,38.88C119.54,253,124.18,255.17,127.16,256.84Z" style="fill:#37474f"></path><path d="M147.38,405.39c5.35-.16,10.9-.31,16.25-.18s10.64.21,15.94.53c3,.18,6,.28,9,.57a.09.09,0,0,1,0,.17c-5.35.31-10.72.24-16.08.2s-10.63-.11-15.94-.35c-3-.14-6-.29-9-.5C147.23,405.81,147.05,405.4,147.38,405.39Z" style="fill:#263238"></path><path d="M157.51,241.32c1.65,5.52,3,11.11,4.52,16.67s3,11.21,4.45,16.82c2.86,10.85,5.68,21.73,7.82,32.75A197.9,197.9,0,0,1,178,341.11c.24,11.49,0,23-.07,34.47s-.18,10.1-.38,21.65c0,1.44-.05,2.87-.11,4.31,0,.14-.21.13-.21,0-.31-11.48-.15-10-.11-21.48s.19-23,.09-34.48a206.47,206.47,0,0,0-2.94-34c-1.94-11.06-4.66-22-7.49-32.81-1.61-6.2-3.24-12.39-4.84-18.58s-3.35-12.46-4.77-18.74A.17.17,0,0,1,157.51,241.32Z" style="fill:#263238"></path><path d="M138.62,258a40.66,40.66,0,0,1-6.88-.63c-2.3-.43-4.44-1.19-6.67-1.84a51.53,51.53,0,0,0-6.54-1.07,23,23,0,0,1-6.4-1.91c-.1,0-.18.09-.08.14a39.27,39.27,0,0,0,6.14,2.66c2.19.7,4.49.79,6.72,1.34a57.3,57.3,0,0,0,6.86,1.58,25.09,25.09,0,0,0,6.87-.12C138.73,258.1,138.7,258,138.62,258Z" style="fill:#263238"></path><path d="M146,367.75l-.08-14.21c0-4.74-.05-9.47-.13-14.2s-.14-9.47-.47-14.17a41.25,41.25,0,0,0-1.15-6.93c-.5-2.3-1.11-4.59-1.7-6.88-2.34-9.16-4.95-18.27-7.53-27.38l-7.76-27.33c1.51,4.49,2.93,9,4.38,13.52l4.19,13.58q4.11,13.59,7.78,27.34c.57,2.3,1.17,4.6,1.66,6.93a41.94,41.94,0,0,1,1.12,7.08c.28,4.75.34,9.49.32,14.23Q146.54,353.55,146,367.75Z" style="fill:#263238"></path><path d="M182.9,303.33c-1.72-6-3.35-12-5-18l-4.79-18.05-4.72-18.07c-.77-3-1.58-6-2.41-9s-1.59-6-2.7-8.93C165.8,237,167.44,243,169.24,249s3.34,12,5,18,3.1,12.07,4.55,18.12S181.62,297.23,182.9,303.33Z" style="fill:#263238"></path><path d="M170.26,179.32c-2.77,7-9.73,8.93-15,9.85h0c-5.27.91-12.49,1.41-17.44-4.23s-2.27-11.69-3.78-15.81-6.62-7.62-6.78-13.74,3.81-9.07,3.28-15.06c-.49-5.39-.62-17.14,11.94-20.22,12.74-3.11,18.27,9.5,19.63,14.74,1.51,5.83,6.23,7.26,8.15,13.08s-1.7,10.83-1.75,15.22S173,172.34,170.26,179.32Z" style="fill:#263238"></path><path d="M133.6,179.86c-.33-2.35.29-4.6.76-6.89a8.49,8.49,0,0,0-.51-5.85,25.36,25.36,0,0,0-3.83-5.45.06.06,0,1,0-.1.08,32.24,32.24,0,0,1,3.82,6c1,2.28.27,4.71-.19,7-.74,3.77-.4,8.54,3.39,10.58a0,0,0,1,0,0,0A7.47,7.47,0,0,1,133.6,179.86Z" style="fill:#263238"></path><path d="M129.86,163.52a16,16,0,0,1-2-6,14.24,14.24,0,0,1,1-6.42c0-.09-.1-.13-.14,0a13.2,13.2,0,0,0,.06,11.21c1.69,3.78,5,7.75,3.63,12.16,0,0,0,.05.05,0C133.89,170.55,131.62,166.86,129.86,163.52Z" style="fill:#263238"></path><path d="M165.38,140.84s0,0,0,0a36.48,36.48,0,0,1,4.46,7,13.87,13.87,0,0,1,1,7.86c-.62,4.05-2.56,8.67-1.33,12.75-.42-.76-.86-1.5-1.24-2.29-1.39-2.88-.76-5.92-.15-8.91,0-.05-.07-.07-.08,0-.64,2.49-1.23,5.2-.53,7.73a16.82,16.82,0,0,0,1.5,3.29,26.86,26.86,0,0,1,1.68,3.85,12.64,12.64,0,0,1-3.31,13.66c-.06.06,0,.17.1.11a12.39,12.39,0,0,0,4.09-12.14,18.66,18.66,0,0,0-1.1-3.34s0,0,0,0c-2.66-5.18.54-10.59.95-15.9S168.6,144.8,165.38,140.84Z" style="fill:#263238"></path><path d="M141.46,157.54c.16,1,4.31,7.47,8.69,7.55,1.43,0,1.9-7.76,1.9-7.76l.17-.56,2.33-7.93-9.06-6.68-1.31-.89s-.49,2.21-1.08,5a3.82,3.82,0,0,0-.08.39c0,.15-.08.3-.11.45l-.27,1.25c-.06.32-.13.63-.18,1s-.12.66-.19,1A51.71,51.71,0,0,0,141.46,157.54Z" style="fill:#d3766a"></path><path d="M143.1,146.24a16.61,16.61,0,0,0,9.12,10.53l2.33-7.93-9.06-6.68-1.31-.89S143.69,143.48,143.1,146.24Z" style="fill:#263238"></path><path d="M165.83,134.56c3.6,14.05-4.34,17.91-7.44,18.55-2.78.58-12.21,2.74-17.23-10.86s.37-19.71,6.58-21.65S162.24,120.51,165.83,134.56Z" style="fill:#d3766a"></path><path d="M164.36,131.7a8.35,8.35,0,0,1-1,0,1.54,1.54,0,0,1-1-.22.5.5,0,0,1-.11-.62,1.26,1.26,0,0,1,1.18-.52,1.9,1.9,0,0,1,1.28.44A.55.55,0,0,1,164.36,131.7Z" style="fill:#263238"></path><path d="M155.25,133.88c.32-.1.61-.24.92-.37a1.63,1.63,0,0,0,.87-.57.52.52,0,0,0-.11-.62,1.27,1.27,0,0,0-1.29-.07,1.86,1.86,0,0,0-1,.87A.54.54,0,0,0,155.25,133.88Z" style="fill:#263238"></path><path d="M158,137s-.07.06-.06.1c.23,1,.33,2.1-.47,2.6,0,0,0,.07,0,.06C158.51,139.39,158.36,137.88,158,137Z" style="fill:#263238"></path><path d="M156.92,136.18c-1.58.2-1.06,3.35.4,3.16S158.24,136,156.92,136.18Z" style="fill:#263238"></path><path d="M156.33,136.45c-.25.22-.47.58-.79.67s-.72-.18-1-.46c0,0-.06,0-.05.05.09.6.42,1.18,1.08,1.17s.94-.62,1-1.25C156.55,136.51,156.43,136.36,156.33,136.45Z" style="fill:#263238"></path><path d="M163.13,135.6s.09,0,.09.07c.12,1,.43,2.09,1.36,2.27,0,0,0,.05,0,.05C163.48,138,163.09,136.55,163.13,135.6Z" style="fill:#263238"></path><path d="M163.84,134.44c1.55-.36,2.17,2.76.74,3.1S162.54,134.75,163.84,134.44Z" style="fill:#263238"></path><path d="M164.53,134.52c.28.12.59.37.89.33s.53-.43.68-.8c0,0,.05,0,.06,0,.13.6.06,1.26-.49,1.49s-1-.23-1.25-.8C164.37,134.66,164.42,134.47,164.53,134.52Z" style="fill:#263238"></path><path d="M159.22,144.53c.26.2.54.49.9.48a2.73,2.73,0,0,0,1-.37,0,0,0,0,1,.05,0,1.32,1.32,0,0,1-1.18.68,1,1,0,0,1-.88-.77A.06.06,0,0,1,159.22,144.53Z" style="fill:#263238"></path><path d="M162.66,140.29s.46,1.42.58,2.11c0,.06-.15.12-.38.17,0,0,0,0,0,0a3.31,3.31,0,0,1-3.37-.65.07.07,0,0,1,.08-.12,5,5,0,0,0,3.13.33c0-.2-.87-2.4-.77-2.43a6,6,0,0,1,1.62.08c-.87-3-2.21-5.79-3-8.77a.1.1,0,0,1,.17-.08,50.74,50.74,0,0,1,3.67,9.31C164.45,140.63,163,140.36,162.66,140.29Z" style="fill:#263238"></path><path d="M162.71,142.06a4.07,4.07,0,0,1-1.19,1.67,1.85,1.85,0,0,1-1,.38c-.83,0-1.06-.67-1.09-1.31a4.3,4.3,0,0,1,.06-1A5.27,5.27,0,0,0,162.71,142.06Z" style="fill:#263238"></path><path d="M161.52,143.73a1.85,1.85,0,0,1-1,.38c-.83,0-1.06-.67-1.09-1.31A1.86,1.86,0,0,1,161.52,143.73Z" style="fill:#ff98b9"></path><path d="M154.31,122.18a6.49,6.49,0,0,1,.49,3.78c-1,3.5-5,3.34-6.13,4.85s-.16,3.83-1.08,5.23c-1.27,1.93-3.51,1.66-3.57,2.83s-.17,4.85-1.52,5.55-12.06-21.79,6.69-24.34c0,0,2.37-1.49,6.68-.2,4.76,1.43,7.69,8.4,7.69,8.4a3,3,0,0,0-.81-.59c-1-.63-1.3-1.36-2.05-1.76-1.18-.62-1.69-.21-2.91-.81A12.48,12.48,0,0,1,154.31,122.18Z" style="fill:#263238"></path><path d="M153.85,121.2a12.54,12.54,0,0,1,1,2.75,5.29,5.29,0,0,1,.1,2.84,3.93,3.93,0,0,1-1.85,2c-.82.49-1.78.75-2.67,1.3a3,3,0,0,0-1.08,1.16,4,4,0,0,0-.29,1.53,5.25,5.25,0,0,1-.58,2.75,3.22,3.22,0,0,1-2.31,1.49,6.89,6.89,0,0,0-2.86.67,6.83,6.83,0,0,1,2.89-.44,3.52,3.52,0,0,0,2.58-1.52,5.3,5.3,0,0,0,.7-2.93,3.7,3.7,0,0,1,.27-1.36,2.54,2.54,0,0,1,.94-1c.78-.51,1.75-.8,2.63-1.32a5.28,5.28,0,0,0,1.2-1,3,3,0,0,0,.77-1.34,5.54,5.54,0,0,0-.22-3A12.46,12.46,0,0,0,153.85,121.2Z" style="fill:#263238"></path><path d="M154.35,122a10.44,10.44,0,0,0,1.36,2.41,4.77,4.77,0,0,0,2.23,1.72,6.5,6.5,0,0,0,1.37.27,2.29,2.29,0,0,1,1.13.5,7,7,0,0,0,1,1,3,3,0,0,0,1.31.48,3.55,3.55,0,0,1-1.17-.66,7.43,7.43,0,0,1-.88-1,2.39,2.39,0,0,0-1.3-.68,7.21,7.21,0,0,1-1.31-.28,5.18,5.18,0,0,1-2.09-1.52A21,21,0,0,1,154.35,122Z" style="fill:#263238"></path><path d="M144,141.87s-4.35-3.4-6-1.72,2.56,7.26,5.13,7.41a2.44,2.44,0,0,0,2.75-2.22Z" style="fill:#d3766a"></path><path d="M139.3,141.72s0,.06,0,.07a6.21,6.21,0,0,1,4.2,2.77,1.36,1.36,0,0,0-2,.23.06.06,0,0,0,.07.08,1.5,1.5,0,0,1,1.74,0,7.26,7.26,0,0,1,1.16,1.06c.12.12.35,0,.25-.19l0,0C144.06,143.64,141.58,141.25,139.3,141.72Z" style="fill:#263238"></path><path d="M160.66,200.07l-1.87,14.07h-51S119.16,172,134,159.75c7.44-6.14,15-4.57,19.13,1,1,1.41,12.26,19.36,12.79,26.95C166.39,194.39,160.66,200.07,160.66,200.07Z" style="fill:#dbdbdb"></path><path d="M149.56,157.44H137.45l.92-.45h10.35C149,157.12,149.28,157.28,149.56,157.44Zm2.87,2.43H133.87c-.18.14-.35.29-.52.45H152.8C152.69,160.17,152.56,160,152.43,159.87Zm2,2.88H131c-.14.15-.28.3-.41.46h24.2Zm1.76,2.89H128.6l-.33.45h28.21Zm1.66,2.88H126.6l-.29.45h31.82C158.05,168.82,158,168.67,157.87,168.52Zm1.6,2.88H124.81l-.27.46h35.18C159.64,171.7,159.55,171.55,159.47,171.4Zm1.52,2.89H123.18l-.24.45h38.27Zm1.41,2.88H121.68c-.08.15-.16.3-.23.45h41.16Zm1.29,2.88H120.26l-.21.46h43.83Zm1.12,2.89H118.93l-.2.45H165Zm.84,2.88h-48l-.19.45h48.26C165.72,186.12,165.68,186,165.65,185.82Zm-49.18,2.88c-.06.16-.13.31-.19.46h49.66a3.46,3.46,0,0,0,0-.46Zm-1.15,2.89c-.06.15-.12.3-.17.45h50.28a3.74,3.74,0,0,0,.12-.45Zm-1.09,2.88c-.06.15-.12.3-.17.45h50.23l.22-.45Zm-1.06,2.88c-.06.16-.11.31-.16.46h49.52l.32-.46Zm-1,2.89-.15.45h48.58l.06-.45Zm-1,2.88-.15.45h49.16l.06-.45Zm-.94,2.88-.15.46h49.72l.06-.46Zm-.9,2.89c0,.15-.1.3-.14.45h50.23l.06-.45Zm-.87,2.88c0,.16-.09.31-.13.45h50.71l0-.45Z" style="fill:#a6a6a6"></path><path d="M145.31,168.37C151,176,174.75,200.16,183.73,199c14.09-1.78,28.66-9.33,36.75-13.25,2.57-1.24-10.2-25.78-14.86-22.83-6,3.82-18.54,9.49-22.21,10.2-2.51.49-19.57-8.43-31.48-14.55C142,153.5,138.15,158.7,145.31,168.37Z" style="fill:#d3766a"></path><path d="M201.5,165.85l4.12-2.9a16.35,16.35,0,0,0,3.43-3.43c4-4.84,16.93-14.05,33.71-8.46,6.43,2.14,7.74,7.58.66,6.55-5-.73-8.37-1.67-10.06-1.45,0,0,5.27,5.62,4.38,10a83.11,83.11,0,0,1-3.14,11.28,17.32,17.32,0,0,1-2.16-.4,9.4,9.4,0,0,1-7.52,6.6l-6.59,3.19Z" style="fill:#d3766a"></path><path d="M213.63,155.51c3.26-.52,10.18-1.51,16.12-.35,6.6,1.29,19,5.55,18,10.41-.74,3.57-5.61,2.36-5.61,2.36s4.75,2.84,3.38,5.91c-1.25,2.81-4.95,1.64-4.95,1.64s2.58,2.22.85,4.69c-2.06,3-7.13-2.16-11.83-1C228.52,179.47,213.63,155.51,213.63,155.51Z" style="fill:#d3766a"></path><path d="M227.23,161.91a26.79,26.79,0,0,1,14.85,5.88c.11.1.09.22,0,.16a66.1,66.1,0,0,0-14.84-6S227.19,161.91,227.23,161.91Z" style="fill:#263238"></path><path d="M226.12,168.61c2.71.29,10,2.53,14.48,6.76.1.1.08.22,0,.16a70.73,70.73,0,0,0-14.46-6.86S226.09,168.61,226.12,168.61Z" style="fill:#263238"></path><path d="M176.56,170.46,168,193.93s-15.61-14.76-23.47-25-3.85-15.58,7.56-11.29S176.56,170.46,176.56,170.46Z" style="fill:#a6a6a6"></path><path d="M171.37,169.38c-.28.8-.68,1.58-1,2.35s-.64,1.58-1,2.37q-.9,2.31-1.82,4.6c-1.24,3.1-2.56,6.17-3.63,9.36,0,.05.06.09.08.05a80,80,0,0,0,4.09-9.09c.62-1.56,1.21-3.12,1.79-4.7.29-.8.58-1.61.83-2.43s.45-1.68.74-2.47C171.5,169.36,171.39,169.31,171.37,169.38Z" style="fill:#263238"></path></g></svg>