<svg xmlns="http://www.w3.org/2000/svg" viewBox="0 0 500 500"><g id="freepik--Floor--inject-428"><polygon points="36.42 444.69 89.82 444.44 143.21 444.36 250 444.19 356.79 444.36 410.18 444.44 463.58 444.69 410.18 444.93 356.79 445.02 250 445.19 143.21 445.02 89.82 444.93 36.42 444.69" style="fill:#263238"></polygon></g><g id="freepik--Cloud--inject-428"><path d="M328.18,111a16.43,16.43,0,0,0,15.21,16.38v0h93a19.3,19.3,0,0,0,1.81-38.52,32.52,32.52,0,0,0-63-10.18,19.3,19.3,0,0,0-27.9,16.07,16.78,16.78,0,0,0-2.67-.22A16.44,16.44,0,0,0,328.18,111Z" style="fill:#FFC727"></path><path d="M328.18,111a16.43,16.43,0,0,0,15.21,16.38v0h93a19.3,19.3,0,0,0,1.81-38.52,32.52,32.52,0,0,0-63-10.18,19.3,19.3,0,0,0-27.9,16.07,16.78,16.78,0,0,0-2.67-.22A16.44,16.44,0,0,0,328.18,111Z" style="opacity:0.1"></path><path d="M318.91,111a16.43,16.43,0,0,0,15.2,16.38v0h93a19.3,19.3,0,0,0,1.8-38.52,32.52,32.52,0,0,0-63-10.18,19.08,19.08,0,0,0-8.63-2A19.31,19.31,0,0,0,338,94.79a16.68,16.68,0,0,0-2.67-.22A16.43,16.43,0,0,0,318.91,111Z" style="fill:#FFC727"></path><path d="M376.24,127.42h22.13a0,0,0,0,1,0,0v17.67a4.46,4.46,0,0,1-4.46,4.46H380.7a4.46,4.46,0,0,1-4.46-4.46V127.42A0,0,0,0,1,376.24,127.42Z" style="fill:#37474f"></path><rect x="382.08" y="149.55" width="10.46" height="3.23" style="fill:#455a64"></rect><path d="M385.37,142.07a2,2,0,1,1-2-2A2,2,0,0,1,385.37,142.07Z" style="fill:#fff"></path><path d="M393.24,142.07a2,2,0,1,1-2-2A2,2,0,0,1,393.24,142.07Z" style="fill:#FFC727"></path><polygon points="388.43 130.62 386.04 134.18 387.23 134.18 386.04 137.25 388.58 133.55 387.26 133.55 388.43 130.62" style="fill:#fff"></polygon><path d="M382.68,311.28H348v-3h34.65a3.13,3.13,0,0,0,3.13-3.13V152.79h3V305.15A6.14,6.14,0,0,1,382.68,311.28Z" style="fill:#FFC727"></path></g><g id="freepik--Server--inject-428"><rect x="164.57" y="198.91" width="65.18" height="245.78" style="fill:#263238"></rect><rect x="229.75" y="198.91" width="119.96" height="245.78" style="fill:#37474f"></rect><rect x="238.75" y="412.81" width="103.47" height="23.89" style="fill:#37474f"></rect><rect x="243.1" y="416.76" width="58.89" height="2.02" style="fill:#455a64"></rect><rect x="243.1" y="420.25" width="58.89" height="2.02" style="fill:#455a64"></rect><rect x="243.1" y="423.75" width="58.89" height="2.02" style="fill:#455a64"></rect><rect x="243.1" y="427.25" width="58.89" height="2.02" style="fill:#455a64"></rect><rect x="243.1" y="430.74" width="58.89" height="2.02" style="fill:#455a64"></rect><circle cx="310.73" cy="418.76" r="2" style="fill:#FFC727"></circle><path d="M319.33,418.76a2,2,0,1,1-2-2A2,2,0,0,1,319.33,418.76Z" style="fill:#FFC727"></path><path d="M325.92,418.76a2,2,0,1,1-2-2A2,2,0,0,1,325.92,418.76Z" style="fill:#FFC727"></path><circle cx="330.51" cy="418.76" r="2" style="fill:#ebebeb"></circle><path d="M339.11,418.76a2,2,0,1,1-2-2A2,2,0,0,1,339.11,418.76Z" style="fill:#FFC727"></path><path d="M312.73,424.76a2,2,0,1,1-2-2A2,2,0,0,1,312.73,424.76Z" style="fill:#ebebeb"></path><path d="M319.33,424.76a2,2,0,1,1-2-2A2,2,0,0,1,319.33,424.76Z" style="fill:#FFC727"></path><path d="M325.92,424.76a2,2,0,1,1-2-2A2,2,0,0,1,325.92,424.76Z" style="fill:#FFC727"></path><path d="M332.51,424.76a2,2,0,1,1-2-2A2,2,0,0,1,332.51,424.76Z" style="fill:#ebebeb"></path><path d="M339.11,424.76a2,2,0,1,1-2-2A2,2,0,0,1,339.11,424.76Z" style="fill:#ebebeb"></path><circle cx="310.73" cy="430.76" r="2" style="fill:#FFC727"></circle><path d="M319.33,430.76a2,2,0,1,1-2-2A2,2,0,0,1,319.33,430.76Z" style="fill:#ebebeb"></path><path d="M325.92,430.76a2,2,0,1,1-2-2A2,2,0,0,1,325.92,430.76Z" style="fill:#FFC727"></path><circle cx="330.51" cy="430.76" r="2" style="fill:#FFC727"></circle><path d="M339.11,430.76a2,2,0,1,1-2-2A2,2,0,0,1,339.11,430.76Z" style="fill:#FFC727"></path><rect x="304.94" y="416.76" width="1.15" height="16" style="fill:#263238"></rect><rect x="238.75" y="384.01" width="103.47" height="23.89" style="fill:#37474f"></rect><rect x="243.1" y="387.96" width="58.89" height="2.02" style="fill:#455a64"></rect><rect x="243.1" y="391.46" width="58.89" height="2.02" style="fill:#455a64"></rect><rect x="243.1" y="394.95" width="58.89" height="2.02" style="fill:#455a64"></rect><rect x="243.1" y="398.45" width="58.89" height="2.02" style="fill:#455a64"></rect><rect x="243.1" y="401.94" width="58.89" height="2.02" style="fill:#455a64"></rect><path d="M312.73,390a2,2,0,1,1-2-2A2,2,0,0,1,312.73,390Z" style="fill:#ebebeb"></path><path d="M319.33,390a2,2,0,1,1-2-2A2,2,0,0,1,319.33,390Z" style="fill:#FFC727"></path><path d="M325.92,390a2,2,0,1,1-2-2A2,2,0,0,1,325.92,390Z" style="fill:#FFC727"></path><path d="M332.51,390a2,2,0,1,1-2-2A2,2,0,0,1,332.51,390Z" style="fill:#ebebeb"></path><path d="M339.11,390a2,2,0,1,1-2-2A2,2,0,0,1,339.11,390Z" style="fill:#FFC727"></path><path d="M312.73,396a2,2,0,1,1-2-2A2,2,0,0,1,312.73,396Z" style="fill:#FFC727"></path><path d="M319.33,396a2,2,0,1,1-2-2A2,2,0,0,1,319.33,396Z" style="fill:#FFC727"></path><path d="M325.92,396a2,2,0,1,1-2-2A2,2,0,0,1,325.92,396Z" style="fill:#ebebeb"></path><path d="M332.51,396a2,2,0,1,1-2-2A2,2,0,0,1,332.51,396Z" style="fill:#ebebeb"></path><path d="M339.11,396a2,2,0,1,1-2-2A2,2,0,0,1,339.11,396Z" style="fill:#FFC727"></path><path d="M312.73,402a2,2,0,1,1-2-2A2,2,0,0,1,312.73,402Z" style="fill:#FFC727"></path><path d="M319.33,402a2,2,0,1,1-2-2A2,2,0,0,1,319.33,402Z" style="fill:#ebebeb"></path><path d="M325.92,402a2,2,0,1,1-2-2A2,2,0,0,1,325.92,402Z" style="fill:#FFC727"></path><path d="M332.51,402a2,2,0,1,1-2-2A2,2,0,0,1,332.51,402Z" style="fill:#FFC727"></path><path d="M339.11,402a2,2,0,1,1-2-2A2,2,0,0,1,339.11,402Z" style="fill:#ebebeb"></path><rect x="304.94" y="387.96" width="1.15" height="16" style="fill:#263238"></rect><rect x="238.75" y="355.21" width="103.47" height="23.89" style="fill:#37474f"></rect><rect x="243.1" y="359.16" width="58.89" height="2.02" style="fill:#455a64"></rect><rect x="243.1" y="362.66" width="58.89" height="2.02" style="fill:#455a64"></rect><rect x="243.1" y="366.15" width="58.89" height="2.02" style="fill:#455a64"></rect><rect x="243.1" y="369.65" width="58.89" height="2.02" style="fill:#455a64"></rect><rect x="243.1" y="373.15" width="58.89" height="2.02" style="fill:#455a64"></rect><circle cx="310.73" cy="361.16" r="2" style="fill:#ebebeb"></circle><path d="M319.33,361.16a2,2,0,1,1-2-2A2,2,0,0,1,319.33,361.16Z" style="fill:#FFC727"></path><path d="M325.92,361.16a2,2,0,1,1-2-2A2,2,0,0,1,325.92,361.16Z" style="fill:#ebebeb"></path><circle cx="330.51" cy="361.16" r="2" style="fill:#FFC727"></circle><path d="M339.11,361.16a2,2,0,1,1-2-2A2,2,0,0,1,339.11,361.16Z" style="fill:#FFC727"></path><path d="M312.73,367.16a2,2,0,1,1-2-2A2,2,0,0,1,312.73,367.16Z" style="fill:#FFC727"></path><path d="M319.33,367.16a2,2,0,1,1-2-2A2,2,0,0,1,319.33,367.16Z" style="fill:#ebebeb"></path><path d="M325.92,367.16a2,2,0,1,1-2-2A2,2,0,0,1,325.92,367.16Z" style="fill:#ebebeb"></path><path d="M332.51,367.16a2,2,0,1,1-2-2A2,2,0,0,1,332.51,367.16Z" style="fill:#FFC727"></path><path d="M339.11,367.16a2,2,0,1,1-2-2A2,2,0,0,1,339.11,367.16Z" style="fill:#ebebeb"></path><path d="M312.73,373.16a2,2,0,1,1-2-2A2,2,0,0,1,312.73,373.16Z" style="fill:#ebebeb"></path><path d="M319.33,373.16a2,2,0,1,1-2-2A2,2,0,0,1,319.33,373.16Z" style="fill:#FFC727"></path><path d="M325.92,373.16a2,2,0,1,1-2-2A2,2,0,0,1,325.92,373.16Z" style="fill:#FFC727"></path><path d="M332.51,373.16a2,2,0,1,1-2-2A2,2,0,0,1,332.51,373.16Z" style="fill:#ebebeb"></path><path d="M339.11,373.16a2,2,0,1,1-2-2A2,2,0,0,1,339.11,373.16Z" style="fill:#FFC727"></path><rect x="304.94" y="359.16" width="1.15" height="16" style="fill:#263238"></rect><rect x="238.75" y="326.42" width="103.47" height="23.89" style="fill:#37474f"></rect><rect x="243.1" y="330.36" width="58.89" height="2.02" style="fill:#455a64"></rect><rect x="243.1" y="333.86" width="58.89" height="2.02" style="fill:#455a64"></rect><rect x="243.1" y="337.35" width="58.89" height="2.02" style="fill:#455a64"></rect><rect x="243.1" y="340.85" width="58.89" height="2.02" style="fill:#455a64"></rect><rect x="243.1" y="344.35" width="58.89" height="2.02" style="fill:#455a64"></rect><path d="M312.73,332.36a2,2,0,1,1-2-2A2,2,0,0,1,312.73,332.36Z" style="fill:#FFC727"></path><path d="M319.33,332.36a2,2,0,1,1-2-2A2,2,0,0,1,319.33,332.36Z" style="fill:#FFC727"></path><path d="M325.92,332.36a2,2,0,1,1-2-2A2,2,0,0,1,325.92,332.36Z" style="fill:#FFC727"></path><path d="M332.51,332.36a2,2,0,1,1-2-2A2,2,0,0,1,332.51,332.36Z" style="fill:#FFC727"></path><path d="M339.11,332.36a2,2,0,1,1-2-2A2,2,0,0,1,339.11,332.36Z" style="fill:#ebebeb"></path><circle cx="310.73" cy="338.36" r="2" style="fill:#ebebeb"></circle><path d="M319.33,338.36a2,2,0,1,1-2-2A2,2,0,0,1,319.33,338.36Z" style="fill:#ebebeb"></path><path d="M325.92,338.36a2,2,0,1,1-2-2A2,2,0,0,1,325.92,338.36Z" style="fill:#FFC727"></path><circle cx="330.51" cy="338.36" r="2" style="fill:#ebebeb"></circle><path d="M339.11,338.36a2,2,0,1,1-2-2A2,2,0,0,1,339.11,338.36Z" style="fill:#FFC727"></path><path d="M312.73,344.36a2,2,0,1,1-2-2A2,2,0,0,1,312.73,344.36Z" style="fill:#FFC727"></path><path d="M319.33,344.36a2,2,0,1,1-2-2A2,2,0,0,1,319.33,344.36Z" style="fill:#FFC727"></path><path d="M325.92,344.36a2,2,0,1,1-2-2A2,2,0,0,1,325.92,344.36Z" style="fill:#ebebeb"></path><path d="M332.51,344.36a2,2,0,1,1-2-2A2,2,0,0,1,332.51,344.36Z" style="fill:#FFC727"></path><path d="M339.11,344.36a2,2,0,1,1-2-2A2,2,0,0,1,339.11,344.36Z" style="fill:#ebebeb"></path><rect x="304.94" y="330.36" width="1.15" height="16" style="fill:#263238"></rect><rect x="238.75" y="297.62" width="103.47" height="23.89" style="fill:#37474f"></rect><rect x="243.1" y="301.56" width="58.89" height="2.02" style="fill:#455a64"></rect><rect x="243.1" y="305.06" width="58.89" height="2.02" style="fill:#455a64"></rect><rect x="243.1" y="308.56" width="58.89" height="2.02" style="fill:#455a64"></rect><rect x="243.1" y="312.05" width="58.89" height="2.02" style="fill:#455a64"></rect><rect x="243.1" y="315.55" width="58.89" height="2.02" style="fill:#455a64"></rect><path d="M312.73,303.56a2,2,0,1,1-2-2A2,2,0,0,1,312.73,303.56Z" style="fill:#FFC727"></path><path d="M319.33,303.56a2,2,0,1,1-2-2A2,2,0,0,1,319.33,303.56Z" style="fill:#FFC727"></path><path d="M325.92,303.56a2,2,0,1,1-2-2A2,2,0,0,1,325.92,303.56Z" style="fill:#FFC727"></path><path d="M332.51,303.56a2,2,0,1,1-2-2A2,2,0,0,1,332.51,303.56Z" style="fill:#FFC727"></path><path d="M339.11,303.56a2,2,0,1,1-2-2A2,2,0,0,1,339.11,303.56Z" style="fill:#ebebeb"></path><path d="M312.73,309.56a2,2,0,1,1-2-2A2,2,0,0,1,312.73,309.56Z" style="fill:#ebebeb"></path><path d="M319.33,309.56a2,2,0,1,1-2-2A2,2,0,0,1,319.33,309.56Z" style="fill:#FFC727"></path><path d="M325.92,309.56a2,2,0,1,1-2-2A2,2,0,0,1,325.92,309.56Z" style="fill:#FFC727"></path><path d="M332.51,309.56a2,2,0,1,1-2-2A2,2,0,0,1,332.51,309.56Z" style="fill:#ebebeb"></path><path d="M339.11,309.56a2,2,0,1,1-2-2A2,2,0,0,1,339.11,309.56Z" style="fill:#FFC727"></path><path d="M312.73,315.56a2,2,0,1,1-2-2A2,2,0,0,1,312.73,315.56Z" style="fill:#ebebeb"></path><path d="M319.33,315.56a2,2,0,1,1-2-2A2,2,0,0,1,319.33,315.56Z" style="fill:#ebebeb"></path><path d="M325.92,315.56a2,2,0,1,1-2-2A2,2,0,0,1,325.92,315.56Z" style="fill:#FFC727"></path><path d="M332.51,315.56a2,2,0,1,1-2-2A2,2,0,0,1,332.51,315.56Z" style="fill:#FFC727"></path><path d="M339.11,315.56a2,2,0,1,1-2-2A2,2,0,0,1,339.11,315.56Z" style="fill:#ebebeb"></path><rect x="304.94" y="301.56" width="1.15" height="16" style="fill:#263238"></rect><rect x="238.75" y="268.82" width="103.47" height="23.89" style="fill:#37474f"></rect><rect x="243.1" y="272.77" width="58.89" height="2.02" style="fill:#455a64"></rect><rect x="243.1" y="276.26" width="58.89" height="2.02" style="fill:#455a64"></rect><rect x="243.1" y="279.76" width="58.89" height="2.02" style="fill:#455a64"></rect><rect x="243.1" y="283.25" width="58.89" height="2.02" style="fill:#455a64"></rect><rect x="243.1" y="286.75" width="58.89" height="2.02" style="fill:#455a64"></rect><path d="M312.73,274.77a2,2,0,1,1-2-2A2,2,0,0,1,312.73,274.77Z" style="fill:#ebebeb"></path><path d="M319.33,274.77a2,2,0,1,1-2-2A2,2,0,0,1,319.33,274.77Z" style="fill:#FFC727"></path><path d="M325.92,274.77a2,2,0,1,1-2-2A2,2,0,0,1,325.92,274.77Z" style="fill:#FFC727"></path><path d="M332.51,274.77a2,2,0,1,1-2-2A2,2,0,0,1,332.51,274.77Z" style="fill:#ebebeb"></path><path d="M339.11,274.77a2,2,0,1,1-2-2A2,2,0,0,1,339.11,274.77Z" style="fill:#FFC727"></path><path d="M312.73,280.77a2,2,0,1,1-2-2A2,2,0,0,1,312.73,280.77Z" style="fill:#FFC727"></path><path d="M319.33,280.77a2,2,0,1,1-2-2A2,2,0,0,1,319.33,280.77Z" style="fill:#ebebeb"></path><path d="M325.92,280.77a2,2,0,1,1-2-2A2,2,0,0,1,325.92,280.77Z" style="fill:#FFC727"></path><path d="M332.51,280.77a2,2,0,1,1-2-2A2,2,0,0,1,332.51,280.77Z" style="fill:#FFC727"></path><path d="M339.11,280.77a2,2,0,1,1-2-2A2,2,0,0,1,339.11,280.77Z" style="fill:#ebebeb"></path><path d="M312.73,286.77a2,2,0,1,1-2-2A2,2,0,0,1,312.73,286.77Z" style="fill:#FFC727"></path><path d="M319.33,286.77a2,2,0,1,1-2-2A2,2,0,0,1,319.33,286.77Z" style="fill:#FFC727"></path><path d="M325.92,286.77a2,2,0,1,1-2-2A2,2,0,0,1,325.92,286.77Z" style="fill:#ebebeb"></path><path d="M332.51,286.77a2,2,0,1,1-2-2A2,2,0,0,1,332.51,286.77Z" style="fill:#ebebeb"></path><path d="M339.11,286.77a2,2,0,1,1-2-2A2,2,0,0,1,339.11,286.77Z" style="fill:#FFC727"></path><rect x="304.94" y="272.77" width="1.15" height="16" style="fill:#263238"></rect><rect x="238.75" y="211.22" width="103.47" height="23.89" style="fill:#455a64"></rect><rect x="248.39" y="220.53" width="52.47" height="5.27" style="fill:#fff"></rect><rect x="248.39" y="220.53" width="32.17" height="5.27" style="fill:#FFC727"></rect><path d="M313.64,223.17a2.78,2.78,0,1,1-2.78-2.78A2.78,2.78,0,0,1,313.64,223.17Z" style="fill:#FFC727"></path><path d="M324.28,223.17a2.78,2.78,0,1,1-2.78-2.78A2.78,2.78,0,0,1,324.28,223.17Z" style="fill:#fff"></path><path d="M334.92,223.17a2.78,2.78,0,1,1-2.77-2.78A2.78,2.78,0,0,1,334.92,223.17Z" style="fill:#fff"></path><rect x="238.75" y="240.02" width="103.47" height="23.89" style="fill:#455a64"></rect><rect x="248.39" y="249.33" width="52.47" height="5.27" style="fill:#fff"></rect><rect x="248.39" y="249.33" width="42.08" height="5.27" style="fill:#FFC727"></rect><path d="M313.64,252a2.78,2.78,0,1,1-2.78-2.78A2.77,2.77,0,0,1,313.64,252Z" style="fill:#FFC727"></path><path d="M324.28,252a2.78,2.78,0,1,1-2.78-2.78A2.77,2.77,0,0,1,324.28,252Z" style="fill:#fff"></path><path d="M334.92,252a2.78,2.78,0,1,1-2.77-2.78A2.77,2.77,0,0,1,334.92,252Z" style="fill:#fff"></path><rect x="238.75" y="268.82" width="103.47" height="23.89" style="fill:#455a64"></rect><rect x="248.39" y="278.13" width="52.47" height="5.27" style="fill:#fff"></rect><rect x="248.39" y="278.13" width="8.85" height="5.27" style="fill:#FFC727"></rect><path d="M313.64,280.77a2.78,2.78,0,1,1-2.78-2.78A2.77,2.77,0,0,1,313.64,280.77Z" style="fill:#FFC727"></path><path d="M324.28,280.77A2.78,2.78,0,1,1,321.5,278,2.77,2.77,0,0,1,324.28,280.77Z" style="fill:#fff"></path><path d="M334.92,280.77a2.78,2.78,0,1,1-2.77-2.78A2.77,2.77,0,0,1,334.92,280.77Z" style="fill:#fff"></path><rect x="238.75" y="297.62" width="103.47" height="23.89" style="fill:#455a64"></rect><rect x="248.39" y="306.93" width="52.47" height="5.27" style="fill:#fff"></rect><rect x="248.39" y="306.93" width="32.17" height="5.27" style="fill:#FFC727"></rect><path d="M313.64,309.56a2.78,2.78,0,1,1-2.78-2.77A2.77,2.77,0,0,1,313.64,309.56Z" style="fill:#FFC727"></path><path d="M324.28,309.56a2.78,2.78,0,1,1-2.78-2.77A2.77,2.77,0,0,1,324.28,309.56Z" style="fill:#fff"></path><path d="M334.92,309.56a2.78,2.78,0,1,1-2.77-2.77A2.77,2.77,0,0,1,334.92,309.56Z" style="fill:#fff"></path><rect x="238.75" y="326.42" width="103.47" height="23.89" style="fill:#455a64"></rect><rect x="248.39" y="335.73" width="52.47" height="5.27" style="fill:#fff"></rect><rect x="248.39" y="335.73" width="43.73" height="5.27" style="fill:#FFC727"></rect><path d="M313.64,338.36a2.78,2.78,0,1,1-2.78-2.77A2.77,2.77,0,0,1,313.64,338.36Z" style="fill:#FFC727"></path><path d="M324.28,338.36a2.78,2.78,0,1,1-2.78-2.77A2.77,2.77,0,0,1,324.28,338.36Z" style="fill:#fff"></path><path d="M334.92,338.36a2.78,2.78,0,1,1-2.77-2.77A2.77,2.77,0,0,1,334.92,338.36Z" style="fill:#fff"></path><rect x="238.75" y="355.21" width="103.47" height="23.89" style="fill:#455a64"></rect><rect x="248.39" y="364.53" width="52.47" height="5.27" style="fill:#fff"></rect><rect x="248.39" y="364.53" width="35.91" height="5.27" style="fill:#FFC727"></rect><path d="M313.64,367.16a2.78,2.78,0,1,1-2.78-2.78A2.78,2.78,0,0,1,313.64,367.16Z" style="fill:#FFC727"></path><path d="M324.28,367.16a2.78,2.78,0,1,1-2.78-2.78A2.78,2.78,0,0,1,324.28,367.16Z" style="fill:#fff"></path><path d="M334.92,367.16a2.78,2.78,0,1,1-2.77-2.78A2.78,2.78,0,0,1,334.92,367.16Z" style="fill:#fff"></path><rect x="238.75" y="384.01" width="103.47" height="23.89" style="fill:#455a64"></rect><rect x="248.39" y="393.33" width="52.47" height="5.27" style="fill:#fff"></rect><rect x="248.39" y="393.33" width="18.97" height="5.27" style="fill:#FFC727"></rect><path d="M313.64,396a2.78,2.78,0,1,1-2.78-2.78A2.78,2.78,0,0,1,313.64,396Z" style="fill:#FFC727"></path><path d="M324.28,396a2.78,2.78,0,1,1-2.78-2.78A2.78,2.78,0,0,1,324.28,396Z" style="fill:#fff"></path><path d="M334.92,396a2.78,2.78,0,1,1-2.77-2.78A2.78,2.78,0,0,1,334.92,396Z" style="fill:#fff"></path><rect x="238.75" y="412.81" width="103.47" height="23.89" style="fill:#455a64"></rect><rect x="248.39" y="422.12" width="52.47" height="5.27" style="fill:#fff"></rect><rect x="248.39" y="422.12" width="37.19" height="5.27" style="fill:#FFC727"></rect><path d="M313.64,424.76a2.78,2.78,0,1,1-2.78-2.78A2.78,2.78,0,0,1,313.64,424.76Z" style="fill:#FFC727"></path><path d="M324.28,424.76A2.78,2.78,0,1,1,321.5,422,2.78,2.78,0,0,1,324.28,424.76Z" style="fill:#fff"></path><path d="M334.92,424.76a2.78,2.78,0,1,1-2.77-2.78A2.78,2.78,0,0,1,334.92,424.76Z" style="fill:#fff"></path><rect x="188.95" y="191.33" width="136.39" height="7.58" style="fill:#263238"></rect></g><g id="freepik--Folder--inject-428"><polygon points="348.27 444.69 442.05 444.69 431.79 379.86 338 379.86 348.27 444.69" style="fill:#FFC727"></polygon><polygon points="397.58 373.14 430.72 373.14 431.79 379.86 396.74 379.86 397.58 373.14" style="fill:#FFC727"></polygon><g style="opacity:0.1"><polygon points="348.27 444.69 442.05 444.69 431.79 379.86 338 379.86 348.27 444.69"></polygon><polygon points="397.58 373.14 430.72 373.14 431.79 379.86 396.74 379.86 397.58 373.14"></polygon></g><polygon points="348.22 444.69 442.01 444.69 449.24 385.24 355.46 385.24 348.22 444.69" style="fill:#FFC727"></polygon><polygon points="416.85 379.08 449.99 379.08 449.24 385.24 414.2 385.24 416.85 379.08" style="fill:#FFC727"></polygon></g><g id="freepik--Character--inject-428"><path d="M94,444.51c2.27.74,68.71.13,71.16-1.45.94-.59-4-63.58-4-63.58l-42.27.27,4.4,42.15s-24.66,11.31-27.16,13.34S91.73,443.78,94,444.51Z" style="fill:#f7a9a0"></path><path d="M94,444.51c2.26.73,68.71.13,71.15-1.46.3-.18.47-6.56-.48-14.9-12.07,1.87-55.15,7.93-58.47,5.92-2.32-1.4-.23-3.52,1.7-4.94-5.52,2.67-10.68,5.24-11.74,6.11C93.67,437.26,91.74,443.78,94,444.51Z" style="fill:#FFC727"></path><path d="M126.5,444.69c18.15-.23,37.37-.8,38.66-1.64.29-.17.46-6.56-.5-14.9-4,.62-11.45,1.71-19.72,2.8Z" style="fill:#020100;opacity:0.1"></path><path d="M120,411.77H166.6s-8.77-99.18-8.4-101.08c.46-2.43,3.21-13.44,6.87-27.83,1.15-4.5,2.39-9.33,3.68-14.34,3.47-13.53,7.3-28.32,10.63-41.2,5-19.28,8.92-34.26,8.92-34.26H148.82s-4.6,14.59-10.4,33.56c-9.45,30.84-22.07,73.29-23.32,83.61C113.08,326.89,120,411.77,120,411.77Z" style="fill:#455a64"></path><path d="M122.08,403.82c7.12-.14,5.07-.2,12.19-.27,3.48,0,26.36-.23,29.61.3a.08.08,0,0,1,0,.15c-3.25.54-26.13.34-29.61.31-7.12-.07-5.07-.13-12.19-.28C122,404,122,403.83,122.08,403.82Z" style="fill:#263238"></path><path d="M149.43,304c1.53-6.73,3.81-13.33,5.8-19.94q6.06-20.14,12.18-40.27,3.06-10.07,6.15-20.11,1.56-5.08,3.14-10.15c1-3.31,2.22-6.58,3.15-9.92.38-1.36.59-.61.1,1.11-1,3.48-1.95,7-3,10.42q-3,10.29-6.06,20.58-6.06,20.48-12.22,40.91-3.08,10.24-6.16,20.5a80.82,80.82,0,0,0-2.52,9.91,45.38,45.38,0,0,0-.41,10.61c.44,7.13,1.27,14.24,1.93,21.35s1.32,14.25,2,21.38c1.32,14.18,2,18.74,3.3,32.93.16,1.79.32,3.59.45,5.39,0,.6-.86.56-.92,0-1.54-14-2.1-18.48-3.42-32.52L149,324.28c-.32-3.51-.7-7-.7-10.55A43.93,43.93,0,0,1,149.43,304Z" style="fill:#263238"></path><path d="M153.3,193.06c2.74,21.2,8,61,11.77,89.8,8.91-35,23.23-89.8,23.23-89.8Z" style="fill:#263238"></path><path d="M140.14,445.28c2.27.74,68.71.14,71.16-1.45.94-.59-1-63.58-1-63.58l-42.28.28,1.48,42.15S144.81,434,142.3,436,137.88,444.55,140.14,445.28Z" style="fill:#f7a9a0"></path><path d="M140.14,445.28c2.27.74,68.71.14,71.16-1.45.29-.18.3-6.4.18-14.9-12.07,1.87-55.82,7.93-59.14,5.92-2.32-1.4-.23-3.52,1.71-4.94-5.53,2.67-10.68,5.23-11.75,6.11C139.81,438,137.88,444.56,140.14,445.28Z" style="fill:#FFC727"></path><path d="M150.1,193.06s.91,18.89,5.23,33.85c.35,1.24.72,2.45,1.13,3.62a70,70,0,0,1,11.38,5.85s.45,15.19.91,32.14c.5,19-2.44,40.08-2.54,44.57-.4,16.77,1.64,98.49,1.64,98.49l46.57.19s-8-92.49-7.91-98.64c.09-9.87-3.38-78.57-2.8-80.11,7.5-19.6-2.41-40-2.41-40Z" style="fill:#455a64"></path><path d="M169.45,403.3c7.11-.12,5.07-.19,12.18-.22,3.48,0,26.37-.13,29.62.43a.07.07,0,0,1,0,.14c-3.26.53-26.14.23-29.62.18-7.12-.1-5.07-.15-12.18-.32A.11.11,0,1,1,169.45,403.3Z" style="fill:#263238"></path><path d="M154.52,229.41a85.56,85.56,0,0,1,13.31,7,.15.15,0,0,1-.13.27c-4.5-2.18-9.08-4.28-13.45-6.71A.3.3,0,0,1,154.52,229.41Z" style="fill:#263238"></path><path d="M161.53,223.07q-.21-3.19-.49-6.39c-.43-4.85-.93-9.72-1.78-14.51-.07-.38-.6-.24-.57.12.33,3.77.76,7.53,1.11,11.3s.81,7.52.87,11.26c0,1.13,0,3.05-1.44,3.36-1.86.42-2.74-2-3.19-3.36a62.33,62.33,0,0,1-2.34-10.27c-.61-4-.94-8-1.32-11.94,0-.15-.25-.12-.25,0,0,7.9.09,16.17,3,23.63.58,1.45,1.58,2.93,3.27,3.13h.08a.32.32,0,0,0,0,.14c0,.22.09.44.13.66s.07.37.11.55c.08.38.14.77.23,1.15a.29.29,0,0,0,.58-.06.26.26,0,0,0,.16-.24,6.19,6.19,0,0,0-.51-2.23,2.81,2.81,0,0,0,2-1.72C161.86,226.24,161.63,224.58,161.53,223.07Z" style="fill:#263238"></path><path d="M199,233a87.71,87.71,0,0,1,2-9.71c1.72-7.23.56-17.07-1.3-24.14,0-.19.26-.26.32-.07,1.86,6,3.21,14.72,2.48,21-.34,3-2.76,12.14-2.68,15.4.15,6.43-.36,61.26.07,83.65.28,14.69,3.33,63.95,3.79,78.64,0,.13-.22.13-.23,0-1.7-26.18-3.92-52.93-4.27-78.59C198.87,294.29,198.57,236.59,199,233Z" style="fill:#263238"></path><path d="M176,200.78c.2,2.25.29,4.51.62,6.75a9,9,0,0,0,2.52,5.46,13.37,13.37,0,0,0,5.24,3c2.56.77,10.34.78,13,.4.67-.09.61.42-.65.7a79.28,79.28,0,0,1-8.59.62,19,19,0,0,1-4.19-.29,11.79,11.79,0,0,1-6.07-3.16,9.79,9.79,0,0,1-2.5-6.12,36.84,36.84,0,0,1,.28-7.35C175.68,200.59,176,200.6,176,200.78Z" style="fill:#263238"></path><path d="M203.73,113.36c.74,3.66,1.5,7.33,2.1,11,.37,2.25.6,4.5.76,6.76a14,14,0,0,1-2.22,2.51c0-.57-.08-1.14-.12-1.7-.18-2.71-.59-5.35-1-8,0-.09-.13-.05-.12,0,.36,2.75.52,5.57.66,8.35,0,.6,0,1.21,0,1.82a20.34,20.34,0,0,1-2.5,1.78c0-.66,0-1.33-.07-2-.06-1.54-.15-3.07-.28-4.6a87.17,87.17,0,0,0-1.26-9c0-.12-.17-.06-.16.06.41,3.08.72,6.19.94,9.29.1,1.47.18,3,.23,4.42,0,.71,0,1.42,0,2.14a31.11,31.11,0,0,1-5,2.26c-4.94,1.76-10.4,1.68-15.52.89a26.89,26.89,0,0,1-12.46-5.22,29.58,29.58,0,0,0,2.4-7.65c0-.09-.08-.12-.11,0q-.81,2.55-1.81,5c-.31.77-.66,1.52-1,2.27l-.17-.14c-.36-.29-.74-.61-1.11-.95a47.74,47.74,0,0,0,1.69-4.79,43,43,0,0,0,1.64-7c0-.16-.16-.22-.21-.07-.67,2.24-1.29,4.51-2,6.74-.5,1.57-1.09,3.11-1.62,4.66a6.17,6.17,0,0,1-2.07-4.17,12.1,12.1,0,0,1,.94-4c.48-1.44.89-2.92,1.23-4.42a50,50,0,0,0,1.24-9.47c.1-3-.24-6-.09-8.91A11.06,11.06,0,0,1,169,94.43a10.55,10.55,0,0,1,4.7-3.13c0-.07,8.36-9.17,20.07-4.45,9.56,3.86,15,34,15,37a12.67,12.67,0,0,1-1.65,6.35c-.15-1.91-.43-3.81-.73-5.65-.63-3.82-1.58-7.53-2.56-11.25C203.85,113.19,203.7,113.24,203.73,113.36Z" style="fill:#263238"></path><path d="M182,139.31c-17.84,15.78-37.5,26.51-44.83,23.63s-23.52-29.63-24.28-37.74c-.33-3.5,19.67-17.59,21.67-14.42,2.36,3.74,11.42,26,13,27.64,1.18,1.18,17.8-5.82,30.44-9.63C186.06,126.36,191.35,131,182,139.31Z" style="fill:#f7a9a0"></path><path d="M166,154l-2.62-20.85A156.81,156.81,0,0,1,179,128c7.61-1.75,11.65.64,6,8.4C181.29,141.61,166,154,166,154Z" style="fill:#FFC727"></path><path d="M165.47,132.34a7.54,7.54,0,0,0-.29,1.6,7.83,7.83,0,0,0,1-1.86Zm18.32,4.81a8.76,8.76,0,0,0-1.33-2.12,9,9,0,0,0,.74,2.38c.13.26.25.52.4.77.15-.17.3-.33.42-.48C183.94,137.5,183.86,137.33,183.79,137.15Z" style="fill:#fff"></path><path d="M167.72,151.61c-.17-3.07-.38-6.12-.73-9.16-.18-1.52-.38-3-.6-4.55s-.6-3-.79-4.52c0-.08-.15-.06-.13,0,.28,1.5.35,3,.55,4.56s.38,3,.56,4.56c.36,3,.72,6.07,1,9.11C167.6,151.71,167.73,151.69,167.72,151.61Z" style="fill:#263238"></path><path d="M185.05,136.42c-3.76,5.19-19,17.55-19,17.55l-1.84-14.57,22.56-11C188.29,129.68,188,132.29,185.05,136.42Z" style="fill:#020100;opacity:0.1"></path><path d="M103.44,114.43c2.33,5.08,11.16,13.61,14.08,14.85s17.91-13.28,17.55-16.52S125.55,93,120.45,90.47,101,109.17,103.44,114.43Z" style="fill:#f7a9a0"></path><path d="M134,109.68a46.56,46.56,0,0,1,1.32-13.42c1.48-5.17,4.26-12.69,1.51-13.59-5.65-1.85-12.59,16.9-12.59,16.9s-1.73,8.77,3.71,11.1A5.86,5.86,0,0,0,134,109.68Z" style="fill:#f7a9a0"></path><path d="M127.5,96c-.34,2.94-3.61.86-3.61.86s4,4.13,2.47,7-5.34.14-5.62-.05c.21.22,3.77,4.11,2,6.87s-5.33-.47-5.55-.69c.13.27,1.82,3.87,0,5.65-3.21,3-7.78-6-11.22-7,0,0-2.34,5.65-2.44,5.8,0,0-4.52-8.55-2.94-13.13a3.1,3.1,0,0,1,3.25-2.11s-1.76-2.6-.39-4.81c.71-1.14,3.15-1,3.15-1a3.87,3.87,0,0,1,0-4c1.06-1.51,3.35-1.16,3.35-1.16s-.32-2.64,1.27-3.83C114.36,81.92,128.21,89.68,127.5,96Z" style="fill:#f7a9a0"></path><path d="M110.25,88.17s0-.09,0-.07a27.54,27.54,0,0,1,13.8,8.84c.11.13-.07.37-.22.24A56.77,56.77,0,0,0,110.25,88.17Z" style="fill:#263238"></path><path d="M106.46,93.3c-.06,0,0-.12.05-.1A25.75,25.75,0,0,1,121,103.78c.12.18,0,.46-.11.26C118.38,100.66,111.13,95.42,106.46,93.3Z" style="fill:#263238"></path><path d="M117.24,110.46c-3.37-5-8-8.4-13.26-11.22-.07,0,0-.13,0-.11,3,.67,6.12,2.82,8.44,4.69a15.89,15.89,0,0,1,5,6.52C117.46,110.44,117.32,110.56,117.24,110.46Z" style="fill:#263238"></path><path d="M124,96.84c.13.16-.26.17-.13.34.53.72,3.38,5.32,2.12,6.78-1,1.17-3.29.61-4.08.05l-2-1.4,1.37,2a9.82,9.82,0,0,1,1.39,2.9,3.51,3.51,0,0,1-.23,2.89,2,2,0,0,1-2.37,1,6.15,6.15,0,0,1-2.58-1.68l-2-2.05,1.23,2.59a9.35,9.35,0,0,1,.74,2.26,3.82,3.82,0,0,1-.14,2.21,1.84,1.84,0,0,1-1.58,1.11,4.07,4.07,0,0,1-2.11-.82,31.91,31.91,0,0,1-3.75-3.28c-.61-.59-1.22-1.17-1.86-1.72a6,6,0,0,0-2.13-1.35,6.32,6.32,0,0,1,2,1.52c.59.59,1.15,1.22,1.72,1.84a26.75,26.75,0,0,0,3.65,3.56,4.81,4.81,0,0,0,2.5,1.07,2.61,2.61,0,0,0,2.39-1.55,4.76,4.76,0,0,0,.25-2.75,10,10,0,0,0-.79-2.53l-.79.54a7.16,7.16,0,0,0,3,2,2.91,2.91,0,0,0,2-.09,3.35,3.35,0,0,0,1.47-1.31,4.45,4.45,0,0,0,.3-3.66A11,11,0,0,0,122,104.1l-.61.61c1,.67,3.5,1.57,5.31,0C128.72,102.22,124.77,97.63,124,96.84Z" style="fill:#263238"></path><path d="M123.89,96.84a6,6,0,0,0,1.77.4,1.37,1.37,0,0,0,1.26-.6,2.72,2.72,0,0,0,.27-1.56q-.06-.9-.21-1.86a4.65,4.65,0,0,1,.85,1.76,2.78,2.78,0,0,1-.21,2.11,2,2,0,0,1-.92.73,2.05,2.05,0,0,1-1.12.06A3.12,3.12,0,0,1,123.89,96.84Z" style="fill:#263238"></path><path d="M158.78,166.38l-11.86,29.88s43.11.91,56.38.77c0,0,8.34-48.46-5-64.74-6.65-8.14-12.45-7.68-18.09-2.6-1.43,1.29-20.28,15.64-22.45,23.65A20.41,20.41,0,0,0,158.78,166.38Z" style="fill:#FFC727"></path><path d="M168.2,164.9a55.81,55.81,0,0,1,8,1.39c1.31.35,2.59.76,3.87,1.19.64.22,1.28.41,1.92.6a8.73,8.73,0,0,0,2.07.41.05.05,0,0,1,0,.1,14.85,14.85,0,0,1-2-.06,13.43,13.43,0,0,1-1.89-.37c-1.33-.34-2.64-.74-4-1.1-2.67-.71-5.34-1.42-8.06-1.93A.12.12,0,0,1,168.2,164.9Z" style="fill:#263238"></path><path d="M161.49,167.24a57.82,57.82,0,0,1,6.71-.26c1.13,0,2.24.11,3.35.23.54,0,1.07.12,1.6.19s1.16.24,1.74.31c.06,0,.06.1,0,.1-.55-.05-1.12,0-1.67,0l-1.68-.06c-1.12,0-2.23-.06-3.35-.11-2.24-.09-4.47-.17-6.71-.18A.1.1,0,0,1,161.49,167.24Z" style="fill:#263238"></path><path d="M181.3,159a8.69,8.69,0,0,0-2.43-.56,8.45,8.45,0,0,0,2.2,1.16,8.54,8.54,0,0,0,2.42.56A8.55,8.55,0,0,0,181.3,159Zm11.22,30.53a8.66,8.66,0,0,0-2.44-.55,9,9,0,0,0,2.21,1.15,8.54,8.54,0,0,0,2.42.56A8.87,8.87,0,0,0,192.52,189.55Zm-29.68-44a2,2,0,0,0-.19.22c.21,0,.41.06.63.07C163.13,145.69,163,145.6,162.84,145.51Zm6.55,44A8.6,8.6,0,0,0,167,189a8.72,8.72,0,0,0,2.2,1.15,8.54,8.54,0,0,0,2.42.56A8.87,8.87,0,0,0,169.39,189.55Zm30-49A8.54,8.54,0,0,0,197,140a8.65,8.65,0,0,0,2.21,1.16,8.37,8.37,0,0,0,2.42.55A9,9,0,0,0,199.41,140.51Zm-8.33-14c-.16.33-.29.66-.42,1a8.52,8.52,0,0,0-.55,2.43,8.62,8.62,0,0,0,1.15-2.21,7.2,7.2,0,0,0,.31-1A4.14,4.14,0,0,0,191.08,126.52Zm-9.91,53.2a8.94,8.94,0,0,0-.54,2.43,8.62,8.62,0,0,0,1.15-2.21,8.72,8.72,0,0,0,.56-2.42A9.15,9.15,0,0,0,181.17,179.72ZM192,151.59a8.89,8.89,0,0,0-.56,2.42,8.59,8.59,0,0,0,1.17-2.19,9.33,9.33,0,0,0,.56-2.44A9,9,0,0,0,192,151.59Zm-34.92,44.87h.5a6,6,0,0,0,.15-1.06A7.27,7.27,0,0,0,157.11,196.46Zm43.23-17a8.66,8.66,0,0,0-2.11,1.32,8.68,8.68,0,0,0,2.38-.74,8.14,8.14,0,0,0,2.1-1.32A8.61,8.61,0,0,0,200.34,179.5Zm-31.43-4.71a8.8,8.8,0,0,0-2.1,1.32,9.72,9.72,0,0,0,4.48-2.06A8.45,8.45,0,0,0,168.91,174.79Zm6.76-27.23a8.72,8.72,0,0,0-2.1,1.32,8.6,8.6,0,0,0,2.37-.73,9,9,0,0,0,2.11-1.32A8.66,8.66,0,0,0,175.67,147.56Zm6.07,47.92a6.52,6.52,0,0,0,.35,1.4h.6A7.42,7.42,0,0,0,181.74,195.48Zm-26.26-13.06a8.94,8.94,0,0,0-1.31-2.11,8.56,8.56,0,0,0,.73,2.38,8.66,8.66,0,0,0,1.32,2.11A8.68,8.68,0,0,0,155.48,182.42Zm10.85-21.85a8.66,8.66,0,0,0-1.32-2.11,9.41,9.41,0,0,0,.73,2.38,8.65,8.65,0,0,0,1.33,2.1A9,9,0,0,0,166.33,160.57Zm26,7.36a8.48,8.48,0,0,0-1.32-2.11,8.68,8.68,0,0,0,.74,2.38,8.86,8.86,0,0,0,1.32,2.11A8.25,8.25,0,0,0,192.31,167.93Zm-8.52-30.78a8.76,8.76,0,0,0-1.33-2.12,9,9,0,0,0,.74,2.38,8.59,8.59,0,0,0,1.33,2.11A9,9,0,0,0,183.79,137.15Z" style="fill:#fff"></path><path d="M206.77,139.46c10,12.13,20.88,33.89,17.69,45-3.06,10.72-50.72,9.19-58.79,8.05-3.48-.5.47-24.58,4.23-24.32,6.19.44,31.56-1.71,32-1.71,0,0-3.88-11.44-6.77-23.83C191.21,125.78,199.72,130.88,206.77,139.46Z" style="fill:#f7a9a0"></path><path d="M201.68,166.27a22.16,22.16,0,0,1,5.55,2.2A20.34,20.34,0,0,1,212,172c-1.75-1-3.43-1.95-5.16-2.88S203.41,167.26,201.68,166.27Z" style="fill:#263238"></path><rect x="156.29" y="180.08" width="61.5" height="2.76" style="fill:#c7c7c7"></rect><rect x="156.29" y="180.08" width="30.95" height="2.76" style="fill:#a6a6a6"></rect><polygon points="183.91 182.84 123.98 182.84 116.14 142.13 176.08 142.13 183.91 182.84" style="fill:#c7c7c7"></polygon><path d="M153.68,162.48a3.3,3.3,0,0,1-3.33,3.65,4.06,4.06,0,0,1-4-3.65,3.29,3.29,0,0,1,3.33-3.65A4.08,4.08,0,0,1,153.68,162.48Z" style="fill:#fff"></path><path d="M176.91,185.08c-4.06,2-9,7.07-12.38,7.55a3.88,3.88,0,0,1-4.14-2.06s-1.59,3.39-4.7,3.32c-1.6,0-2.95-2.61-2.95-2.61s-1.39,2.65-4.15,2.43c-2.2-.19-3.22-2.75-3.22-2.75s-2.53,1.93-4.71,1c-4.41-1.83-4.85-20.76,2.05-23.84,3.22-1.44,3.07,3.19,3.07,3.19s1.82-6.61,5.71-6.8,3.35,5.81,3.35,5.81,1.82-6.38,5.88-6.17c4.23.22,2.65,6.13,2.65,6.13s2.75-4.28,5.83-3.4c5.07,1.44-1,11.13.06,15.27l6.76.2Z" style="fill:#f7a9a0"></path><path d="M171.05,188.61c4-1.6,5.82,1.28,10,.86,4.61-.46,3.28-5.9-4.76-7.09l-7-.2Z" style="fill:#f7a9a0"></path><path d="M145.15,190.58c0,.07-.08.09-.1,0a32.83,32.83,0,0,1,.71-19.52c.07-.19.43-.16.39.08A67,67,0,0,0,145.15,190.58Z" style="fill:#263238"></path><path d="M152.7,191.37c0,.07-.11.09-.13,0-1.68-6.39-1.37-14.62,2.1-21.25.12-.22.45-.31.33,0C153,174.68,152,185.29,152.7,191.37Z" style="fill:#263238"></path><path d="M163.77,169.9c-3.07,6.49-3.76,13.31-3.47,20.41,0,.1-.12.09-.15,0-1.09-3.44-.81-8-.29-11.51a18.87,18.87,0,0,1,3.69-9C163.63,169.69,163.84,169.76,163.77,169.9Z" style="fill:#263238"></path><path d="M165.28,192.46a14.48,14.48,0,0,0,3.37-1.83c1.06-.73,2-1.56,3.15-2.26a3,3,0,0,1,.94-.44,3.12,3.12,0,0,1,1.06,0c.65.11,1.28.27,1.91.44a27.51,27.51,0,0,0,3.71.84c1.21.14,2.55.12,3.34-.68a2.26,2.26,0,0,0,.63-1.5,2.31,2.31,0,0,0-.63-1.53,8.3,8.3,0,0,0-3.07-2.09,12.27,12.27,0,0,0-3.67-1.05,10.45,10.45,0,0,1,3.82.69,8.61,8.61,0,0,1,3.39,2,2.79,2.79,0,0,1,0,3.93,3.19,3.19,0,0,1-1.91.94,7.23,7.23,0,0,1-2,0,26,26,0,0,1-3.8-.94c-.62-.18-1.22-.39-1.83-.52a2.65,2.65,0,0,0-.86-.08,3,3,0,0,0-.82.35C169.89,190.08,167.8,191.8,165.28,192.46Z" style="fill:#263238"></path><path d="M218.59,153.33l-21.72.77a161.79,161.79,0,0,1-3.82-16.55c-1.11-8,1.61-10.29,9.08-3.8C207.14,138.1,218.59,153.33,218.59,153.33Z" style="fill:#FFC727"></path><path d="M209.86,151.69a10.55,10.55,0,0,1-2.57-.81,10.05,10.05,0,0,1-2.31-1.37,12.23,12.23,0,0,1,4.88,2.18Zm-5.28-15.53a12.3,12.3,0,0,0-4.67,1.86,10.53,10.53,0,0,0,2.61-.66,11.22,11.22,0,0,0,2.16-1.09Z" style="fill:#fff"></path><path d="M199,154a18.9,18.9,0,0,0-2.13,0c-.32-1.25-.63-2.5-1-3.74-.17-.62-.35-1.24-.53-1.85s-.41-1.46-.59-2.06c0-.09-.15-.07-.13,0,.16.8.3,1.39.45,2.09q.15.74.33,1.47l-.18-.35c-.32-.63-.69-1.22-1-1.87,0-.08-.17,0-.13.05.32.64.54,1.31.84,1.94a10.14,10.14,0,0,0,.73,1.43c.25,1.06.41,2.27.72,3.28a16.65,16.65,0,0,0,2.55-.34S199.05,154.05,199,154Z" style="fill:#263238"></path><path d="M216.31,151.35c-3.17-.11-6.33-.17-9.5-.09-1.58,0-7.89.53-9.47.6-.08,0-.07.13,0,.13,2,.11,8.22-.1,9.8-.15,3.16-.09,6-.34,9.17-.36C216.41,151.48,216.4,151.35,216.31,151.35Z" style="fill:#263238"></path><path d="M193.22,132.21c-.52.95-7.19,6.13-11.74,4.61-1.48-.5.88-8.71.88-8.71l0-.64.51-9,11.79-3.57,1.68-.44s-.3,2.46-.71,5.53c0,.14,0,.28,0,.43s0,.34-.06.5l-.18,1.39c0,.36-.1.7-.17,1.07s-.12.73-.17,1.11A57.22,57.22,0,0,1,193.22,132.21Z" style="fill:#f7a9a0"></path><path d="M196.38,114.42s-.3,2.46-.71,5.53c0,.14,0,.28,0,.43s0,.34-.06.5l-.18,1.39c0,.36-.1.7-.17,1.07s-.12.73-.17,1.11c-.2,1.16-.44,2.32-.67,3.38-6.64,0-10.67-4.74-11.66-6l.19-3.35,11.8-3.57Z" style="fill:#263238"></path><path d="M204.45,105.92c1.21,15.84-8.14,18.35-11.55,18.61-3.1.23-13.69.63-16.53-15s4.14-21.2,11.2-22.11S203.24,90.09,204.45,105.92Z" style="fill:#f7a9a0"></path><path d="M201,102.15c-.38,0-.72-.1-1.1-.15a1.85,1.85,0,0,1-1.08-.37.57.57,0,0,1-.05-.7,1.41,1.41,0,0,1,1.37-.42,2.1,2.1,0,0,1,1.35.64A.61.61,0,0,1,201,102.15Z" style="fill:#263238"></path><path d="M190.46,104c.37-.06.71-.18,1.07-.27a1.81,1.81,0,0,0,1-.49.57.57,0,0,0,0-.69,1.41,1.41,0,0,0-1.41-.28,2,2,0,0,0-1.27.79A.61.61,0,0,0,190.46,104Z" style="fill:#263238"></path><path d="M193.08,106.79s-.08.06-.08.11c.11,1.08,0,2.34-.92,2.77a0,0,0,0,0,0,.06C193.28,109.48,193.35,107.81,193.08,106.79Z" style="fill:#263238"></path><path d="M192,105.72c-1.76,0-1.68,3.5,0,3.52S193.51,105.74,192,105.72Z" style="fill:#263238"></path><path d="M191.35,105.92c-.3.21-.6.57-1,.61s-.77-.31-1-.65c0,0-.06,0-.06,0,0,.67.28,1.36,1,1.44s1.13-.53,1.28-1.21C191.59,106,191.47,105.84,191.35,105.92Z" style="fill:#263238"></path><path d="M199.38,106s.09,0,.09.09c0,1.09.21,2.34,1.21,2.66a0,0,0,0,1,0,.06C199.46,108.71,199.22,107.05,199.38,106Z" style="fill:#263238"></path><path d="M200.3,104.84c1.75-.21,2,3.3.42,3.49S198.84,105,200.3,104.84Z" style="fill:#263238"></path><path d="M201.05,105c.3.16.6.48.93.47s.64-.41.86-.79c0,0,0,0,0,0,.08.67-.09,1.39-.72,1.57s-1.06-.38-1.27-1C200.86,105.14,200.94,104.94,201.05,105Z" style="fill:#263238"></path><path d="M193,115.29c.26.26.51.62.9.66a2.84,2.84,0,0,0,1.18-.25,0,0,0,0,1,0,.06,1.48,1.48,0,0,1-1.4.56,1.16,1.16,0,0,1-.84-1A.06.06,0,0,1,193,115.29Z" style="fill:#263238"></path><path d="M197.91,111s.28,1.63.31,2.4a4.15,4.15,0,0,1-4.09-1.1c-.06-.07,0-.16.11-.11a5.58,5.58,0,0,0,3.39.84c0-.22-.58-2.77-.46-2.79a6.65,6.65,0,0,1,1.76.34c-.49-3.41-1.53-6.71-2-10.11a.11.11,0,0,1,.2-.06,55.69,55.69,0,0,1,2.59,10.8C199.83,111.63,198.22,111.11,197.91,111Z" style="fill:#263238"></path><path d="M177.33,111.14c3,.29,3.6-6.65,3.6-6.65s12.81-2.58,13.58-13.1a17.75,17.75,0,0,0,9.25,9.44s-.81-11.48-10-13.44c0,0-11.43-3.77-17.51,5.4S175.29,111,177.33,111.14Z" style="fill:#263238"></path><path d="M194.53,90.62a11.35,11.35,0,0,1-.43,4.8,11.91,11.91,0,0,1-2.3,4.31,10.06,10.06,0,0,1-.84.89l-.44.44c-.15.13-.31.26-.48.38s-.64.51-1,.74l-1.06.62c-.18.09-.35.2-.54.29l-.56.24-1.11.47c-.78.24-1.56.44-2.33.63.73-.35,1.48-.62,2.19-1l1.05-.55.52-.28c.17-.1.33-.22.49-.33l1-.65c.31-.24.6-.5.9-.75l.45-.37.4-.42a9.15,9.15,0,0,0,.79-.86,14.32,14.32,0,0,0,3-6.28A13.26,13.26,0,0,0,194.53,90.62Z" style="fill:#263238"></path><path d="M179,110.56s-3.42-5-5.68-3.78.27,8.43,2.9,9.44a2.7,2.7,0,0,0,3.62-1.41Z" style="fill:#f7a9a0"></path><path d="M174.08,108.83s-.05.06,0,.07c1.85.77,2.81,2.5,3.47,4.28a1.47,1.47,0,0,0-2.21-.42s0,.11.05.1a1.64,1.64,0,0,1,1.81.59,7.48,7.48,0,0,1,.85,1.48c.09.17.39.08.33-.11l0,0C178.41,112.42,176.61,109.09,174.08,108.83Z" style="fill:#263238"></path></g></svg>